<ttFont>
    <TTGlyph name="A" xMin="-26" yMin="-2" xMax="668" yMax="706">
      <contour>
        <pt x="533" y="1" on="1"/>
        <pt x="406" y="-2" on="1"/>
        <pt x="397" y="-2" on="0"/>
        <pt x="397" y="32" on="0"/>
        <pt x="406" y="32" on="1"/>
        <pt x="463" y="32" on="1"/>
        <pt x="484" y="32" on="0"/>
        <pt x="484" y="49" on="1"/>
        <pt x="484" y="56" on="0"/>
        <pt x="408" y="281" on="0"/>
        <pt x="399" y="309" on="1"/>
        <pt x="218" y="309" on="1"/>
        <pt x="147" y="83" on="0"/>
        <pt x="147" y="48" on="1"/>
        <pt x="147" y="33" on="0"/>
        <pt x="153" y="33" on="1"/>
        <pt x="225" y="33" on="1"/>
        <pt x="236" y="33" on="0"/>
        <pt x="236" y="0" on="0"/>
        <pt x="223" y="0" on="1"/>
        <pt x="94" y="1" on="1"/>
        <pt x="-17" y="-2" on="1"/>
        <pt x="-26" y="-2" on="0"/>
        <pt x="-26" y="32" on="0"/>
        <pt x="-17" y="32" on="1"/>
        <pt x="33" y="32" on="1"/>
        <pt x="55" y="32" on="0"/>
        <pt x="66" y="54" on="1"/>
        <pt x="108" y="145" on="0"/>
        <pt x="237" y="505" on="0"/>
        <pt x="284" y="622" on="0"/>
        <pt x="284" y="635" on="0"/>
        <pt x="276" y="651" on="0"/>
        <pt x="276" y="653" on="1"/>
        <pt x="276" y="661" on="0"/>
        <pt x="305" y="661" on="0"/>
        <pt x="330" y="675" on="0"/>
        <pt x="334" y="684" on="1"/>
        <pt x="345" y="706" on="0"/>
        <pt x="354" y="706" on="1"/>
        <pt x="358" y="706" on="0"/>
        <pt x="368" y="676" on="1"/>
        <pt x="569" y="133" on="1"/>
        <pt x="607" y="33" on="0"/>
        <pt x="622" y="33" on="1"/>
        <pt x="658" y="33" on="1"/>
        <pt x="668" y="33" on="0"/>
        <pt x="668" y="0" on="0"/>
        <pt x="660" y="0" on="1"/>
      </contour>
      <contour>
        <pt x="309" y="569" on="1"/>
        <pt x="278" y="489" on="0"/>
        <pt x="231" y="349" on="1"/>
        <pt x="385" y="349" on="1"/>
        <pt x="318" y="552" on="0"/>
        <pt x="313" y="569" on="1"/>
      </contour>
    </TTGlyph>
    <TTGlyph name="AE" xMin="-35" yMin="-29" xMax="838" yMax="701">
      <contour>
        <pt x="331" y="673" on="1"/>
        <pt x="457" y="671" on="1"/>
        <pt x="747" y="671" on="1"/>
        <pt x="747" y="692" on="1"/>
        <pt x="747" y="701" on="0"/>
        <pt x="776" y="701" on="0"/>
        <pt x="776" y="692" on="1"/>
        <pt x="776" y="592" on="0"/>
        <pt x="786" y="540" on="1"/>
        <pt x="788" y="532" on="0"/>
        <pt x="756" y="532" on="0"/>
        <pt x="754" y="540" on="1"/>
        <pt x="738" y="603" on="0"/>
        <pt x="716" y="613" on="1"/>
        <pt x="663" y="633" on="0"/>
        <pt x="546" y="634" on="1"/>
        <pt x="526" y="633" on="0"/>
        <pt x="513" y="613" on="0"/>
        <pt x="513" y="588" on="1"/>
        <pt x="513" y="352" on="1"/>
        <pt x="575" y="353" on="0"/>
        <pt x="693" y="363" on="0"/>
        <pt x="698" y="366" on="1"/>
        <pt x="708" y="425" on="1"/>
        <pt x="709" y="432" on="0"/>
        <pt x="720" y="432" on="1"/>
        <pt x="741" y="432" on="0"/>
        <pt x="739" y="423" on="1"/>
        <pt x="734" y="384" on="0"/>
        <pt x="734" y="286" on="0"/>
        <pt x="739" y="247" on="1"/>
        <pt x="741" y="239" on="0"/>
        <pt x="708" y="239" on="0"/>
        <pt x="708" y="245" on="1"/>
        <pt x="697" y="305" on="1"/>
        <pt x="691" y="308" on="0"/>
        <pt x="576" y="319" on="0"/>
        <pt x="513" y="320" on="1"/>
        <pt x="513" y="128" on="1"/>
        <pt x="512" y="114" on="0"/>
        <pt x="512" y="102" on="1"/>
        <pt x="512" y="40" on="0"/>
        <pt x="534" y="40" on="1"/>
        <pt x="585" y="40" on="1"/>
        <pt x="740" y="42" on="0"/>
        <pt x="797" y="82" on="1"/>
        <pt x="804" y="137" on="1"/>
        <pt x="806" y="145" on="0"/>
        <pt x="837" y="145" on="0"/>
        <pt x="837" y="139" on="1"/>
        <pt x="828" y="-22" on="1"/>
        <pt x="828" y="-29" on="0"/>
        <pt x="797" y="-29" on="0"/>
        <pt x="797" y="-22" on="1"/>
        <pt x="797" y="0" on="1"/>
        <pt x="550" y="0" on="1"/>
        <pt x="329" y="-2" on="1"/>
        <pt x="321" y="-2" on="0"/>
        <pt x="321" y="32" on="0"/>
        <pt x="329" y="32" on="1"/>
        <pt x="369" y="32" on="1"/>
        <pt x="394" y="32" on="0"/>
        <pt x="410" y="51" on="0"/>
        <pt x="410" y="78" on="1"/>
        <pt x="410" y="320" on="1"/>
        <pt x="324" y="320" on="0"/>
        <pt x="254" y="318" on="1"/>
        <pt x="129" y="73" on="0"/>
        <pt x="129" y="39" on="1"/>
        <pt x="129" y="33" on="0"/>
        <pt x="132" y="33" on="1"/>
        <pt x="185" y="33" on="1"/>
        <pt x="196" y="33" on="0"/>
        <pt x="196" y="0" on="0"/>
        <pt x="183" y="0" on="1"/>
        <pt x="73" y="1" on="1"/>
        <pt x="-26" y="-2" on="1"/>
        <pt x="-35" y="-2" on="0"/>
        <pt x="-35" y="32" on="0"/>
        <pt x="-26" y="32" on="1"/>
        <pt x="12" y="32" on="1"/>
        <pt x="62" y="32" on="0"/>
        <pt x="230" y="355" on="1"/>
        <pt x="230" y="357" on="1"/>
        <pt x="231" y="357" on="1"/>
        <pt x="375" y="635" on="0"/>
        <pt x="378" y="640" on="1"/>
        <pt x="331" y="640" on="1"/>
        <pt x="323" y="640" on="0"/>
        <pt x="323" y="673" on="0"/>
      </contour>
      <contour>
        <pt x="410" y="352" on="1"/>
        <pt x="410" y="606" on="1"/>
        <pt x="350" y="505" on="0"/>
        <pt x="273" y="355" on="1"/>
        <pt x="390" y="352" on="0"/>
      </contour>
    </TTGlyph>
    <TTGlyph name="Aacute" xMin="-26" yMin="-2" xMax="668" yMax="939">
      <contour>
        <pt x="264" y="736" on="1"/>
        <pt x="251" y="736" on="0"/>
        <pt x="251" y="745" on="1"/>
        <pt x="251" y="748" on="0"/>
        <pt x="293" y="795" on="0"/>
        <pt x="354" y="879" on="0"/>
        <pt x="365" y="898" on="1"/>
        <pt x="390" y="939" on="0"/>
        <pt x="429" y="939" on="1"/>
        <pt x="444" y="939" on="0"/>
        <pt x="464" y="921" on="0"/>
        <pt x="464" y="907" on="1"/>
        <pt x="464" y="881" on="0"/>
        <pt x="396" y="823" on="0"/>
        <pt x="274" y="739" on="1"/>
        <pt x="269" y="736" on="0"/>
      </contour>
      <contour>
        <pt x="533" y="1" on="1"/>
        <pt x="406" y="-2" on="1"/>
        <pt x="397" y="-2" on="0"/>
        <pt x="397" y="32" on="0"/>
        <pt x="406" y="32" on="1"/>
        <pt x="463" y="32" on="1"/>
        <pt x="484" y="32" on="0"/>
        <pt x="484" y="49" on="1"/>
        <pt x="484" y="56" on="0"/>
        <pt x="408" y="281" on="0"/>
        <pt x="399" y="309" on="1"/>
        <pt x="218" y="309" on="1"/>
        <pt x="147" y="83" on="0"/>
        <pt x="147" y="48" on="1"/>
        <pt x="147" y="33" on="0"/>
        <pt x="153" y="33" on="1"/>
        <pt x="225" y="33" on="1"/>
        <pt x="236" y="33" on="0"/>
        <pt x="236" y="0" on="0"/>
        <pt x="223" y="0" on="1"/>
        <pt x="94" y="1" on="1"/>
        <pt x="94" y="1" on="0"/>
        <pt x="-17" y="-2" on="1"/>
        <pt x="-26" y="-2" on="0"/>
        <pt x="-26" y="32" on="0"/>
        <pt x="-17" y="32" on="1"/>
        <pt x="33" y="32" on="1"/>
        <pt x="55" y="32" on="0"/>
        <pt x="66" y="54" on="1"/>
        <pt x="108" y="145" on="0"/>
        <pt x="237" y="505" on="0"/>
        <pt x="284" y="622" on="0"/>
        <pt x="284" y="635" on="0"/>
        <pt x="276" y="651" on="0"/>
        <pt x="276" y="653" on="1"/>
        <pt x="276" y="661" on="0"/>
        <pt x="305" y="661" on="0"/>
        <pt x="330" y="675" on="0"/>
        <pt x="334" y="684" on="1"/>
        <pt x="345" y="706" on="0"/>
        <pt x="354" y="706" on="1"/>
        <pt x="358" y="706" on="0"/>
        <pt x="368" y="676" on="1"/>
        <pt x="569" y="133" on="1"/>
        <pt x="607" y="33" on="0"/>
        <pt x="622" y="33" on="1"/>
        <pt x="658" y="33" on="1"/>
        <pt x="668" y="33" on="0"/>
        <pt x="668" y="0" on="0"/>
        <pt x="660" y="0" on="1"/>
      </contour>
      <contour>
        <pt x="309" y="569" on="1"/>
        <pt x="278" y="489" on="0"/>
        <pt x="231" y="349" on="1"/>
        <pt x="385" y="349" on="1"/>
        <pt x="318" y="552" on="0"/>
        <pt x="313" y="569" on="1"/>
      </contour>
    </TTGlyph>
    <TTGlyph name="Acircumflex" xMin="-26" yMin="-2" xMax="668" yMax="925">
      <contour>
        <pt x="533" y="1" on="1"/>
        <pt x="406" y="-2" on="1"/>
        <pt x="397" y="-2" on="0"/>
        <pt x="397" y="32" on="0"/>
        <pt x="406" y="32" on="1"/>
        <pt x="463" y="32" on="1"/>
        <pt x="484" y="32" on="0"/>
        <pt x="484" y="49" on="1"/>
        <pt x="484" y="56" on="0"/>
        <pt x="408" y="281" on="0"/>
        <pt x="399" y="309" on="1"/>
        <pt x="218" y="309" on="1"/>
        <pt x="147" y="83" on="0"/>
        <pt x="147" y="48" on="1"/>
        <pt x="147" y="33" on="0"/>
        <pt x="153" y="33" on="1"/>
        <pt x="225" y="33" on="1"/>
        <pt x="236" y="33" on="0"/>
        <pt x="236" y="0" on="0"/>
        <pt x="223" y="0" on="1"/>
        <pt x="94" y="1" on="1"/>
        <pt x="-17" y="-2" on="1"/>
        <pt x="-26" y="-2" on="0"/>
        <pt x="-26" y="32" on="0"/>
        <pt x="-17" y="32" on="1"/>
        <pt x="33" y="32" on="1"/>
        <pt x="55" y="32" on="0"/>
        <pt x="66" y="54" on="1"/>
        <pt x="108" y="145" on="0"/>
        <pt x="237" y="505" on="0"/>
        <pt x="284" y="622" on="0"/>
        <pt x="284" y="635" on="0"/>
        <pt x="276" y="651" on="0"/>
        <pt x="276" y="653" on="1"/>
        <pt x="276" y="661" on="0"/>
        <pt x="305" y="661" on="0"/>
        <pt x="330" y="675" on="0"/>
        <pt x="334" y="684" on="1"/>
        <pt x="345" y="706" on="0"/>
        <pt x="354" y="706" on="1"/>
        <pt x="358" y="706" on="0"/>
        <pt x="368" y="676" on="1"/>
        <pt x="569" y="133" on="1"/>
        <pt x="607" y="33" on="0"/>
        <pt x="622" y="33" on="1"/>
        <pt x="658" y="33" on="1"/>
        <pt x="668" y="33" on="0"/>
        <pt x="668" y="0" on="0"/>
        <pt x="660" y="0" on="1"/>
      </contour>
      <contour>
        <pt x="309" y="569" on="1"/>
        <pt x="278" y="489" on="0"/>
        <pt x="231" y="349" on="1"/>
        <pt x="385" y="349" on="1"/>
        <pt x="318" y="552" on="0"/>
        <pt x="313" y="569" on="1"/>
      </contour>
      <contour>
        <pt x="218" y="764" on="1"/>
        <pt x="209" y="756" on="0"/>
        <pt x="191" y="756" on="0"/>
        <pt x="188" y="764" on="1"/>
        <pt x="302" y="911" on="1"/>
        <pt x="313" y="925" on="0"/>
        <pt x="343" y="925" on="0"/>
        <pt x="357" y="911" on="1"/>
        <pt x="467" y="764" on="1"/>
        <pt x="462" y="757" on="0"/>
        <pt x="444" y="757" on="0"/>
        <pt x="436" y="764" on="1"/>
        <pt x="329" y="854" on="1"/>
      </contour>
    </TTGlyph>
    <TTGlyph name="Adieresis" xMin="-26" yMin="-2" xMax="668" yMax="891">
      <contour>
        <pt x="533" y="1" on="1"/>
        <pt x="406" y="-2" on="1"/>
        <pt x="397" y="-2" on="0"/>
        <pt x="397" y="32" on="0"/>
        <pt x="406" y="32" on="1"/>
        <pt x="463" y="32" on="1"/>
        <pt x="484" y="32" on="0"/>
        <pt x="484" y="49" on="1"/>
        <pt x="484" y="56" on="0"/>
        <pt x="408" y="281" on="0"/>
        <pt x="399" y="309" on="1"/>
        <pt x="218" y="309" on="1"/>
        <pt x="147" y="83" on="0"/>
        <pt x="147" y="48" on="1"/>
        <pt x="147" y="33" on="0"/>
        <pt x="153" y="33" on="1"/>
        <pt x="225" y="33" on="1"/>
        <pt x="236" y="33" on="0"/>
        <pt x="236" y="0" on="0"/>
        <pt x="223" y="0" on="1"/>
        <pt x="94" y="1" on="1"/>
        <pt x="-17" y="-2" on="1"/>
        <pt x="-26" y="-2" on="0"/>
        <pt x="-26" y="32" on="0"/>
        <pt x="-17" y="32" on="1"/>
        <pt x="33" y="32" on="1"/>
        <pt x="55" y="32" on="0"/>
        <pt x="66" y="54" on="1"/>
        <pt x="108" y="145" on="0"/>
        <pt x="237" y="505" on="0"/>
        <pt x="284" y="622" on="0"/>
        <pt x="284" y="635" on="0"/>
        <pt x="276" y="651" on="0"/>
        <pt x="276" y="653" on="1"/>
        <pt x="276" y="661" on="0"/>
        <pt x="305" y="661" on="0"/>
        <pt x="330" y="675" on="0"/>
        <pt x="334" y="684" on="1"/>
        <pt x="345" y="706" on="0"/>
        <pt x="354" y="706" on="1"/>
        <pt x="358" y="706" on="0"/>
        <pt x="368" y="676" on="1"/>
        <pt x="569" y="133" on="1"/>
        <pt x="607" y="33" on="0"/>
        <pt x="622" y="33" on="1"/>
        <pt x="658" y="33" on="1"/>
        <pt x="668" y="33" on="0"/>
        <pt x="668" y="0" on="0"/>
        <pt x="660" y="0" on="1"/>
      </contour>
      <contour>
        <pt x="309" y="569" on="1"/>
        <pt x="278" y="489" on="0"/>
        <pt x="231" y="349" on="1"/>
        <pt x="385" y="349" on="1"/>
        <pt x="318" y="552" on="0"/>
        <pt x="313" y="569" on="1"/>
      </contour>
      <contour>
        <pt x="266" y="789" on="0"/>
        <pt x="222" y="789" on="0"/>
        <pt x="193" y="820" on="0"/>
        <pt x="193" y="863" on="0"/>
        <pt x="223" y="891" on="0"/>
        <pt x="264" y="891" on="0"/>
        <pt x="295" y="862" on="0"/>
        <pt x="295" y="820" on="0"/>
      </contour>
      <contour>
        <pt x="433" y="789" on="0"/>
        <pt x="389" y="789" on="0"/>
        <pt x="360" y="820" on="0"/>
        <pt x="360" y="862" on="0"/>
        <pt x="391" y="891" on="0"/>
        <pt x="431" y="891" on="0"/>
        <pt x="462" y="862" on="0"/>
        <pt x="462" y="820" on="0"/>
      </contour>
    </TTGlyph>
    <TTGlyph name="Agrave" xMin="-26" yMin="-2" xMax="668" yMax="939">
      <contour>
        <pt x="533" y="1" on="1"/>
        <pt x="406" y="-2" on="1"/>
        <pt x="397" y="-2" on="0"/>
        <pt x="397" y="32" on="0"/>
        <pt x="406" y="32" on="1"/>
        <pt x="463" y="32" on="1"/>
        <pt x="484" y="32" on="0"/>
        <pt x="484" y="49" on="1"/>
        <pt x="484" y="56" on="0"/>
        <pt x="408" y="281" on="0"/>
        <pt x="399" y="309" on="1"/>
        <pt x="218" y="309" on="1"/>
        <pt x="147" y="83" on="0"/>
        <pt x="147" y="48" on="1"/>
        <pt x="147" y="33" on="0"/>
        <pt x="153" y="33" on="1"/>
        <pt x="225" y="33" on="1"/>
        <pt x="236" y="33" on="0"/>
        <pt x="236" y="0" on="0"/>
        <pt x="223" y="0" on="1"/>
        <pt x="94" y="1" on="1"/>
        <pt x="-17" y="-2" on="1"/>
        <pt x="-26" y="-2" on="0"/>
        <pt x="-26" y="32" on="0"/>
        <pt x="-17" y="32" on="1"/>
        <pt x="33" y="32" on="1"/>
        <pt x="55" y="32" on="0"/>
        <pt x="66" y="54" on="1"/>
        <pt x="108" y="145" on="0"/>
        <pt x="237" y="505" on="0"/>
        <pt x="284" y="622" on="0"/>
        <pt x="284" y="635" on="0"/>
        <pt x="276" y="651" on="0"/>
        <pt x="276" y="653" on="1"/>
        <pt x="276" y="661" on="0"/>
        <pt x="305" y="661" on="0"/>
        <pt x="330" y="675" on="0"/>
        <pt x="334" y="684" on="1"/>
        <pt x="345" y="706" on="0"/>
        <pt x="354" y="706" on="1"/>
        <pt x="358" y="706" on="0"/>
        <pt x="368" y="676" on="1"/>
        <pt x="569" y="133" on="1"/>
        <pt x="607" y="33" on="0"/>
        <pt x="622" y="33" on="1"/>
        <pt x="658" y="33" on="1"/>
        <pt x="668" y="33" on="0"/>
        <pt x="668" y="0" on="0"/>
        <pt x="660" y="0" on="1"/>
      </contour>
      <contour>
        <pt x="309" y="569" on="1"/>
        <pt x="278" y="489" on="0"/>
        <pt x="231" y="349" on="1"/>
        <pt x="385" y="349" on="1"/>
        <pt x="318" y="552" on="0"/>
        <pt x="313" y="569" on="1"/>
      </contour>
      <contour>
        <pt x="226" y="907" on="1"/>
        <pt x="226" y="921" on="0"/>
        <pt x="246" y="939" on="0"/>
        <pt x="289" y="939" on="0"/>
        <pt x="318" y="910" on="0"/>
        <pt x="388" y="804" on="0"/>
        <pt x="439" y="748" on="0"/>
        <pt x="439" y="745" on="1"/>
        <pt x="439" y="736" on="0"/>
        <pt x="420" y="736" on="0"/>
        <pt x="416" y="739" on="1"/>
        <pt x="294" y="823" on="0"/>
        <pt x="226" y="881" on="0"/>
      </contour>
    </TTGlyph>
    <TTGlyph name="Aring" xMin="-26" yMin="-2" xMax="668" yMax="940">
      <contour>
        <pt x="533" y="1" on="1"/>
        <pt x="406" y="-2" on="1"/>
        <pt x="397" y="-2" on="0"/>
        <pt x="397" y="32" on="0"/>
        <pt x="406" y="32" on="1"/>
        <pt x="463" y="32" on="1"/>
        <pt x="484" y="32" on="0"/>
        <pt x="484" y="49" on="1"/>
        <pt x="484" y="56" on="0"/>
        <pt x="408" y="281" on="0"/>
        <pt x="399" y="309" on="1"/>
        <pt x="218" y="309" on="1"/>
        <pt x="147" y="83" on="0"/>
        <pt x="147" y="48" on="1"/>
        <pt x="147" y="33" on="0"/>
        <pt x="153" y="33" on="1"/>
        <pt x="225" y="33" on="1"/>
        <pt x="236" y="33" on="0"/>
        <pt x="236" y="0" on="0"/>
        <pt x="223" y="0" on="1"/>
        <pt x="94" y="1" on="1"/>
        <pt x="-17" y="-2" on="1"/>
        <pt x="-26" y="-2" on="0"/>
        <pt x="-26" y="32" on="0"/>
        <pt x="-17" y="32" on="1"/>
        <pt x="33" y="32" on="1"/>
        <pt x="55" y="32" on="0"/>
        <pt x="66" y="54" on="1"/>
        <pt x="108" y="145" on="0"/>
        <pt x="237" y="505" on="0"/>
        <pt x="284" y="622" on="0"/>
        <pt x="284" y="635" on="0"/>
        <pt x="276" y="651" on="0"/>
        <pt x="276" y="653" on="1"/>
        <pt x="276" y="661" on="0"/>
        <pt x="305" y="661" on="0"/>
        <pt x="330" y="675" on="0"/>
        <pt x="334" y="684" on="1"/>
        <pt x="345" y="706" on="0"/>
        <pt x="354" y="706" on="1"/>
        <pt x="358" y="706" on="0"/>
        <pt x="368" y="676" on="1"/>
        <pt x="569" y="133" on="1"/>
        <pt x="607" y="33" on="0"/>
        <pt x="622" y="33" on="1"/>
        <pt x="658" y="33" on="1"/>
        <pt x="668" y="33" on="0"/>
        <pt x="668" y="0" on="0"/>
        <pt x="660" y="0" on="1"/>
      </contour>
      <contour>
        <pt x="309" y="569" on="1"/>
        <pt x="278" y="489" on="0"/>
        <pt x="231" y="349" on="1"/>
        <pt x="385" y="349" on="1"/>
        <pt x="318" y="552" on="0"/>
        <pt x="313" y="569" on="1"/>
      </contour>
      <contour>
        <pt x="431" y="812" on="0"/>
        <pt x="377" y="759" on="0"/>
        <pt x="299" y="759" on="0"/>
        <pt x="244" y="813" on="0"/>
        <pt x="244" y="887" on="0"/>
        <pt x="299" y="940" on="0"/>
        <pt x="374" y="940" on="0"/>
        <pt x="431" y="889" on="0"/>
      </contour>
      <contour>
        <pt x="278" y="824" on="0"/>
        <pt x="314" y="788" on="0"/>
        <pt x="363" y="788" on="0"/>
        <pt x="397" y="825" on="0"/>
        <pt x="397" y="875" on="0"/>
        <pt x="362" y="912" on="0"/>
        <pt x="311" y="912" on="0"/>
        <pt x="278" y="875" on="0"/>
      </contour>
    </TTGlyph>
    <TTGlyph name="Atilde" xMin="-26" yMin="-2" xMax="668" yMax="973">
      <contour>
        <pt x="533" y="1" on="1"/>
        <pt x="406" y="-2" on="1"/>
        <pt x="397" y="-2" on="0"/>
        <pt x="397" y="32" on="0"/>
        <pt x="406" y="32" on="1"/>
        <pt x="463" y="32" on="1"/>
        <pt x="484" y="32" on="0"/>
        <pt x="484" y="49" on="1"/>
        <pt x="484" y="56" on="0"/>
        <pt x="408" y="281" on="0"/>
        <pt x="399" y="309" on="1"/>
        <pt x="218" y="309" on="1"/>
        <pt x="147" y="83" on="0"/>
        <pt x="147" y="48" on="1"/>
        <pt x="147" y="33" on="0"/>
        <pt x="153" y="33" on="1"/>
        <pt x="225" y="33" on="1"/>
        <pt x="236" y="33" on="0"/>
        <pt x="236" y="0" on="0"/>
        <pt x="223" y="0" on="1"/>
        <pt x="94" y="1" on="1"/>
        <pt x="-17" y="-2" on="1"/>
        <pt x="-26" y="-2" on="0"/>
        <pt x="-26" y="32" on="0"/>
        <pt x="-17" y="32" on="1"/>
        <pt x="33" y="32" on="1"/>
        <pt x="55" y="32" on="0"/>
        <pt x="66" y="54" on="1"/>
        <pt x="108" y="145" on="0"/>
        <pt x="237" y="505" on="0"/>
        <pt x="284" y="622" on="0"/>
        <pt x="284" y="635" on="0"/>
        <pt x="276" y="651" on="0"/>
        <pt x="276" y="653" on="1"/>
        <pt x="276" y="661" on="0"/>
        <pt x="305" y="661" on="0"/>
        <pt x="330" y="675" on="0"/>
        <pt x="334" y="684" on="1"/>
        <pt x="345" y="706" on="0"/>
        <pt x="354" y="706" on="1"/>
        <pt x="358" y="706" on="0"/>
        <pt x="368" y="676" on="1"/>
        <pt x="569" y="133" on="1"/>
        <pt x="607" y="33" on="0"/>
        <pt x="622" y="33" on="1"/>
        <pt x="658" y="33" on="1"/>
        <pt x="668" y="33" on="0"/>
        <pt x="668" y="0" on="0"/>
        <pt x="660" y="0" on="1"/>
      </contour>
      <contour>
        <pt x="309" y="569" on="1"/>
        <pt x="278" y="489" on="0"/>
        <pt x="231" y="349" on="1"/>
        <pt x="385" y="349" on="1"/>
        <pt x="318" y="552" on="0"/>
        <pt x="313" y="569" on="1"/>
      </contour>
      <contour>
        <pt x="187" y="768" on="1"/>
        <pt x="185" y="760" on="0"/>
        <pt x="170" y="760" on="0"/>
        <pt x="160" y="770" on="0"/>
        <pt x="160" y="779" on="1"/>
        <pt x="163" y="846" on="0"/>
        <pt x="227" y="908" on="0"/>
        <pt x="264" y="908" on="1"/>
        <pt x="286" y="908" on="0"/>
        <pt x="355" y="895" on="0"/>
        <pt x="393" y="895" on="0"/>
        <pt x="417" y="898" on="0"/>
        <pt x="431" y="904" on="1"/>
        <pt x="459" y="918" on="0"/>
        <pt x="467" y="965" on="1"/>
        <pt x="468" y="973" on="0"/>
        <pt x="478" y="973" on="1"/>
        <pt x="493" y="973" on="0"/>
        <pt x="493" y="957" on="1"/>
        <pt x="493" y="888" on="0"/>
        <pt x="429" y="824" on="0"/>
        <pt x="389" y="824" on="1"/>
        <pt x="369" y="824" on="0"/>
        <pt x="300" y="837" on="0"/>
        <pt x="243" y="837" on="0"/>
        <pt x="195" y="810" on="0"/>
      </contour>
    </TTGlyph>
    <TTGlyph name="B" xMin="51" yMin="-2" xMax="611" yMax="673">
      <contour>
        <pt x="59" y="673" on="1"/>
        <pt x="190" y="671" on="1"/>
        <pt x="305" y="671" on="1"/>
        <pt x="433" y="671" on="0"/>
        <pt x="561" y="572" on="0"/>
        <pt x="561" y="500" on="1"/>
        <pt x="561" y="447" on="0"/>
        <pt x="479" y="364" on="0"/>
        <pt x="417" y="352" on="1"/>
        <pt x="417" y="348" on="1"/>
        <pt x="507" y="332" on="0"/>
        <pt x="611" y="236" on="0"/>
        <pt x="611" y="175" on="1"/>
        <pt x="611" y="102" on="0"/>
        <pt x="457" y="0" on="0"/>
        <pt x="326" y="0" on="1"/>
        <pt x="229" y="0" on="1"/>
        <pt x="59" y="-2" on="1"/>
        <pt x="51" y="-2" on="0"/>
        <pt x="51" y="32" on="0"/>
        <pt x="59" y="32" on="1"/>
        <pt x="102" y="32" on="1"/>
        <pt x="127" y="32" on="0"/>
        <pt x="143" y="51" on="0"/>
        <pt x="143" y="78" on="1"/>
        <pt x="143" y="551" on="1"/>
        <pt x="143" y="639" on="0"/>
        <pt x="122" y="639" on="1"/>
        <pt x="59" y="639" on="1"/>
        <pt x="51" y="639" on="0"/>
        <pt x="51" y="673" on="0"/>
      </contour>
      <contour>
        <pt x="246" y="128" on="1"/>
        <pt x="246" y="40" on="0"/>
        <pt x="268" y="40" on="1"/>
        <pt x="319" y="40" on="1"/>
        <pt x="402" y="40" on="0"/>
        <pt x="490" y="114" on="0"/>
        <pt x="490" y="175" on="1"/>
        <pt x="490" y="241" on="0"/>
        <pt x="444" y="280" on="1"/>
        <pt x="392" y="325" on="0"/>
        <pt x="246" y="331" on="1"/>
      </contour>
      <contour>
        <pt x="246" y="585" on="1"/>
        <pt x="246" y="371" on="1"/>
        <pt x="270" y="367" on="0"/>
        <pt x="299" y="367" on="1"/>
        <pt x="372" y="367" on="0"/>
        <pt x="453" y="440" on="0"/>
        <pt x="453" y="550" on="0"/>
        <pt x="365" y="631" on="0"/>
        <pt x="275" y="631" on="1"/>
        <pt x="246" y="631" on="0"/>
      </contour>
    </TTGlyph>
    <TTGlyph name="C" xMin="46" yMin="-13" xMax="678" yMax="684">
      <contour>
        <pt x="644" y="139" on="1"/>
        <pt x="646" y="150" on="0"/>
        <pt x="677" y="150" on="0"/>
        <pt x="677" y="141" on="1"/>
        <pt x="669" y="2" on="1"/>
        <pt x="669" y="-6" on="0"/>
        <pt x="638" y="-6" on="0"/>
        <pt x="638" y="2" on="1"/>
        <pt x="638" y="26" on="1"/>
        <pt x="540" y="-13" on="0"/>
        <pt x="446" y="-13" on="1"/>
        <pt x="274" y="-13" on="0"/>
        <pt x="46" y="160" on="0"/>
        <pt x="46" y="313" on="1"/>
        <pt x="46" y="428" on="0"/>
        <pt x="166" y="601" on="0"/>
        <pt x="350" y="684" on="0"/>
        <pt x="543" y="684" on="0"/>
        <pt x="619" y="645" on="1"/>
        <pt x="619" y="668" on="1"/>
        <pt x="619" y="677" on="0"/>
        <pt x="648" y="677" on="0"/>
        <pt x="648" y="668" on="1"/>
        <pt x="648" y="587" on="0"/>
        <pt x="658" y="520" on="1"/>
        <pt x="660" y="510" on="0"/>
        <pt x="626" y="510" on="0"/>
        <pt x="625" y="520" on="1"/>
        <pt x="617" y="567" on="1"/>
        <pt x="539" y="639" on="0"/>
        <pt x="322" y="639" on="0"/>
        <pt x="170" y="480" on="0"/>
        <pt x="170" y="189" on="0"/>
        <pt x="331" y="32" on="0"/>
        <pt x="452" y="32" on="1"/>
        <pt x="550" y="32" on="0"/>
        <pt x="638" y="92" on="1"/>
      </contour>
    </TTGlyph>
    <TTGlyph name="Ccedilla" xMin="46" yMin="-172" xMax="678" yMax="684">
      <contour>
        <pt x="644" y="139" on="1"/>
        <pt x="646" y="150" on="0"/>
        <pt x="677" y="150" on="0"/>
        <pt x="677" y="141" on="1"/>
        <pt x="669" y="2" on="1"/>
        <pt x="669" y="-6" on="0"/>
        <pt x="638" y="-6" on="0"/>
        <pt x="638" y="2" on="1"/>
        <pt x="638" y="26" on="1"/>
        <pt x="540" y="-13" on="0"/>
        <pt x="446" y="-13" on="1"/>
        <pt x="410" y="-13" on="0"/>
        <pt x="368" y="-8" on="1"/>
        <pt x="353" y="-50" on="1"/>
        <pt x="355" y="-50" on="0"/>
        <pt x="357" y="-50" on="1"/>
        <pt x="389" y="-50" on="0"/>
        <pt x="443" y="-79" on="0"/>
        <pt x="443" y="-140" on="0"/>
        <pt x="397" y="-172" on="0"/>
        <pt x="340" y="-172" on="0"/>
        <pt x="283" y="-144" on="0"/>
        <pt x="283" y="-101" on="0"/>
        <pt x="304" y="-101" on="1"/>
        <pt x="320" y="-101" on="0"/>
        <pt x="326" y="-115" on="1"/>
        <pt x="322" y="-120" on="0"/>
        <pt x="322" y="-136" on="0"/>
        <pt x="346" y="-150" on="0"/>
        <pt x="377" y="-150" on="0"/>
        <pt x="400" y="-131" on="0"/>
        <pt x="400" y="-114" on="1"/>
        <pt x="400" y="-71" on="0"/>
        <pt x="340" y="-71" on="1"/>
        <pt x="336" y="-71" on="0"/>
        <pt x="320" y="-72" on="0"/>
        <pt x="316" y="-72" on="1"/>
        <pt x="341" y="-4" on="1"/>
        <pt x="208" y="20" on="0"/>
        <pt x="46" y="185" on="0"/>
        <pt x="46" y="428" on="0"/>
        <pt x="166" y="601" on="0"/>
        <pt x="350" y="684" on="0"/>
        <pt x="543" y="684" on="0"/>
        <pt x="619" y="645" on="1"/>
        <pt x="619" y="668" on="1"/>
        <pt x="619" y="677" on="0"/>
        <pt x="648" y="677" on="0"/>
        <pt x="648" y="668" on="1"/>
        <pt x="648" y="587" on="0"/>
        <pt x="658" y="520" on="1"/>
        <pt x="660" y="510" on="0"/>
        <pt x="626" y="510" on="0"/>
        <pt x="625" y="520" on="1"/>
        <pt x="617" y="567" on="1"/>
        <pt x="539" y="639" on="0"/>
        <pt x="322" y="639" on="0"/>
        <pt x="170" y="480" on="0"/>
        <pt x="170" y="189" on="0"/>
        <pt x="331" y="32" on="0"/>
        <pt x="452" y="32" on="1"/>
        <pt x="550" y="32" on="0"/>
        <pt x="638" y="92" on="1"/>
      </contour>
    </TTGlyph>
    <TTGlyph name="D" xMin="51" yMin="-2" xMax="735" yMax="673">
      <contour>
        <pt x="60" y="673" on="1"/>
        <pt x="192" y="671" on="1"/>
        <pt x="328" y="671" on="1"/>
        <pt x="514" y="671" on="0"/>
        <pt x="735" y="486" on="0"/>
        <pt x="735" y="182" on="0"/>
        <pt x="515" y="0" on="0"/>
        <pt x="347" y="0" on="1"/>
        <pt x="230" y="0" on="1"/>
        <pt x="60" y="-2" on="1"/>
        <pt x="52" y="-2" on="0"/>
        <pt x="52" y="32" on="0"/>
        <pt x="60" y="32" on="1"/>
        <pt x="103" y="32" on="1"/>
        <pt x="128" y="32" on="0"/>
        <pt x="144" y="51" on="0"/>
        <pt x="144" y="78" on="1"/>
        <pt x="144" y="554" on="1"/>
        <pt x="144" y="639" on="0"/>
        <pt x="123" y="639" on="1"/>
        <pt x="60" y="639" on="1"/>
        <pt x="51" y="639" on="0"/>
        <pt x="51" y="673" on="0"/>
      </contour>
      <contour>
        <pt x="282" y="631" on="1"/>
        <pt x="247" y="631" on="0"/>
        <pt x="247" y="590" on="1"/>
        <pt x="247" y="128" on="1"/>
        <pt x="247" y="40" on="0"/>
        <pt x="268" y="40" on="1"/>
        <pt x="350" y="41" on="1"/>
        <pt x="474" y="43" on="0"/>
        <pt x="621" y="188" on="0"/>
        <pt x="621" y="451" on="0"/>
        <pt x="459" y="620" on="0"/>
        <pt x="285" y="631" on="1"/>
        <pt x="283" y="631" on="0"/>
      </contour>
    </TTGlyph>
    <TTGlyph name="E" xMin="51" yMin="-29" xMax="571" yMax="701">
      <contour>
        <pt x="64" y="673" on="1"/>
        <pt x="190" y="671" on="1"/>
        <pt x="480" y="671" on="1"/>
        <pt x="480" y="692" on="1"/>
        <pt x="480" y="701" on="0"/>
        <pt x="509" y="701" on="0"/>
        <pt x="509" y="692" on="1"/>
        <pt x="509" y="592" on="0"/>
        <pt x="519" y="540" on="1"/>
        <pt x="521" y="532" on="0"/>
        <pt x="489" y="532" on="0"/>
        <pt x="487" y="540" on="1"/>
        <pt x="471" y="603" on="0"/>
        <pt x="449" y="613" on="1"/>
        <pt x="396" y="633" on="0"/>
        <pt x="279" y="634" on="1"/>
        <pt x="259" y="633" on="0"/>
        <pt x="246" y="613" on="0"/>
        <pt x="246" y="588" on="1"/>
        <pt x="246" y="352" on="1"/>
        <pt x="308" y="353" on="0"/>
        <pt x="426" y="363" on="0"/>
        <pt x="431" y="366" on="1"/>
        <pt x="441" y="425" on="1"/>
        <pt x="442" y="432" on="0"/>
        <pt x="453" y="432" on="1"/>
        <pt x="474" y="432" on="0"/>
        <pt x="472" y="423" on="1"/>
        <pt x="467" y="384" on="0"/>
        <pt x="467" y="286" on="0"/>
        <pt x="472" y="247" on="1"/>
        <pt x="474" y="239" on="0"/>
        <pt x="441" y="239" on="0"/>
        <pt x="441" y="245" on="1"/>
        <pt x="430" y="305" on="1"/>
        <pt x="424" y="308" on="0"/>
        <pt x="309" y="319" on="0"/>
        <pt x="246" y="320" on="1"/>
        <pt x="246" y="128" on="1"/>
        <pt x="246" y="40" on="0"/>
        <pt x="267" y="40" on="1"/>
        <pt x="318" y="40" on="1"/>
        <pt x="473" y="42" on="0"/>
        <pt x="530" y="82" on="1"/>
        <pt x="537" y="137" on="1"/>
        <pt x="539" y="145" on="0"/>
        <pt x="570" y="145" on="0"/>
        <pt x="570" y="139" on="1"/>
        <pt x="561" y="-22" on="1"/>
        <pt x="561" y="-29" on="0"/>
        <pt x="530" y="-29" on="0"/>
        <pt x="530" y="-22" on="1"/>
        <pt x="530" y="0" on="1"/>
        <pt x="283" y="0" on="1"/>
        <pt x="59" y="-2" on="1"/>
        <pt x="51" y="-2" on="0"/>
        <pt x="51" y="32" on="0"/>
        <pt x="59" y="32" on="1"/>
        <pt x="102" y="32" on="1"/>
        <pt x="127" y="32" on="0"/>
        <pt x="143" y="51" on="0"/>
        <pt x="143" y="78" on="1"/>
        <pt x="143" y="552" on="1"/>
        <pt x="143" y="640" on="0"/>
        <pt x="122" y="640" on="1"/>
        <pt x="64" y="640" on="1"/>
        <pt x="56" y="640" on="0"/>
        <pt x="56" y="673" on="0"/>
      </contour>
    </TTGlyph>
    <TTGlyph name="Eacute" xMin="51" yMin="-29" xMax="571" yMax="939">
      <contour>
        <pt x="289" y="736" on="1"/>
        <pt x="276" y="736" on="0"/>
        <pt x="276" y="745" on="1"/>
        <pt x="276" y="748" on="0"/>
        <pt x="318" y="795" on="0"/>
        <pt x="379" y="879" on="0"/>
        <pt x="390" y="898" on="1"/>
        <pt x="415" y="939" on="0"/>
        <pt x="454" y="939" on="1"/>
        <pt x="469" y="939" on="0"/>
        <pt x="489" y="921" on="0"/>
        <pt x="489" y="907" on="1"/>
        <pt x="489" y="881" on="0"/>
        <pt x="421" y="823" on="0"/>
        <pt x="299" y="739" on="1"/>
        <pt x="294" y="736" on="0"/>
      </contour>
      <contour>
        <pt x="64" y="673" on="1"/>
        <pt x="190" y="671" on="1"/>
        <pt x="480" y="671" on="1"/>
        <pt x="480" y="692" on="1"/>
        <pt x="480" y="701" on="0"/>
        <pt x="509" y="701" on="0"/>
        <pt x="509" y="692" on="1"/>
        <pt x="509" y="592" on="0"/>
        <pt x="519" y="540" on="1"/>
        <pt x="521" y="532" on="0"/>
        <pt x="489" y="532" on="0"/>
        <pt x="487" y="540" on="1"/>
        <pt x="471" y="603" on="0"/>
        <pt x="449" y="613" on="1"/>
        <pt x="396" y="633" on="0"/>
        <pt x="279" y="634" on="1"/>
        <pt x="259" y="633" on="0"/>
        <pt x="246" y="613" on="0"/>
        <pt x="246" y="588" on="1"/>
        <pt x="246" y="352" on="1"/>
        <pt x="308" y="353" on="0"/>
        <pt x="426" y="363" on="0"/>
        <pt x="431" y="366" on="1"/>
        <pt x="441" y="425" on="1"/>
        <pt x="442" y="432" on="0"/>
        <pt x="453" y="432" on="1"/>
        <pt x="474" y="432" on="0"/>
        <pt x="472" y="423" on="1"/>
        <pt x="467" y="384" on="0"/>
        <pt x="467" y="286" on="0"/>
        <pt x="472" y="247" on="1"/>
        <pt x="474" y="239" on="0"/>
        <pt x="441" y="239" on="0"/>
        <pt x="441" y="245" on="1"/>
        <pt x="430" y="305" on="1"/>
        <pt x="424" y="308" on="0"/>
        <pt x="309" y="319" on="0"/>
        <pt x="246" y="320" on="1"/>
        <pt x="246" y="128" on="1"/>
        <pt x="246" y="40" on="0"/>
        <pt x="267" y="40" on="1"/>
        <pt x="318" y="40" on="1"/>
        <pt x="473" y="42" on="0"/>
        <pt x="530" y="82" on="1"/>
        <pt x="537" y="137" on="1"/>
        <pt x="539" y="145" on="0"/>
        <pt x="570" y="145" on="0"/>
        <pt x="570" y="139" on="1"/>
        <pt x="561" y="-22" on="1"/>
        <pt x="561" y="-29" on="0"/>
        <pt x="530" y="-29" on="0"/>
        <pt x="530" y="-22" on="1"/>
        <pt x="530" y="0" on="1"/>
        <pt x="283" y="0" on="1"/>
        <pt x="59" y="-2" on="1"/>
        <pt x="51" y="-2" on="0"/>
        <pt x="51" y="32" on="0"/>
        <pt x="59" y="32" on="1"/>
        <pt x="102" y="32" on="1"/>
        <pt x="127" y="32" on="0"/>
        <pt x="143" y="51" on="0"/>
        <pt x="143" y="78" on="1"/>
        <pt x="143" y="552" on="1"/>
        <pt x="143" y="640" on="0"/>
        <pt x="122" y="640" on="1"/>
        <pt x="64" y="640" on="1"/>
        <pt x="56" y="640" on="0"/>
        <pt x="56" y="673" on="0"/>
      </contour>
    </TTGlyph>
    <TTGlyph name="Ecircumflex" xMin="51" yMin="-29" xMax="571" yMax="925">
      <contour>
        <pt x="64" y="673" on="1"/>
        <pt x="190" y="671" on="1"/>
        <pt x="480" y="671" on="1"/>
        <pt x="480" y="692" on="1"/>
        <pt x="480" y="701" on="0"/>
        <pt x="509" y="701" on="0"/>
        <pt x="509" y="692" on="1"/>
        <pt x="509" y="592" on="0"/>
        <pt x="519" y="540" on="1"/>
        <pt x="521" y="532" on="0"/>
        <pt x="489" y="532" on="0"/>
        <pt x="487" y="540" on="1"/>
        <pt x="471" y="603" on="0"/>
        <pt x="449" y="613" on="1"/>
        <pt x="396" y="633" on="0"/>
        <pt x="279" y="634" on="1"/>
        <pt x="259" y="633" on="0"/>
        <pt x="246" y="613" on="0"/>
        <pt x="246" y="588" on="1"/>
        <pt x="246" y="352" on="1"/>
        <pt x="308" y="353" on="0"/>
        <pt x="426" y="363" on="0"/>
        <pt x="431" y="366" on="1"/>
        <pt x="441" y="425" on="1"/>
        <pt x="442" y="432" on="0"/>
        <pt x="453" y="432" on="1"/>
        <pt x="474" y="432" on="0"/>
        <pt x="472" y="423" on="1"/>
        <pt x="467" y="384" on="0"/>
        <pt x="467" y="286" on="0"/>
        <pt x="472" y="247" on="1"/>
        <pt x="474" y="239" on="0"/>
        <pt x="441" y="239" on="0"/>
        <pt x="441" y="245" on="1"/>
        <pt x="430" y="305" on="1"/>
        <pt x="424" y="308" on="0"/>
        <pt x="309" y="319" on="0"/>
        <pt x="246" y="320" on="1"/>
        <pt x="246" y="128" on="1"/>
        <pt x="246" y="40" on="0"/>
        <pt x="267" y="40" on="1"/>
        <pt x="318" y="40" on="1"/>
        <pt x="473" y="42" on="0"/>
        <pt x="530" y="82" on="1"/>
        <pt x="537" y="137" on="1"/>
        <pt x="539" y="145" on="0"/>
        <pt x="570" y="145" on="0"/>
        <pt x="570" y="139" on="1"/>
        <pt x="561" y="-22" on="1"/>
        <pt x="561" y="-29" on="0"/>
        <pt x="530" y="-29" on="0"/>
        <pt x="530" y="-22" on="1"/>
        <pt x="530" y="0" on="1"/>
        <pt x="283" y="0" on="1"/>
        <pt x="59" y="-2" on="1"/>
        <pt x="51" y="-2" on="0"/>
        <pt x="51" y="32" on="0"/>
        <pt x="59" y="32" on="1"/>
        <pt x="102" y="32" on="1"/>
        <pt x="127" y="32" on="0"/>
        <pt x="143" y="51" on="0"/>
        <pt x="143" y="78" on="1"/>
        <pt x="143" y="552" on="1"/>
        <pt x="143" y="640" on="0"/>
        <pt x="122" y="640" on="1"/>
        <pt x="64" y="640" on="1"/>
        <pt x="56" y="640" on="0"/>
        <pt x="56" y="673" on="0"/>
      </contour>
      <contour>
        <pt x="197" y="764" on="1"/>
        <pt x="188" y="756" on="0"/>
        <pt x="170" y="756" on="0"/>
        <pt x="167" y="764" on="1"/>
        <pt x="281" y="911" on="1"/>
        <pt x="292" y="925" on="0"/>
        <pt x="322" y="925" on="0"/>
        <pt x="336" y="911" on="1"/>
        <pt x="446" y="764" on="1"/>
        <pt x="441" y="757" on="0"/>
        <pt x="423" y="757" on="0"/>
        <pt x="415" y="764" on="1"/>
        <pt x="308" y="854" on="1"/>
      </contour>
    </TTGlyph>
    <TTGlyph name="Edieresis" xMin="51" yMin="-29" xMax="571" yMax="891">
      <contour>
        <pt x="64" y="673" on="1"/>
        <pt x="190" y="671" on="1"/>
        <pt x="480" y="671" on="1"/>
        <pt x="480" y="692" on="1"/>
        <pt x="480" y="701" on="0"/>
        <pt x="509" y="701" on="0"/>
        <pt x="509" y="692" on="1"/>
        <pt x="509" y="592" on="0"/>
        <pt x="519" y="540" on="1"/>
        <pt x="521" y="532" on="0"/>
        <pt x="489" y="532" on="0"/>
        <pt x="487" y="540" on="1"/>
        <pt x="471" y="603" on="0"/>
        <pt x="449" y="613" on="1"/>
        <pt x="396" y="633" on="0"/>
        <pt x="279" y="634" on="1"/>
        <pt x="259" y="633" on="0"/>
        <pt x="246" y="613" on="0"/>
        <pt x="246" y="588" on="1"/>
        <pt x="246" y="352" on="1"/>
        <pt x="308" y="353" on="0"/>
        <pt x="426" y="363" on="0"/>
        <pt x="431" y="366" on="1"/>
        <pt x="441" y="425" on="1"/>
        <pt x="442" y="432" on="0"/>
        <pt x="453" y="432" on="1"/>
        <pt x="474" y="432" on="0"/>
        <pt x="472" y="423" on="1"/>
        <pt x="467" y="384" on="0"/>
        <pt x="467" y="286" on="0"/>
        <pt x="472" y="247" on="1"/>
        <pt x="474" y="239" on="0"/>
        <pt x="441" y="239" on="0"/>
        <pt x="441" y="245" on="1"/>
        <pt x="430" y="305" on="1"/>
        <pt x="424" y="308" on="0"/>
        <pt x="309" y="319" on="0"/>
        <pt x="246" y="320" on="1"/>
        <pt x="246" y="128" on="1"/>
        <pt x="246" y="40" on="0"/>
        <pt x="267" y="40" on="1"/>
        <pt x="318" y="40" on="1"/>
        <pt x="473" y="42" on="0"/>
        <pt x="530" y="82" on="1"/>
        <pt x="537" y="137" on="1"/>
        <pt x="539" y="145" on="0"/>
        <pt x="570" y="145" on="0"/>
        <pt x="570" y="139" on="1"/>
        <pt x="561" y="-22" on="1"/>
        <pt x="561" y="-29" on="0"/>
        <pt x="530" y="-29" on="0"/>
        <pt x="530" y="-22" on="1"/>
        <pt x="530" y="0" on="1"/>
        <pt x="283" y="0" on="1"/>
        <pt x="59" y="-2" on="1"/>
        <pt x="51" y="-2" on="0"/>
        <pt x="51" y="32" on="0"/>
        <pt x="59" y="32" on="1"/>
        <pt x="102" y="32" on="1"/>
        <pt x="127" y="32" on="0"/>
        <pt x="143" y="51" on="0"/>
        <pt x="143" y="78" on="1"/>
        <pt x="143" y="552" on="1"/>
        <pt x="143" y="640" on="0"/>
        <pt x="122" y="640" on="1"/>
        <pt x="64" y="640" on="1"/>
        <pt x="56" y="640" on="0"/>
        <pt x="56" y="673" on="0"/>
      </contour>
      <contour>
        <pt x="245" y="789" on="0"/>
        <pt x="201" y="789" on="0"/>
        <pt x="172" y="820" on="0"/>
        <pt x="172" y="863" on="0"/>
        <pt x="202" y="891" on="0"/>
        <pt x="243" y="891" on="0"/>
        <pt x="274" y="862" on="0"/>
        <pt x="274" y="820" on="0"/>
      </contour>
      <contour>
        <pt x="412" y="789" on="0"/>
        <pt x="368" y="789" on="0"/>
        <pt x="339" y="820" on="0"/>
        <pt x="339" y="862" on="0"/>
        <pt x="370" y="891" on="0"/>
        <pt x="410" y="891" on="0"/>
        <pt x="441" y="862" on="0"/>
        <pt x="441" y="820" on="0"/>
      </contour>
    </TTGlyph>
    <TTGlyph name="Egrave" xMin="51" yMin="-29" xMax="571" yMax="939">
      <contour>
        <pt x="64" y="673" on="1"/>
        <pt x="190" y="671" on="1"/>
        <pt x="480" y="671" on="1"/>
        <pt x="480" y="692" on="1"/>
        <pt x="480" y="701" on="0"/>
        <pt x="509" y="701" on="0"/>
        <pt x="509" y="692" on="1"/>
        <pt x="509" y="592" on="0"/>
        <pt x="519" y="540" on="1"/>
        <pt x="521" y="532" on="0"/>
        <pt x="489" y="532" on="0"/>
        <pt x="487" y="540" on="1"/>
        <pt x="471" y="603" on="0"/>
        <pt x="449" y="613" on="1"/>
        <pt x="396" y="633" on="0"/>
        <pt x="279" y="634" on="1"/>
        <pt x="259" y="633" on="0"/>
        <pt x="246" y="613" on="0"/>
        <pt x="246" y="588" on="1"/>
        <pt x="246" y="352" on="1"/>
        <pt x="308" y="353" on="0"/>
        <pt x="426" y="363" on="0"/>
        <pt x="431" y="366" on="1"/>
        <pt x="441" y="425" on="1"/>
        <pt x="442" y="432" on="0"/>
        <pt x="453" y="432" on="1"/>
        <pt x="474" y="432" on="0"/>
        <pt x="472" y="423" on="1"/>
        <pt x="467" y="384" on="0"/>
        <pt x="467" y="286" on="0"/>
        <pt x="472" y="247" on="1"/>
        <pt x="474" y="239" on="0"/>
        <pt x="441" y="239" on="0"/>
        <pt x="441" y="245" on="1"/>
        <pt x="430" y="305" on="1"/>
        <pt x="424" y="308" on="0"/>
        <pt x="309" y="319" on="0"/>
        <pt x="246" y="320" on="1"/>
        <pt x="246" y="128" on="1"/>
        <pt x="246" y="40" on="0"/>
        <pt x="267" y="40" on="1"/>
        <pt x="318" y="40" on="1"/>
        <pt x="473" y="42" on="0"/>
        <pt x="530" y="82" on="1"/>
        <pt x="537" y="137" on="1"/>
        <pt x="539" y="145" on="0"/>
        <pt x="570" y="145" on="0"/>
        <pt x="570" y="139" on="1"/>
        <pt x="561" y="-22" on="1"/>
        <pt x="561" y="-29" on="0"/>
        <pt x="530" y="-29" on="0"/>
        <pt x="530" y="-22" on="1"/>
        <pt x="530" y="0" on="1"/>
        <pt x="283" y="0" on="1"/>
        <pt x="59" y="-2" on="1"/>
        <pt x="51" y="-2" on="0"/>
        <pt x="51" y="32" on="0"/>
        <pt x="59" y="32" on="1"/>
        <pt x="102" y="32" on="1"/>
        <pt x="127" y="32" on="0"/>
        <pt x="143" y="51" on="0"/>
        <pt x="143" y="78" on="1"/>
        <pt x="143" y="552" on="1"/>
        <pt x="143" y="640" on="0"/>
        <pt x="122" y="640" on="1"/>
        <pt x="64" y="640" on="1"/>
        <pt x="56" y="640" on="0"/>
        <pt x="56" y="673" on="0"/>
      </contour>
      <contour>
        <pt x="216" y="907" on="1"/>
        <pt x="216" y="921" on="0"/>
        <pt x="236" y="939" on="0"/>
        <pt x="279" y="939" on="0"/>
        <pt x="308" y="910" on="0"/>
        <pt x="378" y="804" on="0"/>
        <pt x="429" y="748" on="0"/>
        <pt x="429" y="745" on="1"/>
        <pt x="429" y="736" on="0"/>
        <pt x="410" y="736" on="0"/>
        <pt x="406" y="739" on="1"/>
        <pt x="284" y="823" on="0"/>
        <pt x="216" y="881" on="0"/>
      </contour>
    </TTGlyph>
    <TTGlyph name="Eth" xMin="50" yMin="-2" xMax="734" yMax="673">
      <contour>
        <pt x="59" y="673" on="1"/>
        <pt x="191" y="671" on="1"/>
        <pt x="327" y="671" on="1"/>
        <pt x="513" y="671" on="0"/>
        <pt x="734" y="486" on="0"/>
        <pt x="734" y="182" on="0"/>
        <pt x="514" y="0" on="0"/>
        <pt x="346" y="0" on="1"/>
        <pt x="229" y="0" on="1"/>
        <pt x="59" y="-2" on="1"/>
        <pt x="51" y="-2" on="0"/>
        <pt x="51" y="32" on="0"/>
        <pt x="59" y="32" on="1"/>
        <pt x="102" y="32" on="1"/>
        <pt x="127" y="32" on="0"/>
        <pt x="143" y="51" on="0"/>
        <pt x="143" y="78" on="1"/>
        <pt x="143" y="335" on="1"/>
        <pt x="105" y="335" on="1"/>
        <pt x="88" y="335" on="0"/>
        <pt x="70" y="357" on="0"/>
        <pt x="69" y="368" on="1"/>
        <pt x="68" y="379" on="1"/>
        <pt x="143" y="379" on="1"/>
        <pt x="143" y="554" on="1"/>
        <pt x="143" y="639" on="0"/>
        <pt x="122" y="639" on="1"/>
        <pt x="59" y="639" on="1"/>
        <pt x="50" y="639" on="0"/>
        <pt x="50" y="673" on="0"/>
      </contour>
      <contour>
        <pt x="281" y="631" on="1"/>
        <pt x="246" y="631" on="0"/>
        <pt x="246" y="590" on="1"/>
        <pt x="246" y="380" on="1"/>
        <pt x="375" y="383" on="1"/>
        <pt x="422" y="383" on="0"/>
        <pt x="422" y="341" on="1"/>
        <pt x="422" y="338" on="0"/>
        <pt x="422" y="334" on="1"/>
        <pt x="246" y="334" on="1"/>
        <pt x="246" y="128" on="1"/>
        <pt x="246" y="40" on="0"/>
        <pt x="267" y="40" on="1"/>
        <pt x="349" y="41" on="1"/>
        <pt x="473" y="43" on="0"/>
        <pt x="620" y="188" on="0"/>
        <pt x="620" y="451" on="0"/>
        <pt x="458" y="620" on="0"/>
        <pt x="284" y="631" on="1"/>
        <pt x="282" y="631" on="0"/>
      </contour>
    </TTGlyph>
    <TTGlyph name="Euro" xMin="42" yMin="-13" xMax="422" yMax="522">
      <contour>
        <pt x="412" y="513" on="1"/>
        <pt x="410" y="444" on="1"/>
        <pt x="410" y="420" on="0"/>
        <pt x="414" y="394" on="1"/>
        <pt x="416" y="384" on="0"/>
        <pt x="384" y="384" on="0"/>
        <pt x="383" y="394" on="1"/>
        <pt x="380" y="423" on="1"/>
        <pt x="378" y="429" on="0"/>
        <pt x="371" y="449" on="0"/>
        <pt x="333" y="481" on="0"/>
        <pt x="307" y="481" on="1"/>
        <pt x="256" y="481" on="0"/>
        <pt x="191" y="391" on="0"/>
        <pt x="178" y="323" on="1"/>
        <pt x="282" y="326" on="1"/>
        <pt x="309" y="326" on="0"/>
        <pt x="329" y="309" on="0"/>
        <pt x="329" y="287" on="0"/>
        <pt x="329" y="283" on="1"/>
        <pt x="172" y="283" on="1"/>
        <pt x="171" y="272" on="0"/>
        <pt x="171" y="228" on="0"/>
        <pt x="172" y="217" on="1"/>
        <pt x="286" y="220" on="1"/>
        <pt x="313" y="220" on="0"/>
        <pt x="330" y="204" on="0"/>
        <pt x="330" y="181" on="0"/>
        <pt x="330" y="177" on="1"/>
        <pt x="178" y="177" on="1"/>
        <pt x="208" y="46" on="0"/>
        <pt x="323" y="46" on="1"/>
        <pt x="373" y="46" on="0"/>
        <pt x="412" y="89" on="1"/>
        <pt x="422" y="79" on="0"/>
        <pt x="422" y="65" on="1"/>
        <pt x="422" y="37" on="0"/>
        <pt x="349" y="-13" on="0"/>
        <pt x="290" y="-13" on="1"/>
        <pt x="213" y="-13" on="0"/>
        <pt x="99" y="91" on="0"/>
        <pt x="83" y="177" on="1"/>
        <pt x="79" y="177" on="1"/>
        <pt x="62" y="177" on="0"/>
        <pt x="44" y="196" on="0"/>
        <pt x="43" y="215" on="1"/>
        <pt x="78" y="215" on="1"/>
        <pt x="78" y="235" on="1"/>
        <pt x="78" y="260" on="0"/>
        <pt x="81" y="283" on="1"/>
        <pt x="79" y="283" on="1"/>
        <pt x="62" y="283" on="0"/>
        <pt x="44" y="302" on="0"/>
        <pt x="42" y="321" on="1"/>
        <pt x="88" y="321" on="1"/>
        <pt x="114" y="417" on="0"/>
        <pt x="257" y="522" on="0"/>
        <pt x="315" y="522" on="1"/>
        <pt x="354" y="522" on="0"/>
        <pt x="383" y="499" on="1"/>
        <pt x="383" y="513" on="1"/>
        <pt x="383" y="522" on="0"/>
        <pt x="412" y="522" on="0"/>
      </contour>
    </TTGlyph>
    <TTGlyph name="F" xMin="51" yMin="-2" xMax="526" yMax="701">
      <contour>
        <pt x="525" y="538" on="1"/>
        <pt x="525" y="532" on="0"/>
        <pt x="495" y="532" on="0"/>
        <pt x="493" y="540" on="1"/>
        <pt x="477" y="603" on="0"/>
        <pt x="455" y="613" on="1"/>
        <pt x="402" y="633" on="0"/>
        <pt x="279" y="634" on="1"/>
        <pt x="260" y="632" on="0"/>
        <pt x="246" y="614" on="0"/>
        <pt x="246" y="588" on="1"/>
        <pt x="246" y="348" on="1"/>
        <pt x="309" y="349" on="0"/>
        <pt x="432" y="359" on="0"/>
        <pt x="437" y="362" on="1"/>
        <pt x="447" y="421" on="1"/>
        <pt x="448" y="428" on="0"/>
        <pt x="459" y="428" on="1"/>
        <pt x="480" y="428" on="0"/>
        <pt x="478" y="419" on="1"/>
        <pt x="473" y="380" on="0"/>
        <pt x="473" y="282" on="0"/>
        <pt x="478" y="243" on="1"/>
        <pt x="480" y="235" on="0"/>
        <pt x="447" y="235" on="0"/>
        <pt x="447" y="241" on="1"/>
        <pt x="436" y="301" on="1"/>
        <pt x="430" y="304" on="0"/>
        <pt x="309" y="315" on="0"/>
        <pt x="246" y="316" on="1"/>
        <pt x="246" y="128" on="1"/>
        <pt x="246" y="40" on="0"/>
        <pt x="267" y="40" on="1"/>
        <pt x="325" y="40" on="1"/>
        <pt x="333" y="40" on="0"/>
        <pt x="333" y="0" on="0"/>
        <pt x="325" y="0" on="1"/>
        <pt x="199" y="1" on="1"/>
        <pt x="59" y="-2" on="1"/>
        <pt x="51" y="-2" on="0"/>
        <pt x="51" y="32" on="0"/>
        <pt x="59" y="32" on="1"/>
        <pt x="102" y="32" on="1"/>
        <pt x="127" y="32" on="0"/>
        <pt x="143" y="51" on="0"/>
        <pt x="143" y="78" on="1"/>
        <pt x="143" y="552" on="1"/>
        <pt x="143" y="640" on="0"/>
        <pt x="122" y="640" on="1"/>
        <pt x="64" y="640" on="1"/>
        <pt x="56" y="640" on="0"/>
        <pt x="56" y="673" on="0"/>
        <pt x="64" y="673" on="1"/>
        <pt x="190" y="671" on="1"/>
        <pt x="486" y="671" on="1"/>
        <pt x="486" y="692" on="1"/>
        <pt x="486" y="701" on="0"/>
        <pt x="515" y="701" on="0"/>
        <pt x="515" y="692" on="1"/>
      </contour>
    </TTGlyph>
    <TTGlyph name="G" xMin="46" yMin="-47" xMax="766" yMax="683">
      <contour>
        <pt x="618" y="286" on="1"/>
        <pt x="758" y="289" on="1"/>
        <pt x="766" y="289" on="0"/>
        <pt x="766" y="255" on="0"/>
        <pt x="758" y="255" on="1"/>
        <pt x="727" y="255" on="1"/>
        <pt x="702" y="255" on="0"/>
        <pt x="686" y="236" on="0"/>
        <pt x="686" y="139" on="0"/>
        <pt x="691" y="38" on="0"/>
        <pt x="696" y="-1" on="0"/>
        <pt x="701" y="-29" on="0"/>
        <pt x="701" y="-35" on="1"/>
        <pt x="701" y="-47" on="0"/>
        <pt x="685" y="-47" on="1"/>
        <pt x="679" y="-47" on="0"/>
        <pt x="652" y="27" on="0"/>
        <pt x="638" y="27" on="1"/>
        <pt x="546" y="-13" on="0"/>
        <pt x="445" y="-13" on="1"/>
        <pt x="272" y="-13" on="0"/>
        <pt x="46" y="159" on="0"/>
        <pt x="46" y="312" on="1"/>
        <pt x="46" y="428" on="0"/>
        <pt x="165" y="600" on="0"/>
        <pt x="349" y="683" on="0"/>
        <pt x="457" y="683" on="1"/>
        <pt x="504" y="683" on="0"/>
        <pt x="570" y="666" on="0"/>
        <pt x="619" y="647" on="1"/>
        <pt x="619" y="668" on="1"/>
        <pt x="619" y="677" on="0"/>
        <pt x="648" y="677" on="0"/>
        <pt x="648" y="668" on="1"/>
        <pt x="648" y="577" on="0"/>
        <pt x="657" y="517" on="1"/>
        <pt x="658" y="513" on="0"/>
        <pt x="647" y="507" on="0"/>
        <pt x="626" y="507" on="0"/>
        <pt x="625" y="516" on="1"/>
        <pt x="618" y="560" on="1"/>
        <pt x="531" y="639" on="0"/>
        <pt x="435" y="639" on="1"/>
        <pt x="322" y="639" on="0"/>
        <pt x="170" y="478" on="0"/>
        <pt x="170" y="191" on="0"/>
        <pt x="330" y="32" on="0"/>
        <pt x="451" y="32" on="1"/>
        <pt x="530" y="32" on="0"/>
        <pt x="571" y="74" on="1"/>
        <pt x="571" y="166" on="1"/>
        <pt x="571" y="254" on="0"/>
        <pt x="550" y="254" on="1"/>
        <pt x="444" y="254" on="1"/>
        <pt x="436" y="254" on="0"/>
        <pt x="436" y="287" on="0"/>
        <pt x="444" y="287" on="1"/>
      </contour>
    </TTGlyph>
    <TTGlyph name="H" xMin="51" yMin="-2" xMax="798" yMax="675">
      <contour>
        <pt x="650" y="672" on="1"/>
        <pt x="790" y="675" on="1"/>
        <pt x="798" y="675" on="0"/>
        <pt x="798" y="641" on="0"/>
        <pt x="790" y="641" on="1"/>
        <pt x="747" y="641" on="1"/>
        <pt x="722" y="641" on="0"/>
        <pt x="706" y="622" on="0"/>
        <pt x="706" y="595" on="1"/>
        <pt x="706" y="121" on="1"/>
        <pt x="706" y="33" on="0"/>
        <pt x="727" y="33" on="1"/>
        <pt x="785" y="33" on="1"/>
        <pt x="793" y="33" on="0"/>
        <pt x="793" y="0" on="0"/>
        <pt x="785" y="0" on="1"/>
        <pt x="659" y="1" on="1"/>
        <pt x="519" y="-2" on="1"/>
        <pt x="511" y="-2" on="0"/>
        <pt x="511" y="32" on="0"/>
        <pt x="519" y="32" on="1"/>
        <pt x="562" y="32" on="1"/>
        <pt x="587" y="32" on="0"/>
        <pt x="603" y="51" on="0"/>
        <pt x="603" y="78" on="1"/>
        <pt x="603" y="314" on="1"/>
        <pt x="246" y="314" on="1"/>
        <pt x="246" y="121" on="1"/>
        <pt x="246" y="33" on="0"/>
        <pt x="267" y="33" on="1"/>
        <pt x="325" y="33" on="1"/>
        <pt x="333" y="33" on="0"/>
        <pt x="333" y="0" on="0"/>
        <pt x="325" y="0" on="1"/>
        <pt x="199" y="1" on="1"/>
        <pt x="59" y="-2" on="1"/>
        <pt x="51" y="-2" on="0"/>
        <pt x="51" y="32" on="0"/>
        <pt x="59" y="32" on="1"/>
        <pt x="102" y="32" on="1"/>
        <pt x="127" y="32" on="0"/>
        <pt x="143" y="51" on="0"/>
        <pt x="143" y="78" on="1"/>
        <pt x="143" y="552" on="1"/>
        <pt x="143" y="640" on="0"/>
        <pt x="122" y="640" on="1"/>
        <pt x="64" y="640" on="1"/>
        <pt x="56" y="640" on="0"/>
        <pt x="56" y="673" on="0"/>
        <pt x="64" y="673" on="1"/>
        <pt x="190" y="672" on="1"/>
        <pt x="330" y="675" on="1"/>
        <pt x="338" y="675" on="0"/>
        <pt x="338" y="641" on="0"/>
        <pt x="330" y="641" on="1"/>
        <pt x="287" y="641" on="1"/>
        <pt x="262" y="641" on="0"/>
        <pt x="246" y="622" on="0"/>
        <pt x="246" y="595" on="1"/>
        <pt x="246" y="355" on="1"/>
        <pt x="603" y="355" on="1"/>
        <pt x="603" y="552" on="1"/>
        <pt x="603" y="640" on="0"/>
        <pt x="582" y="640" on="1"/>
        <pt x="524" y="640" on="1"/>
        <pt x="516" y="640" on="0"/>
        <pt x="516" y="673" on="0"/>
        <pt x="524" y="673" on="1"/>
      </contour>
    </TTGlyph>
    <TTGlyph name="I" xMin="51" yMin="-2" xMax="338" yMax="675">
      <contour>
        <pt x="190" y="672" on="1"/>
        <pt x="330" y="675" on="1"/>
        <pt x="338" y="675" on="0"/>
        <pt x="338" y="641" on="0"/>
        <pt x="330" y="641" on="1"/>
        <pt x="287" y="641" on="1"/>
        <pt x="262" y="641" on="0"/>
        <pt x="246" y="622" on="0"/>
        <pt x="246" y="595" on="1"/>
        <pt x="246" y="121" on="1"/>
        <pt x="246" y="33" on="0"/>
        <pt x="267" y="33" on="1"/>
        <pt x="325" y="33" on="1"/>
        <pt x="333" y="33" on="0"/>
        <pt x="333" y="0" on="0"/>
        <pt x="325" y="0" on="1"/>
        <pt x="199" y="1" on="1"/>
        <pt x="59" y="-2" on="1"/>
        <pt x="51" y="-2" on="0"/>
        <pt x="51" y="32" on="0"/>
        <pt x="59" y="32" on="1"/>
        <pt x="102" y="32" on="1"/>
        <pt x="127" y="32" on="0"/>
        <pt x="143" y="51" on="0"/>
        <pt x="143" y="78" on="1"/>
        <pt x="143" y="552" on="1"/>
        <pt x="143" y="640" on="0"/>
        <pt x="122" y="640" on="1"/>
        <pt x="64" y="640" on="1"/>
        <pt x="56" y="640" on="0"/>
        <pt x="56" y="673" on="0"/>
        <pt x="64" y="673" on="1"/>
      </contour>
    </TTGlyph>
    <TTGlyph name="Iacute" xMin="51" yMin="-2" xMax="342" yMax="939">
      <contour>
        <pt x="152" y="739" on="1"/>
        <pt x="148" y="736" on="0"/>
        <pt x="129" y="736" on="0"/>
        <pt x="129" y="745" on="1"/>
        <pt x="129" y="748" on="0"/>
        <pt x="171" y="795" on="0"/>
        <pt x="232" y="879" on="0"/>
        <pt x="243" y="898" on="1"/>
        <pt x="268" y="939" on="0"/>
        <pt x="307" y="939" on="1"/>
        <pt x="322" y="939" on="0"/>
        <pt x="342" y="921" on="0"/>
        <pt x="342" y="907" on="1"/>
        <pt x="342" y="881" on="0"/>
        <pt x="274" y="823" on="0"/>
      </contour>
      <contour>
        <pt x="190" y="672" on="1"/>
        <pt x="330" y="675" on="1"/>
        <pt x="338" y="675" on="0"/>
        <pt x="338" y="641" on="0"/>
        <pt x="330" y="641" on="1"/>
        <pt x="287" y="641" on="1"/>
        <pt x="262" y="641" on="0"/>
        <pt x="246" y="622" on="0"/>
        <pt x="246" y="595" on="1"/>
        <pt x="246" y="121" on="1"/>
        <pt x="246" y="33" on="0"/>
        <pt x="267" y="33" on="1"/>
        <pt x="325" y="33" on="1"/>
        <pt x="333" y="33" on="0"/>
        <pt x="333" y="0" on="0"/>
        <pt x="325" y="0" on="1"/>
        <pt x="199" y="1" on="1"/>
        <pt x="59" y="-2" on="1"/>
        <pt x="51" y="-2" on="0"/>
        <pt x="51" y="32" on="0"/>
        <pt x="59" y="32" on="1"/>
        <pt x="102" y="32" on="1"/>
        <pt x="127" y="32" on="0"/>
        <pt x="143" y="51" on="0"/>
        <pt x="143" y="78" on="1"/>
        <pt x="143" y="552" on="1"/>
        <pt x="143" y="640" on="0"/>
        <pt x="122" y="640" on="1"/>
        <pt x="64" y="640" on="1"/>
        <pt x="56" y="640" on="0"/>
        <pt x="56" y="673" on="0"/>
        <pt x="64" y="673" on="1"/>
      </contour>
    </TTGlyph>
    <TTGlyph name="Icircumflex" xMin="51" yMin="-2" xMax="338" yMax="925">
      <contour>
        <pt x="190" y="672" on="1"/>
        <pt x="330" y="675" on="1"/>
        <pt x="338" y="675" on="0"/>
        <pt x="338" y="641" on="0"/>
        <pt x="330" y="641" on="1"/>
        <pt x="287" y="641" on="1"/>
        <pt x="262" y="641" on="0"/>
        <pt x="246" y="622" on="0"/>
        <pt x="246" y="595" on="1"/>
        <pt x="246" y="121" on="1"/>
        <pt x="246" y="33" on="0"/>
        <pt x="267" y="33" on="1"/>
        <pt x="325" y="33" on="1"/>
        <pt x="333" y="33" on="0"/>
        <pt x="333" y="0" on="0"/>
        <pt x="325" y="0" on="1"/>
        <pt x="199" y="1" on="1"/>
        <pt x="59" y="-2" on="1"/>
        <pt x="51" y="-2" on="0"/>
        <pt x="51" y="32" on="0"/>
        <pt x="59" y="32" on="1"/>
        <pt x="102" y="32" on="1"/>
        <pt x="127" y="32" on="0"/>
        <pt x="143" y="51" on="0"/>
        <pt x="143" y="78" on="1"/>
        <pt x="143" y="552" on="1"/>
        <pt x="143" y="640" on="0"/>
        <pt x="122" y="640" on="1"/>
        <pt x="64" y="640" on="1"/>
        <pt x="56" y="640" on="0"/>
        <pt x="56" y="673" on="0"/>
        <pt x="64" y="673" on="1"/>
      </contour>
      <contour>
        <pt x="83" y="764" on="1"/>
        <pt x="74" y="756" on="0"/>
        <pt x="56" y="756" on="0"/>
        <pt x="53" y="764" on="1"/>
        <pt x="167" y="911" on="1"/>
        <pt x="178" y="925" on="0"/>
        <pt x="208" y="925" on="0"/>
        <pt x="222" y="911" on="1"/>
        <pt x="332" y="764" on="1"/>
        <pt x="327" y="757" on="0"/>
        <pt x="309" y="757" on="0"/>
        <pt x="301" y="764" on="1"/>
        <pt x="194" y="854" on="1"/>
      </contour>
    </TTGlyph>
    <TTGlyph name="Idieresis" xMin="51" yMin="-2" xMax="338" yMax="891">
      <contour>
        <pt x="190" y="672" on="1"/>
        <pt x="330" y="675" on="1"/>
        <pt x="338" y="675" on="0"/>
        <pt x="338" y="641" on="0"/>
        <pt x="330" y="641" on="1"/>
        <pt x="287" y="641" on="1"/>
        <pt x="262" y="641" on="0"/>
        <pt x="246" y="622" on="0"/>
        <pt x="246" y="595" on="1"/>
        <pt x="246" y="121" on="1"/>
        <pt x="246" y="33" on="0"/>
        <pt x="267" y="33" on="1"/>
        <pt x="325" y="33" on="1"/>
        <pt x="333" y="33" on="0"/>
        <pt x="333" y="0" on="0"/>
        <pt x="325" y="0" on="1"/>
        <pt x="199" y="1" on="1"/>
        <pt x="59" y="-2" on="1"/>
        <pt x="51" y="-2" on="0"/>
        <pt x="51" y="32" on="0"/>
        <pt x="59" y="32" on="1"/>
        <pt x="102" y="32" on="1"/>
        <pt x="127" y="32" on="0"/>
        <pt x="143" y="51" on="0"/>
        <pt x="143" y="78" on="1"/>
        <pt x="143" y="552" on="1"/>
        <pt x="143" y="640" on="0"/>
        <pt x="122" y="640" on="1"/>
        <pt x="64" y="640" on="1"/>
        <pt x="56" y="640" on="0"/>
        <pt x="56" y="673" on="0"/>
        <pt x="64" y="673" on="1"/>
      </contour>
      <contour>
        <pt x="131" y="789" on="0"/>
        <pt x="87" y="789" on="0"/>
        <pt x="58" y="820" on="0"/>
        <pt x="58" y="863" on="0"/>
        <pt x="88" y="891" on="0"/>
        <pt x="129" y="891" on="0"/>
        <pt x="160" y="862" on="0"/>
        <pt x="160" y="820" on="0"/>
      </contour>
      <contour>
        <pt x="298" y="789" on="0"/>
        <pt x="254" y="789" on="0"/>
        <pt x="225" y="820" on="0"/>
        <pt x="225" y="862" on="0"/>
        <pt x="256" y="891" on="0"/>
        <pt x="296" y="891" on="0"/>
        <pt x="327" y="862" on="0"/>
        <pt x="327" y="820" on="0"/>
      </contour>
    </TTGlyph>
    <TTGlyph name="Igrave" xMin="51" yMin="-2" xMax="338" yMax="939">
      <contour>
        <pt x="190" y="672" on="1"/>
        <pt x="330" y="675" on="1"/>
        <pt x="338" y="675" on="0"/>
        <pt x="338" y="641" on="0"/>
        <pt x="330" y="641" on="1"/>
        <pt x="287" y="641" on="1"/>
        <pt x="262" y="641" on="0"/>
        <pt x="246" y="622" on="0"/>
        <pt x="246" y="595" on="1"/>
        <pt x="246" y="121" on="1"/>
        <pt x="246" y="33" on="0"/>
        <pt x="267" y="33" on="1"/>
        <pt x="325" y="33" on="1"/>
        <pt x="333" y="33" on="0"/>
        <pt x="333" y="0" on="0"/>
        <pt x="325" y="0" on="1"/>
        <pt x="199" y="1" on="1"/>
        <pt x="59" y="-2" on="1"/>
        <pt x="51" y="-2" on="0"/>
        <pt x="51" y="32" on="0"/>
        <pt x="59" y="32" on="1"/>
        <pt x="102" y="32" on="1"/>
        <pt x="127" y="32" on="0"/>
        <pt x="143" y="51" on="0"/>
        <pt x="143" y="78" on="1"/>
        <pt x="143" y="552" on="1"/>
        <pt x="143" y="640" on="0"/>
        <pt x="122" y="640" on="1"/>
        <pt x="64" y="640" on="1"/>
        <pt x="56" y="640" on="0"/>
        <pt x="56" y="673" on="0"/>
        <pt x="64" y="673" on="1"/>
      </contour>
      <contour>
        <pt x="86" y="907" on="1"/>
        <pt x="86" y="921" on="0"/>
        <pt x="106" y="939" on="0"/>
        <pt x="149" y="939" on="0"/>
        <pt x="178" y="910" on="0"/>
        <pt x="248" y="804" on="0"/>
        <pt x="299" y="748" on="0"/>
        <pt x="299" y="745" on="1"/>
        <pt x="299" y="736" on="0"/>
        <pt x="280" y="736" on="0"/>
        <pt x="276" y="739" on="1"/>
        <pt x="154" y="823" on="0"/>
        <pt x="86" y="881" on="0"/>
      </contour>
    </TTGlyph>
    <TTGlyph name="J" xMin="-66" yMin="-273" xMax="347" yMax="675">
      <contour>
        <pt x="199" y="672" on="1"/>
        <pt x="339" y="675" on="1"/>
        <pt x="347" y="675" on="0"/>
        <pt x="347" y="641" on="0"/>
        <pt x="339" y="641" on="1"/>
        <pt x="296" y="641" on="1"/>
        <pt x="271" y="641" on="0"/>
        <pt x="255" y="622" on="0"/>
        <pt x="255" y="595" on="1"/>
        <pt x="255" y="132" on="1"/>
        <pt x="255" y="-32" on="0"/>
        <pt x="228" y="-101" on="1"/>
        <pt x="196" y="-177" on="0"/>
        <pt x="68" y="-273" on="0"/>
        <pt x="-13" y="-273" on="1"/>
        <pt x="-39" y="-273" on="0"/>
        <pt x="-66" y="-251" on="0"/>
        <pt x="-66" y="-237" on="1"/>
        <pt x="-66" y="-199" on="0"/>
        <pt x="-22" y="-182" on="1"/>
        <pt x="20" y="-208" on="0"/>
        <pt x="74" y="-208" on="1"/>
        <pt x="106" y="-208" on="0"/>
        <pt x="122" y="-177" on="1"/>
        <pt x="152" y="-115" on="0"/>
        <pt x="152" y="123" on="1"/>
        <pt x="152" y="552" on="1"/>
        <pt x="152" y="640" on="0"/>
        <pt x="131" y="640" on="1"/>
        <pt x="73" y="640" on="1"/>
        <pt x="65" y="640" on="0"/>
        <pt x="65" y="673" on="0"/>
        <pt x="73" y="673" on="1"/>
      </contour>
    </TTGlyph>
    <TTGlyph name="K" xMin="51" yMin="-2" xMax="763" yMax="675">
      <contour>
        <pt x="190" y="672" on="1"/>
        <pt x="330" y="675" on="1"/>
        <pt x="338" y="675" on="0"/>
        <pt x="338" y="641" on="0"/>
        <pt x="330" y="641" on="1"/>
        <pt x="287" y="641" on="1"/>
        <pt x="262" y="641" on="0"/>
        <pt x="246" y="622" on="0"/>
        <pt x="246" y="595" on="1"/>
        <pt x="246" y="364" on="1"/>
        <pt x="279" y="364" on="1"/>
        <pt x="514" y="590" on="0"/>
        <pt x="514" y="624" on="1"/>
        <pt x="514" y="641" on="0"/>
        <pt x="498" y="641" on="1"/>
        <pt x="470" y="641" on="1"/>
        <pt x="463" y="641" on="0"/>
        <pt x="463" y="673" on="0"/>
        <pt x="470" y="673" on="1"/>
        <pt x="578" y="671" on="1"/>
        <pt x="687" y="673" on="1"/>
        <pt x="695" y="673" on="0"/>
        <pt x="695" y="640" on="0"/>
        <pt x="686" y="640" on="1"/>
        <pt x="650" y="640" on="1"/>
        <pt x="638" y="640" on="0"/>
        <pt x="456" y="464" on="0"/>
        <pt x="357" y="383" on="1"/>
        <pt x="357" y="379" on="1"/>
        <pt x="580" y="153" on="1"/>
        <pt x="692" y="40" on="0"/>
        <pt x="712" y="40" on="1"/>
        <pt x="750" y="40" on="1"/>
        <pt x="763" y="34" on="0"/>
        <pt x="763" y="0" on="0"/>
        <pt x="752" y="0" on="1"/>
        <pt x="752" y="0" on="0"/>
        <pt x="656" y="1" on="1"/>
        <pt x="498" y="-2" on="1"/>
        <pt x="489" y="-2" on="0"/>
        <pt x="489" y="32" on="0"/>
        <pt x="498" y="32" on="1"/>
        <pt x="514" y="32" on="1"/>
        <pt x="539" y="32" on="0"/>
        <pt x="539" y="47" on="1"/>
        <pt x="539" y="57" on="0"/>
        <pt x="528" y="68" on="1"/>
        <pt x="337" y="272" on="0"/>
        <pt x="284" y="327" on="1"/>
        <pt x="246" y="327" on="1"/>
        <pt x="246" y="121" on="1"/>
        <pt x="246" y="33" on="0"/>
        <pt x="267" y="33" on="1"/>
        <pt x="325" y="33" on="1"/>
        <pt x="333" y="33" on="0"/>
        <pt x="333" y="0" on="0"/>
        <pt x="325" y="0" on="1"/>
        <pt x="199" y="1" on="1"/>
        <pt x="59" y="-2" on="1"/>
        <pt x="51" y="-2" on="0"/>
        <pt x="51" y="32" on="0"/>
        <pt x="59" y="32" on="1"/>
        <pt x="102" y="32" on="1"/>
        <pt x="127" y="32" on="0"/>
        <pt x="143" y="51" on="0"/>
        <pt x="143" y="78" on="1"/>
        <pt x="143" y="552" on="1"/>
        <pt x="143" y="640" on="0"/>
        <pt x="122" y="640" on="1"/>
        <pt x="64" y="640" on="1"/>
        <pt x="56" y="640" on="0"/>
        <pt x="56" y="673" on="0"/>
        <pt x="64" y="673" on="1"/>
      </contour>
    </TTGlyph>
    <TTGlyph name="L" xMin="51" yMin="-29" xMax="565" yMax="675">
      <contour>
        <pt x="190" y="672" on="1"/>
        <pt x="330" y="675" on="1"/>
        <pt x="338" y="675" on="0"/>
        <pt x="338" y="641" on="0"/>
        <pt x="330" y="641" on="1"/>
        <pt x="287" y="641" on="1"/>
        <pt x="262" y="641" on="0"/>
        <pt x="246" y="622" on="0"/>
        <pt x="246" y="595" on="1"/>
        <pt x="246" y="40" on="1"/>
        <pt x="304" y="40" on="1"/>
        <pt x="463" y="40" on="0"/>
        <pt x="524" y="82" on="1"/>
        <pt x="531" y="137" on="1"/>
        <pt x="533" y="145" on="0"/>
        <pt x="564" y="145" on="0"/>
        <pt x="564" y="139" on="1"/>
        <pt x="555" y="-22" on="1"/>
        <pt x="555" y="-29" on="0"/>
        <pt x="524" y="-29" on="0"/>
        <pt x="524" y="-22" on="1"/>
        <pt x="524" y="0" on="1"/>
        <pt x="199" y="0" on="1"/>
        <pt x="59" y="-2" on="1"/>
        <pt x="51" y="-2" on="0"/>
        <pt x="51" y="32" on="0"/>
        <pt x="59" y="32" on="1"/>
        <pt x="102" y="32" on="1"/>
        <pt x="127" y="32" on="0"/>
        <pt x="143" y="51" on="0"/>
        <pt x="143" y="78" on="1"/>
        <pt x="143" y="552" on="1"/>
        <pt x="143" y="640" on="0"/>
        <pt x="122" y="640" on="1"/>
        <pt x="64" y="640" on="1"/>
        <pt x="56" y="640" on="0"/>
        <pt x="56" y="673" on="0"/>
        <pt x="64" y="673" on="1"/>
        <pt x="64" y="673" on="0"/>
      </contour>
    </TTGlyph>
    <TTGlyph name="Lslash" xMin="61" yMin="-29" xMax="606" yMax="675">
      <contour>
        <pt x="231" y="672" on="1"/>
        <pt x="371" y="675" on="1"/>
        <pt x="379" y="675" on="0"/>
        <pt x="379" y="641" on="0"/>
        <pt x="371" y="641" on="1"/>
        <pt x="328" y="641" on="1"/>
        <pt x="303" y="641" on="0"/>
        <pt x="287" y="622" on="0"/>
        <pt x="287" y="595" on="1"/>
        <pt x="287" y="370" on="1"/>
        <pt x="403" y="454" on="1"/>
        <pt x="409" y="458" on="0"/>
        <pt x="414" y="439" on="0"/>
        <pt x="414" y="420" on="0"/>
        <pt x="404" y="413" on="1"/>
        <pt x="287" y="333" on="1"/>
        <pt x="287" y="40" on="1"/>
        <pt x="345" y="40" on="1"/>
        <pt x="504" y="40" on="0"/>
        <pt x="565" y="82" on="1"/>
        <pt x="572" y="137" on="1"/>
        <pt x="574" y="145" on="0"/>
        <pt x="605" y="145" on="0"/>
        <pt x="605" y="139" on="1"/>
        <pt x="596" y="-22" on="1"/>
        <pt x="596" y="-29" on="0"/>
        <pt x="565" y="-29" on="0"/>
        <pt x="565" y="-22" on="1"/>
        <pt x="565" y="0" on="1"/>
        <pt x="240" y="0" on="1"/>
        <pt x="100" y="-2" on="1"/>
        <pt x="92" y="-2" on="0"/>
        <pt x="92" y="32" on="0"/>
        <pt x="100" y="32" on="1"/>
        <pt x="143" y="32" on="1"/>
        <pt x="168" y="32" on="0"/>
        <pt x="184" y="51" on="0"/>
        <pt x="184" y="78" on="1"/>
        <pt x="184" y="273" on="1"/>
        <pt x="129" y="238" on="0"/>
        <pt x="77" y="202" on="1"/>
        <pt x="71" y="200" on="0"/>
        <pt x="62" y="216" on="0"/>
        <pt x="62" y="240" on="0"/>
        <pt x="70" y="245" on="1"/>
        <pt x="102" y="267" on="0"/>
        <pt x="184" y="308" on="1"/>
        <pt x="184" y="552" on="1"/>
        <pt x="184" y="640" on="0"/>
        <pt x="163" y="640" on="1"/>
        <pt x="105" y="640" on="1"/>
        <pt x="97" y="640" on="0"/>
        <pt x="97" y="673" on="0"/>
        <pt x="105" y="673" on="1"/>
        <pt x="105" y="673" on="0"/>
      </contour>
    </TTGlyph>
    <TTGlyph name="M" xMin="23" yMin="-2" xMax="940" yMax="674">
      <contour>
        <pt x="798" y="1" on="1"/>
        <pt x="667" y="-2" on="1"/>
        <pt x="659" y="-2" on="0"/>
        <pt x="659" y="32" on="0"/>
        <pt x="667" y="32" on="1"/>
        <pt x="705" y="32" on="1"/>
        <pt x="724" y="32" on="0"/>
        <pt x="740" y="48" on="0"/>
        <pt x="738" y="83" on="0"/>
        <pt x="730" y="190" on="1"/>
        <pt x="706" y="488" on="0"/>
        <pt x="706" y="531" on="1"/>
        <pt x="702" y="531" on="1"/>
        <pt x="685" y="493" on="0"/>
        <pt x="497" y="62" on="0"/>
        <pt x="474" y="14" on="1"/>
        <pt x="469" y="6" on="0"/>
        <pt x="443" y="6" on="0"/>
        <pt x="439" y="14" on="1"/>
        <pt x="414" y="53" on="0"/>
        <pt x="262" y="430" on="0"/>
        <pt x="223" y="540" on="1"/>
        <pt x="219" y="540" on="1"/>
        <pt x="194" y="188" on="0"/>
        <pt x="194" y="33" on="0"/>
        <pt x="219" y="33" on="1"/>
        <pt x="263" y="33" on="1"/>
        <pt x="276" y="33" on="0"/>
        <pt x="276" y="0" on="0"/>
        <pt x="263" y="0" on="1"/>
        <pt x="158" y="1" on="1"/>
        <pt x="32" y="-2" on="1"/>
        <pt x="23" y="-2" on="0"/>
        <pt x="23" y="32" on="0"/>
        <pt x="32" y="32" on="1"/>
        <pt x="65" y="32" on="1"/>
        <pt x="92" y="32" on="0"/>
        <pt x="113" y="41" on="0"/>
        <pt x="116" y="59" on="1"/>
        <pt x="126" y="117" on="0"/>
        <pt x="147" y="314" on="1"/>
        <pt x="169" y="523" on="0"/>
        <pt x="169" y="604" on="0"/>
        <pt x="158" y="641" on="0"/>
        <pt x="143" y="641" on="1"/>
        <pt x="93" y="641" on="1"/>
        <pt x="85" y="641" on="0"/>
        <pt x="85" y="673" on="0"/>
        <pt x="93" y="673" on="1"/>
        <pt x="282" y="671" on="1"/>
        <pt x="295" y="627" on="0"/>
        <pt x="452" y="198" on="0"/>
        <pt x="477" y="126" on="1"/>
        <pt x="481" y="126" on="1"/>
        <pt x="509" y="196" on="0"/>
        <pt x="561" y="323" on="1"/>
        <pt x="662" y="571" on="0"/>
        <pt x="694" y="671" on="1"/>
        <pt x="862" y="674" on="1"/>
        <pt x="871" y="674" on="0"/>
        <pt x="871" y="641" on="0"/>
        <pt x="862" y="641" on="1"/>
        <pt x="824" y="641" on="1"/>
        <pt x="805" y="641" on="0"/>
        <pt x="793" y="620" on="0"/>
        <pt x="793" y="595" on="0"/>
        <pt x="794" y="569" on="0"/>
        <pt x="831" y="190" on="0"/>
        <pt x="843" y="91" on="1"/>
        <pt x="849" y="33" on="0"/>
        <pt x="866" y="33" on="1"/>
        <pt x="929" y="33" on="1"/>
        <pt x="940" y="33" on="0"/>
        <pt x="940" y="0" on="0"/>
        <pt x="929" y="0" on="1"/>
      </contour>
    </TTGlyph>
    <TTGlyph name="N" xMin="31" yMin="-19" xMax="791" yMax="674">
      <contour>
        <pt x="664" y="671" on="1"/>
        <pt x="782" y="674" on="1"/>
        <pt x="791" y="674" on="0"/>
        <pt x="791" y="641" on="0"/>
        <pt x="782" y="641" on="1"/>
        <pt x="735" y="641" on="1"/>
        <pt x="715" y="641" on="0"/>
        <pt x="709" y="632" on="1"/>
        <pt x="686" y="598" on="0"/>
        <pt x="684" y="-12" on="1"/>
        <pt x="682" y="-19" on="0"/>
        <pt x="654" y="-19" on="0"/>
        <pt x="647" y="-12" on="1"/>
        <pt x="355" y="335" on="0"/>
        <pt x="187" y="539" on="1"/>
        <pt x="183" y="539" on="1"/>
        <pt x="187" y="175" on="0"/>
        <pt x="191" y="33" on="0"/>
        <pt x="210" y="33" on="1"/>
        <pt x="265" y="33" on="1"/>
        <pt x="274" y="33" on="0"/>
        <pt x="274" y="0" on="0"/>
        <pt x="265" y="0" on="1"/>
        <pt x="159" y="1" on="1"/>
        <pt x="40" y="-2" on="1"/>
        <pt x="33" y="-2" on="0"/>
        <pt x="33" y="32" on="0"/>
        <pt x="40" y="32" on="1"/>
        <pt x="73" y="32" on="1"/>
        <pt x="96" y="32" on="0"/>
        <pt x="116" y="43" on="0"/>
        <pt x="117" y="59" on="1"/>
        <pt x="137" y="284" on="0"/>
        <pt x="137" y="597" on="1"/>
        <pt x="130" y="605" on="1"/>
        <pt x="110" y="628" on="0"/>
        <pt x="79" y="641" on="0"/>
        <pt x="37" y="641" on="1"/>
        <pt x="31" y="641" on="0"/>
        <pt x="31" y="673" on="0"/>
        <pt x="37" y="673" on="1"/>
        <pt x="218" y="671" on="1"/>
        <pt x="574" y="225" on="0"/>
        <pt x="632" y="147" on="1"/>
        <pt x="636" y="147" on="1"/>
        <pt x="630" y="544" on="0"/>
        <pt x="622" y="640" on="0"/>
        <pt x="603" y="640" on="1"/>
        <pt x="555" y="640" on="1"/>
        <pt x="546" y="640" on="0"/>
        <pt x="546" y="673" on="0"/>
        <pt x="555" y="673" on="1"/>
      </contour>
    </TTGlyph>
    <TTGlyph name="Ntilde" xMin="31" yMin="-19" xMax="791" yMax="967">
      <contour>
        <pt x="278" y="773" on="1"/>
        <pt x="276" y="765" on="0"/>
        <pt x="262" y="765" on="0"/>
        <pt x="251" y="776" on="0"/>
        <pt x="251" y="784" on="1"/>
        <pt x="254" y="851" on="0"/>
        <pt x="310" y="905" on="0"/>
        <pt x="369" y="905" on="0"/>
        <pt x="438" y="892" on="0"/>
        <pt x="477" y="892" on="0"/>
        <pt x="497" y="894" on="0"/>
        <pt x="510" y="900" on="1"/>
        <pt x="536" y="911" on="0"/>
        <pt x="544" y="959" on="1"/>
        <pt x="545" y="967" on="0"/>
        <pt x="562" y="967" on="0"/>
        <pt x="571" y="957" on="0"/>
        <pt x="570" y="949" on="1"/>
        <pt x="565" y="829" on="0"/>
        <pt x="472" y="829" on="1"/>
        <pt x="452" y="829" on="0"/>
        <pt x="383" y="842" on="0"/>
        <pt x="328" y="842" on="0"/>
        <pt x="286" y="815" on="0"/>
      </contour>
      <contour>
        <pt x="664" y="671" on="1"/>
        <pt x="782" y="674" on="1"/>
        <pt x="791" y="674" on="0"/>
        <pt x="791" y="641" on="0"/>
        <pt x="782" y="641" on="1"/>
        <pt x="735" y="641" on="1"/>
        <pt x="715" y="641" on="0"/>
        <pt x="709" y="632" on="1"/>
        <pt x="686" y="598" on="0"/>
        <pt x="684" y="-12" on="1"/>
        <pt x="682" y="-19" on="0"/>
        <pt x="654" y="-19" on="0"/>
        <pt x="647" y="-12" on="1"/>
        <pt x="355" y="335" on="0"/>
        <pt x="187" y="539" on="1"/>
        <pt x="183" y="539" on="1"/>
        <pt x="187" y="175" on="0"/>
        <pt x="191" y="33" on="0"/>
        <pt x="210" y="33" on="1"/>
        <pt x="265" y="33" on="1"/>
        <pt x="274" y="33" on="0"/>
        <pt x="274" y="0" on="0"/>
        <pt x="265" y="0" on="1"/>
        <pt x="159" y="1" on="1"/>
        <pt x="40" y="-2" on="1"/>
        <pt x="33" y="-2" on="0"/>
        <pt x="33" y="32" on="0"/>
        <pt x="40" y="32" on="1"/>
        <pt x="73" y="32" on="1"/>
        <pt x="96" y="32" on="0"/>
        <pt x="116" y="43" on="0"/>
        <pt x="117" y="59" on="1"/>
        <pt x="137" y="284" on="0"/>
        <pt x="137" y="597" on="1"/>
        <pt x="130" y="605" on="1"/>
        <pt x="110" y="628" on="0"/>
        <pt x="79" y="641" on="0"/>
        <pt x="37" y="641" on="1"/>
        <pt x="31" y="641" on="0"/>
        <pt x="31" y="673" on="0"/>
        <pt x="37" y="673" on="1"/>
        <pt x="37" y="673" on="0"/>
        <pt x="218" y="671" on="1"/>
        <pt x="574" y="225" on="0"/>
        <pt x="632" y="147" on="1"/>
        <pt x="636" y="147" on="1"/>
        <pt x="630" y="544" on="0"/>
        <pt x="622" y="640" on="0"/>
        <pt x="603" y="640" on="1"/>
        <pt x="555" y="640" on="1"/>
        <pt x="546" y="640" on="0"/>
        <pt x="546" y="673" on="0"/>
        <pt x="555" y="673" on="1"/>
      </contour>
    </TTGlyph>
    <TTGlyph name="O" xMin="48" yMin="-13" xMax="776" yMax="684">
      <contour>
        <pt x="262" y="684" on="0"/>
        <pt x="562" y="684" on="0"/>
        <pt x="776" y="480" on="0"/>
        <pt x="776" y="191" on="0"/>
        <pt x="562" y="-13" on="0"/>
        <pt x="262" y="-13" on="0"/>
        <pt x="48" y="191" on="0"/>
        <pt x="48" y="480" on="0"/>
      </contour>
      <contour>
        <pt x="517" y="638" on="0"/>
        <pt x="307" y="638" on="0"/>
        <pt x="174" y="464" on="0"/>
        <pt x="174" y="207" on="0"/>
        <pt x="307" y="33" on="0"/>
        <pt x="517" y="33" on="0"/>
        <pt x="650" y="207" on="0"/>
        <pt x="650" y="464" on="0"/>
      </contour>
    </TTGlyph>
    <TTGlyph name="OE" xMin="48" yMin="-24" xMax="1060" yMax="714">
      <contour>
        <pt x="412" y="684" on="1"/>
        <pt x="465" y="684" on="0"/>
        <pt x="549" y="664" on="0"/>
        <pt x="564" y="654" on="1"/>
        <pt x="579" y="645" on="1"/>
        <pt x="997" y="673" on="1"/>
        <pt x="999" y="708" on="1"/>
        <pt x="999" y="714" on="0"/>
        <pt x="1028" y="714" on="0"/>
        <pt x="1028" y="705" on="1"/>
        <pt x="1032" y="634" on="0"/>
        <pt x="1046" y="541" on="1"/>
        <pt x="1048" y="533" on="0"/>
        <pt x="1019" y="533" on="0"/>
        <pt x="1016" y="544" on="1"/>
        <pt x="1009" y="564" on="0"/>
        <pt x="993" y="586" on="1"/>
        <pt x="951" y="600" on="0"/>
        <pt x="760" y="617" on="0"/>
        <pt x="666" y="617" on="0"/>
        <pt x="635" y="613" on="1"/>
        <pt x="695" y="567" on="0"/>
        <pt x="773" y="424" on="0"/>
        <pt x="776" y="355" on="1"/>
        <pt x="865" y="357" on="0"/>
        <pt x="956" y="371" on="0"/>
        <pt x="959" y="373" on="1"/>
        <pt x="969" y="428" on="1"/>
        <pt x="970" y="435" on="0"/>
        <pt x="981" y="435" on="1"/>
        <pt x="1002" y="435" on="0"/>
        <pt x="1000" y="426" on="1"/>
        <pt x="994" y="380" on="0"/>
        <pt x="994" y="287" on="0"/>
        <pt x="999" y="248" on="1"/>
        <pt x="1001" y="240" on="0"/>
        <pt x="968" y="240" on="0"/>
        <pt x="968" y="246" on="1"/>
        <pt x="959" y="292" on="1"/>
        <pt x="946" y="300" on="0"/>
        <pt x="816" y="319" on="0"/>
        <pt x="775" y="320" on="1"/>
        <pt x="773" y="265" on="0"/>
        <pt x="738" y="173" on="0"/>
        <pt x="705" y="127" on="0"/>
        <pt x="677" y="97" on="1"/>
        <pt x="774" y="88" on="0"/>
        <pt x="849" y="88" on="0"/>
        <pt x="888" y="89" on="1"/>
        <pt x="943" y="89" on="0"/>
        <pt x="1021" y="105" on="1"/>
        <pt x="1026" y="138" on="1"/>
        <pt x="1028" y="146" on="0"/>
        <pt x="1040" y="146" on="1"/>
        <pt x="1059" y="146" on="0"/>
        <pt x="1059" y="140" on="1"/>
        <pt x="1042" y="-17" on="1"/>
        <pt x="1042" y="-24" on="0"/>
        <pt x="1011" y="-24" on="0"/>
        <pt x="1011" y="-17" on="1"/>
        <pt x="1013" y="11" on="1"/>
        <pt x="949" y="26" on="0"/>
        <pt x="754" y="46" on="0"/>
        <pt x="689" y="48" on="1"/>
        <pt x="624" y="51" on="1"/>
        <pt x="528" y="-13" on="0"/>
        <pt x="412" y="-13" on="1"/>
        <pt x="262" y="-13" on="0"/>
        <pt x="48" y="191" on="0"/>
        <pt x="48" y="480" on="0"/>
        <pt x="262" y="684" on="0"/>
      </contour>
      <contour>
        <pt x="517" y="638" on="0"/>
        <pt x="307" y="638" on="0"/>
        <pt x="174" y="464" on="0"/>
        <pt x="174" y="207" on="0"/>
        <pt x="307" y="33" on="0"/>
        <pt x="517" y="33" on="0"/>
        <pt x="650" y="207" on="0"/>
        <pt x="650" y="464" on="0"/>
      </contour>
    </TTGlyph>
    <TTGlyph name="Oacute" xMin="48" yMin="-13" xMax="776" yMax="939">
      <contour>
        <pt x="385" y="736" on="1"/>
        <pt x="372" y="736" on="0"/>
        <pt x="372" y="745" on="1"/>
        <pt x="372" y="748" on="0"/>
        <pt x="414" y="795" on="0"/>
        <pt x="475" y="879" on="0"/>
        <pt x="486" y="898" on="1"/>
        <pt x="511" y="939" on="0"/>
        <pt x="550" y="939" on="1"/>
        <pt x="565" y="939" on="0"/>
        <pt x="585" y="921" on="0"/>
        <pt x="585" y="907" on="1"/>
        <pt x="585" y="881" on="0"/>
        <pt x="517" y="823" on="0"/>
        <pt x="395" y="739" on="1"/>
        <pt x="390" y="736" on="0"/>
      </contour>
      <contour>
        <pt x="262" y="684" on="0"/>
        <pt x="562" y="684" on="0"/>
        <pt x="776" y="480" on="0"/>
        <pt x="776" y="191" on="0"/>
        <pt x="562" y="-13" on="0"/>
        <pt x="262" y="-13" on="0"/>
        <pt x="48" y="191" on="0"/>
        <pt x="48" y="480" on="0"/>
      </contour>
      <contour>
        <pt x="517" y="638" on="0"/>
        <pt x="307" y="638" on="0"/>
        <pt x="174" y="464" on="0"/>
        <pt x="174" y="207" on="0"/>
        <pt x="307" y="33" on="0"/>
        <pt x="517" y="33" on="0"/>
        <pt x="650" y="207" on="0"/>
        <pt x="650" y="464" on="0"/>
      </contour>
    </TTGlyph>
    <TTGlyph name="Ocircumflex" xMin="48" yMin="-13" xMax="776" yMax="925">
      <contour>
        <pt x="262" y="684" on="0"/>
        <pt x="562" y="684" on="0"/>
        <pt x="776" y="480" on="0"/>
        <pt x="776" y="191" on="0"/>
        <pt x="562" y="-13" on="0"/>
        <pt x="262" y="-13" on="0"/>
        <pt x="48" y="191" on="0"/>
        <pt x="48" y="480" on="0"/>
      </contour>
      <contour>
        <pt x="517" y="638" on="0"/>
        <pt x="307" y="638" on="0"/>
        <pt x="174" y="464" on="0"/>
        <pt x="174" y="207" on="0"/>
        <pt x="307" y="33" on="0"/>
        <pt x="517" y="33" on="0"/>
        <pt x="650" y="207" on="0"/>
        <pt x="650" y="464" on="0"/>
      </contour>
      <contour>
        <pt x="322" y="764" on="1"/>
        <pt x="313" y="756" on="0"/>
        <pt x="295" y="756" on="0"/>
        <pt x="292" y="764" on="1"/>
        <pt x="406" y="911" on="1"/>
        <pt x="417" y="925" on="0"/>
        <pt x="447" y="925" on="0"/>
        <pt x="461" y="911" on="1"/>
        <pt x="571" y="764" on="1"/>
        <pt x="566" y="757" on="0"/>
        <pt x="548" y="757" on="0"/>
        <pt x="540" y="764" on="1"/>
        <pt x="433" y="854" on="1"/>
      </contour>
    </TTGlyph>
    <TTGlyph name="Odieresis" xMin="48" yMin="-13" xMax="776" yMax="891">
      <contour>
        <pt x="262" y="684" on="0"/>
        <pt x="562" y="684" on="0"/>
        <pt x="776" y="480" on="0"/>
        <pt x="776" y="191" on="0"/>
        <pt x="562" y="-13" on="0"/>
        <pt x="262" y="-13" on="0"/>
        <pt x="48" y="191" on="0"/>
        <pt x="48" y="480" on="0"/>
      </contour>
      <contour>
        <pt x="517" y="638" on="0"/>
        <pt x="307" y="638" on="0"/>
        <pt x="174" y="464" on="0"/>
        <pt x="174" y="207" on="0"/>
        <pt x="307" y="33" on="0"/>
        <pt x="517" y="33" on="0"/>
        <pt x="650" y="207" on="0"/>
        <pt x="650" y="464" on="0"/>
      </contour>
      <contour>
        <pt x="350" y="789" on="0"/>
        <pt x="306" y="789" on="0"/>
        <pt x="277" y="820" on="0"/>
        <pt x="277" y="863" on="0"/>
        <pt x="307" y="891" on="0"/>
        <pt x="348" y="891" on="0"/>
        <pt x="379" y="862" on="0"/>
        <pt x="379" y="820" on="0"/>
      </contour>
      <contour>
        <pt x="517" y="789" on="0"/>
        <pt x="473" y="789" on="0"/>
        <pt x="444" y="820" on="0"/>
        <pt x="444" y="862" on="0"/>
        <pt x="475" y="891" on="0"/>
        <pt x="515" y="891" on="0"/>
        <pt x="546" y="862" on="0"/>
        <pt x="546" y="820" on="0"/>
      </contour>
    </TTGlyph>
    <TTGlyph name="Ograve" xMin="48" yMin="-13" xMax="776" yMax="939">
      <contour>
        <pt x="262" y="684" on="0"/>
        <pt x="562" y="684" on="0"/>
        <pt x="776" y="480" on="0"/>
        <pt x="776" y="191" on="0"/>
        <pt x="562" y="-13" on="0"/>
        <pt x="262" y="-13" on="0"/>
        <pt x="48" y="191" on="0"/>
        <pt x="48" y="480" on="0"/>
      </contour>
      <contour>
        <pt x="517" y="638" on="0"/>
        <pt x="307" y="638" on="0"/>
        <pt x="174" y="464" on="0"/>
        <pt x="174" y="207" on="0"/>
        <pt x="307" y="33" on="0"/>
        <pt x="517" y="33" on="0"/>
        <pt x="650" y="207" on="0"/>
        <pt x="650" y="464" on="0"/>
      </contour>
      <contour>
        <pt x="316" y="907" on="1"/>
        <pt x="316" y="921" on="0"/>
        <pt x="336" y="939" on="0"/>
        <pt x="379" y="939" on="0"/>
        <pt x="408" y="910" on="0"/>
        <pt x="478" y="804" on="0"/>
        <pt x="529" y="748" on="0"/>
        <pt x="529" y="745" on="1"/>
        <pt x="529" y="736" on="0"/>
        <pt x="510" y="736" on="0"/>
        <pt x="506" y="739" on="1"/>
        <pt x="384" y="823" on="0"/>
        <pt x="316" y="881" on="0"/>
      </contour>
    </TTGlyph>
    <TTGlyph name="Oslash" xMin="48" yMin="-137" xMax="776" yMax="766">
      <contour>
        <pt x="776" y="336" on="1"/>
        <pt x="776" y="191" on="0"/>
        <pt x="562" y="-13" on="0"/>
        <pt x="412" y="-13" on="1"/>
        <pt x="350" y="-13" on="0"/>
        <pt x="295" y="5" on="1"/>
        <pt x="232" y="-113" on="1"/>
        <pt x="220" y="-137" on="0"/>
        <pt x="193" y="-137" on="0"/>
        <pt x="176" y="-120" on="1"/>
        <pt x="252" y="22" on="1"/>
        <pt x="160" y="66" on="0"/>
        <pt x="48" y="234" on="0"/>
        <pt x="48" y="336" on="1"/>
        <pt x="48" y="480" on="0"/>
        <pt x="262" y="684" on="0"/>
        <pt x="412" y="684" on="1"/>
        <pt x="504" y="684" on="0"/>
        <pt x="585" y="641" on="1"/>
        <pt x="642" y="746" on="1"/>
        <pt x="653" y="766" on="0"/>
        <pt x="663" y="766" on="1"/>
        <pt x="681" y="766" on="0"/>
        <pt x="696" y="749" on="1"/>
        <pt x="625" y="617" on="1"/>
        <pt x="695" y="569" on="0"/>
        <pt x="776" y="421" on="0"/>
      </contour>
      <contour>
        <pt x="412" y="638" on="1"/>
        <pt x="307" y="638" on="0"/>
        <pt x="174" y="464" on="0"/>
        <pt x="174" y="336" on="1"/>
        <pt x="174" y="254" on="0"/>
        <pt x="231" y="118" on="0"/>
        <pt x="282" y="78" on="1"/>
        <pt x="554" y="582" on="1"/>
        <pt x="492" y="638" on="0"/>
      </contour>
      <contour>
        <pt x="517" y="33" on="0"/>
        <pt x="650" y="207" on="0"/>
        <pt x="650" y="461" on="0"/>
        <pt x="587" y="546" on="1"/>
        <pt x="321" y="53" on="1"/>
        <pt x="364" y="33" on="0"/>
        <pt x="412" y="33" on="1"/>
      </contour>
    </TTGlyph>
    <TTGlyph name="Otilde" xMin="48" yMin="-13" xMax="776" yMax="978">
      <contour>
        <pt x="262" y="684" on="0"/>
        <pt x="562" y="684" on="0"/>
        <pt x="776" y="480" on="0"/>
        <pt x="776" y="191" on="0"/>
        <pt x="562" y="-13" on="0"/>
        <pt x="262" y="-13" on="0"/>
        <pt x="48" y="191" on="0"/>
        <pt x="48" y="480" on="0"/>
      </contour>
      <contour>
        <pt x="517" y="638" on="0"/>
        <pt x="307" y="638" on="0"/>
        <pt x="174" y="464" on="0"/>
        <pt x="174" y="207" on="0"/>
        <pt x="307" y="33" on="0"/>
        <pt x="517" y="33" on="0"/>
        <pt x="650" y="207" on="0"/>
        <pt x="650" y="464" on="0"/>
      </contour>
      <contour>
        <pt x="272" y="773" on="1"/>
        <pt x="270" y="765" on="0"/>
        <pt x="256" y="765" on="0"/>
        <pt x="245" y="776" on="0"/>
        <pt x="245" y="784" on="1"/>
        <pt x="248" y="851" on="0"/>
        <pt x="312" y="913" on="0"/>
        <pt x="349" y="913" on="1"/>
        <pt x="371" y="913" on="0"/>
        <pt x="440" y="900" on="0"/>
        <pt x="478" y="900" on="0"/>
        <pt x="502" y="903" on="0"/>
        <pt x="516" y="910" on="1"/>
        <pt x="544" y="923" on="0"/>
        <pt x="552" y="970" on="1"/>
        <pt x="553" y="978" on="0"/>
        <pt x="562" y="978" on="1"/>
        <pt x="578" y="978" on="0"/>
        <pt x="578" y="963" on="1"/>
        <pt x="578" y="893" on="0"/>
        <pt x="514" y="829" on="0"/>
        <pt x="474" y="829" on="1"/>
        <pt x="454" y="829" on="0"/>
        <pt x="385" y="842" on="0"/>
        <pt x="328" y="842" on="0"/>
        <pt x="280" y="815" on="0"/>
      </contour>
    </TTGlyph>
    <TTGlyph name="P" xMin="51" yMin="-2" xMax="570" yMax="673">
      <contour>
        <pt x="64" y="673" on="1"/>
        <pt x="190" y="671" on="1"/>
        <pt x="305" y="671" on="1"/>
        <pt x="437" y="671" on="0"/>
        <pt x="570" y="569" on="0"/>
        <pt x="570" y="422" on="0"/>
        <pt x="448" y="307" on="0"/>
        <pt x="353" y="307" on="1"/>
        <pt x="301" y="307" on="0"/>
        <pt x="246" y="331" on="1"/>
        <pt x="246" y="121" on="1"/>
        <pt x="246" y="33" on="0"/>
        <pt x="267" y="33" on="1"/>
        <pt x="325" y="33" on="1"/>
        <pt x="335" y="33" on="0"/>
        <pt x="335" y="0" on="0"/>
        <pt x="325" y="0" on="1"/>
        <pt x="282" y="0" on="1"/>
        <pt x="239" y="1" on="1"/>
        <pt x="199" y="1" on="1"/>
        <pt x="59" y="-2" on="1"/>
        <pt x="51" y="-2" on="0"/>
        <pt x="51" y="32" on="0"/>
        <pt x="59" y="32" on="1"/>
        <pt x="102" y="32" on="1"/>
        <pt x="127" y="32" on="0"/>
        <pt x="143" y="51" on="0"/>
        <pt x="143" y="78" on="1"/>
        <pt x="143" y="552" on="1"/>
        <pt x="143" y="640" on="0"/>
        <pt x="122" y="640" on="1"/>
        <pt x="64" y="640" on="1"/>
        <pt x="56" y="640" on="0"/>
        <pt x="56" y="673" on="0"/>
      </contour>
      <contour>
        <pt x="376" y="357" on="0"/>
        <pt x="462" y="433" on="0"/>
        <pt x="462" y="546" on="0"/>
        <pt x="369" y="631" on="0"/>
        <pt x="282" y="631" on="1"/>
        <pt x="263" y="631" on="0"/>
        <pt x="246" y="611" on="0"/>
        <pt x="246" y="585" on="1"/>
        <pt x="246" y="363" on="1"/>
        <pt x="273" y="357" on="0"/>
        <pt x="299" y="357" on="1"/>
      </contour>
    </TTGlyph>
    <TTGlyph name="Q" xMin="48" yMin="-252" xMax="1087" yMax="684">
      <contour>
        <pt x="1063" y="-89" on="1"/>
        <pt x="1070" y="-82" on="0"/>
        <pt x="1087" y="-94" on="0"/>
        <pt x="1087" y="-102" on="0"/>
        <pt x="1063" y="-138" on="0"/>
        <pt x="1043" y="-166" on="0"/>
        <pt x="1017" y="-195" on="1"/>
        <pt x="967" y="-251" on="0"/>
        <pt x="849" y="-251" on="0"/>
        <pt x="746" y="-205" on="0"/>
        <pt x="657" y="-138" on="0"/>
        <pt x="612" y="-104" on="1"/>
        <pt x="503" y="-20" on="0"/>
        <pt x="412" y="-13" on="1"/>
        <pt x="262" y="-13" on="0"/>
        <pt x="48" y="191" on="0"/>
        <pt x="48" y="480" on="0"/>
        <pt x="262" y="684" on="0"/>
        <pt x="562" y="684" on="0"/>
        <pt x="776" y="480" on="0"/>
        <pt x="776" y="336" on="1"/>
        <pt x="776" y="218" on="0"/>
        <pt x="631" y="35" on="0"/>
        <pt x="518" y="2" on="1"/>
        <pt x="597" y="2" on="0"/>
        <pt x="688" y="-52" on="1"/>
        <pt x="726" y="-75" on="0"/>
        <pt x="764" y="-98" on="1"/>
        <pt x="858" y="-152" on="0"/>
        <pt x="939" y="-152" on="1"/>
        <pt x="976" y="-152" on="0"/>
        <pt x="1031" y="-123" on="0"/>
      </contour>
      <contour>
        <pt x="517" y="638" on="0"/>
        <pt x="307" y="638" on="0"/>
        <pt x="174" y="464" on="0"/>
        <pt x="174" y="207" on="0"/>
        <pt x="307" y="33" on="0"/>
        <pt x="517" y="33" on="0"/>
        <pt x="650" y="207" on="0"/>
        <pt x="650" y="464" on="0"/>
      </contour>
    </TTGlyph>
    <TTGlyph name="R" xMin="51" yMin="-13" xMax="685" yMax="673">
      <contour>
        <pt x="64" y="673" on="1"/>
        <pt x="190" y="671" on="1"/>
        <pt x="305" y="671" on="1"/>
        <pt x="437" y="671" on="0"/>
        <pt x="570" y="571" on="0"/>
        <pt x="570" y="433" on="0"/>
        <pt x="472" y="346" on="0"/>
        <pt x="396" y="329" on="1"/>
        <pt x="314" y="320" on="0"/>
        <pt x="277" y="320" on="0"/>
        <pt x="246" y="326" on="1"/>
        <pt x="246" y="121" on="1"/>
        <pt x="246" y="33" on="0"/>
        <pt x="267" y="33" on="1"/>
        <pt x="325" y="33" on="1"/>
        <pt x="333" y="33" on="0"/>
        <pt x="333" y="0" on="0"/>
        <pt x="325" y="0" on="1"/>
        <pt x="199" y="1" on="1"/>
        <pt x="59" y="-2" on="1"/>
        <pt x="51" y="-2" on="0"/>
        <pt x="51" y="32" on="0"/>
        <pt x="59" y="32" on="1"/>
        <pt x="102" y="32" on="1"/>
        <pt x="127" y="32" on="0"/>
        <pt x="143" y="51" on="0"/>
        <pt x="143" y="78" on="1"/>
        <pt x="143" y="552" on="1"/>
        <pt x="143" y="640" on="0"/>
        <pt x="122" y="640" on="1"/>
        <pt x="64" y="640" on="1"/>
        <pt x="56" y="640" on="0"/>
        <pt x="56" y="673" on="0"/>
      </contour>
      <contour>
        <pt x="376" y="357" on="0"/>
        <pt x="462" y="433" on="0"/>
        <pt x="462" y="545" on="0"/>
        <pt x="370" y="631" on="0"/>
        <pt x="285" y="631" on="1"/>
        <pt x="246" y="631" on="0"/>
        <pt x="246" y="590" on="1"/>
        <pt x="246" y="363" on="1"/>
        <pt x="273" y="357" on="0"/>
        <pt x="299" y="357" on="1"/>
      </contour>
      <contour>
        <pt x="666" y="70" on="1"/>
        <pt x="672" y="75" on="0"/>
        <pt x="684" y="64" on="0"/>
        <pt x="684" y="59" on="0"/>
        <pt x="683" y="57" on="1"/>
        <pt x="634" y="-13" on="0"/>
        <pt x="574" y="-13" on="1"/>
        <pt x="532" y="-13" on="0"/>
        <pt x="462" y="45" on="0"/>
        <pt x="413" y="133" on="0"/>
        <pt x="390" y="179" on="1"/>
        <pt x="333" y="296" on="0"/>
        <pt x="281" y="321" on="1"/>
        <pt x="345" y="333" on="1"/>
        <pt x="391" y="325" on="0"/>
        <pt x="460" y="259" on="0"/>
        <pt x="502" y="178" on="0"/>
        <pt x="521" y="138" on="1"/>
        <pt x="566" y="44" on="0"/>
        <pt x="619" y="44" on="1"/>
        <pt x="638" y="44" on="0"/>
      </contour>
    </TTGlyph>
    <TTGlyph name="S" xMin="46" yMin="-20" xMax="490" yMax="702">
      <contour>
        <pt x="490" y="90" on="0"/>
        <pt x="348" y="-13" on="0"/>
        <pt x="176" y="-13" on="0"/>
        <pt x="110" y="17" on="1"/>
        <pt x="118" y="-3" on="1"/>
        <pt x="121" y="-9" on="0"/>
        <pt x="106" y="-20" on="0"/>
        <pt x="88" y="-20" on="0"/>
        <pt x="85" y="-15" on="1"/>
        <pt x="53" y="66" on="0"/>
        <pt x="46" y="173" on="1"/>
        <pt x="46" y="183" on="0"/>
        <pt x="78" y="183" on="0"/>
        <pt x="79" y="176" on="1"/>
        <pt x="101" y="100" on="0"/>
        <pt x="168" y="54" on="1"/>
        <pt x="209" y="25" on="0"/>
        <pt x="318" y="25" on="0"/>
        <pt x="385" y="88" on="0"/>
        <pt x="385" y="177" on="0"/>
        <pt x="339" y="248" on="0"/>
        <pt x="271" y="292" on="0"/>
        <pt x="191" y="341" on="0"/>
        <pt x="123" y="386" on="0"/>
        <pt x="77" y="462" on="0"/>
        <pt x="77" y="510" on="1"/>
        <pt x="77" y="583" on="0"/>
        <pt x="208" y="684" on="0"/>
        <pt x="307" y="684" on="1"/>
        <pt x="352" y="684" on="0"/>
        <pt x="391" y="672" on="1"/>
        <pt x="403" y="669" on="1"/>
        <pt x="399" y="685" on="0"/>
        <pt x="398" y="697" on="0"/>
        <pt x="407" y="702" on="0"/>
        <pt x="426" y="702" on="0"/>
        <pt x="429" y="694" on="1"/>
        <pt x="452" y="613" on="0"/>
        <pt x="456" y="535" on="1"/>
        <pt x="453" y="529" on="0"/>
        <pt x="426" y="529" on="0"/>
        <pt x="423" y="532" on="1"/>
        <pt x="412" y="573" on="0"/>
        <pt x="372" y="626" on="0"/>
        <pt x="324" y="646" on="0"/>
        <pt x="292" y="646" on="1"/>
        <pt x="230" y="646" on="0"/>
        <pt x="177" y="583" on="0"/>
        <pt x="177" y="508" on="0"/>
        <pt x="212" y="455" on="0"/>
        <pt x="267" y="416" on="0"/>
        <pt x="333" y="379" on="0"/>
        <pt x="400" y="337" on="0"/>
        <pt x="428" y="312" on="1"/>
        <pt x="490" y="257" on="0"/>
      </contour>
    </TTGlyph>
    <TTGlyph name="Scaron" xMin="46" yMin="-20" xMax="490" yMax="918">
      <contour>
        <pt x="490" y="90" on="0"/>
        <pt x="348" y="-13" on="0"/>
        <pt x="176" y="-13" on="0"/>
        <pt x="110" y="17" on="1"/>
        <pt x="118" y="-3" on="1"/>
        <pt x="121" y="-9" on="0"/>
        <pt x="106" y="-20" on="0"/>
        <pt x="88" y="-20" on="0"/>
        <pt x="85" y="-15" on="1"/>
        <pt x="53" y="66" on="0"/>
        <pt x="46" y="173" on="1"/>
        <pt x="46" y="183" on="0"/>
        <pt x="78" y="183" on="0"/>
        <pt x="79" y="176" on="1"/>
        <pt x="101" y="100" on="0"/>
        <pt x="168" y="54" on="1"/>
        <pt x="209" y="25" on="0"/>
        <pt x="318" y="25" on="0"/>
        <pt x="385" y="88" on="0"/>
        <pt x="385" y="177" on="0"/>
        <pt x="339" y="248" on="0"/>
        <pt x="271" y="292" on="0"/>
        <pt x="191" y="341" on="0"/>
        <pt x="123" y="386" on="0"/>
        <pt x="77" y="462" on="0"/>
        <pt x="77" y="510" on="1"/>
        <pt x="77" y="583" on="0"/>
        <pt x="208" y="684" on="0"/>
        <pt x="307" y="684" on="1"/>
        <pt x="352" y="684" on="0"/>
        <pt x="391" y="672" on="1"/>
        <pt x="403" y="669" on="1"/>
        <pt x="399" y="685" on="0"/>
        <pt x="398" y="697" on="0"/>
        <pt x="407" y="702" on="0"/>
        <pt x="426" y="702" on="0"/>
        <pt x="429" y="694" on="1"/>
        <pt x="452" y="613" on="0"/>
        <pt x="456" y="535" on="1"/>
        <pt x="453" y="529" on="0"/>
        <pt x="426" y="529" on="0"/>
        <pt x="423" y="532" on="1"/>
        <pt x="412" y="573" on="0"/>
        <pt x="372" y="626" on="0"/>
        <pt x="324" y="646" on="0"/>
        <pt x="292" y="646" on="1"/>
        <pt x="230" y="646" on="0"/>
        <pt x="177" y="583" on="0"/>
        <pt x="177" y="508" on="0"/>
        <pt x="212" y="455" on="0"/>
        <pt x="267" y="416" on="0"/>
        <pt x="333" y="379" on="0"/>
        <pt x="400" y="337" on="0"/>
        <pt x="428" y="312" on="1"/>
        <pt x="490" y="257" on="0"/>
      </contour>
      <contour>
        <pt x="393" y="910" on="1"/>
        <pt x="402" y="918" on="0"/>
        <pt x="420" y="918" on="0"/>
        <pt x="423" y="910" on="1"/>
        <pt x="309" y="763" on="1"/>
        <pt x="298" y="749" on="0"/>
        <pt x="268" y="749" on="0"/>
        <pt x="254" y="763" on="1"/>
        <pt x="144" y="910" on="1"/>
        <pt x="149" y="917" on="0"/>
        <pt x="167" y="917" on="0"/>
        <pt x="175" y="910" on="1"/>
        <pt x="282" y="820" on="1"/>
      </contour>
    </TTGlyph>
    <TTGlyph name="T" xMin="-26" yMin="-2" xMax="629" yMax="701">
      <contour>
        <pt x="628" y="539" on="1"/>
        <pt x="628" y="531" on="0"/>
        <pt x="596" y="531" on="0"/>
        <pt x="595" y="540" on="1"/>
        <pt x="583" y="605" on="0"/>
        <pt x="554" y="614" on="1"/>
        <pt x="503" y="627" on="0"/>
        <pt x="387" y="629" on="1"/>
        <pt x="367" y="628" on="0"/>
        <pt x="353" y="608" on="0"/>
        <pt x="353" y="583" on="1"/>
        <pt x="353" y="121" on="1"/>
        <pt x="353" y="33" on="0"/>
        <pt x="374" y="33" on="1"/>
        <pt x="432" y="33" on="1"/>
        <pt x="440" y="33" on="0"/>
        <pt x="440" y="0" on="0"/>
        <pt x="432" y="0" on="1"/>
        <pt x="306" y="1" on="1"/>
        <pt x="166" y="-2" on="1"/>
        <pt x="158" y="-2" on="0"/>
        <pt x="158" y="32" on="0"/>
        <pt x="166" y="32" on="1"/>
        <pt x="209" y="32" on="1"/>
        <pt x="234" y="32" on="0"/>
        <pt x="250" y="51" on="0"/>
        <pt x="250" y="78" on="1"/>
        <pt x="250" y="541" on="1"/>
        <pt x="250" y="629" on="0"/>
        <pt x="230" y="629" on="1"/>
        <pt x="209" y="629" on="1"/>
        <pt x="110" y="629" on="0"/>
        <pt x="49" y="614" on="1"/>
        <pt x="20" y="605" on="0"/>
        <pt x="8" y="540" on="1"/>
        <pt x="7" y="531" on="0"/>
        <pt x="-25" y="531" on="0"/>
        <pt x="-25" y="539" on="1"/>
        <pt x="-17" y="692" on="1"/>
        <pt x="-17" y="701" on="0"/>
        <pt x="15" y="701" on="0"/>
        <pt x="15" y="692" on="1"/>
        <pt x="15" y="673" on="1"/>
        <pt x="83" y="671" on="0"/>
        <pt x="140" y="671" on="1"/>
        <pt x="439" y="671" on="1"/>
        <pt x="520" y="671" on="0"/>
        <pt x="588" y="673" on="1"/>
        <pt x="588" y="692" on="1"/>
        <pt x="588" y="701" on="0"/>
        <pt x="620" y="701" on="0"/>
        <pt x="620" y="692" on="1"/>
      </contour>
    </TTGlyph>
    <TTGlyph name="Thorn" xMin="51" yMin="-2" xMax="556" yMax="675">
      <contour>
        <pt x="190" y="672" on="1"/>
        <pt x="332" y="675" on="1"/>
        <pt x="340" y="675" on="0"/>
        <pt x="340" y="641" on="0"/>
        <pt x="332" y="641" on="1"/>
        <pt x="302" y="641" on="1"/>
        <pt x="277" y="641" on="0"/>
        <pt x="262" y="624" on="0"/>
        <pt x="258" y="572" on="0"/>
        <pt x="256" y="536" on="1"/>
        <pt x="305" y="536" on="1"/>
        <pt x="430" y="536" on="0"/>
        <pt x="556" y="435" on="0"/>
        <pt x="556" y="288" on="0"/>
        <pt x="441" y="172" on="0"/>
        <pt x="353" y="172" on="1"/>
        <pt x="295" y="172" on="0"/>
        <pt x="242" y="196" on="1"/>
        <pt x="242" y="121" on="1"/>
        <pt x="242" y="33" on="0"/>
        <pt x="263" y="33" on="1"/>
        <pt x="321" y="33" on="1"/>
        <pt x="329" y="33" on="0"/>
        <pt x="329" y="0" on="0"/>
        <pt x="321" y="0" on="1"/>
        <pt x="199" y="1" on="1"/>
        <pt x="59" y="-2" on="1"/>
        <pt x="51" y="-2" on="0"/>
        <pt x="51" y="32" on="0"/>
        <pt x="59" y="32" on="1"/>
        <pt x="102" y="32" on="1"/>
        <pt x="127" y="32" on="0"/>
        <pt x="143" y="51" on="0"/>
        <pt x="143" y="78" on="1"/>
        <pt x="143" y="552" on="1"/>
        <pt x="143" y="640" on="0"/>
        <pt x="122" y="640" on="1"/>
        <pt x="64" y="640" on="1"/>
        <pt x="56" y="640" on="0"/>
        <pt x="56" y="673" on="0"/>
        <pt x="64" y="673" on="1"/>
      </contour>
      <contour>
        <pt x="368" y="222" on="0"/>
        <pt x="448" y="299" on="0"/>
        <pt x="448" y="411" on="0"/>
        <pt x="362" y="496" on="0"/>
        <pt x="282" y="496" on="1"/>
        <pt x="252" y="496" on="0"/>
        <pt x="252" y="477" on="1"/>
        <pt x="245" y="350" on="0"/>
        <pt x="242" y="228" on="1"/>
        <pt x="268" y="222" on="0"/>
        <pt x="299" y="222" on="1"/>
      </contour>
    </TTGlyph>
    <TTGlyph name="U" xMin="45" yMin="-13" xMax="747" yMax="675">
      <contour>
        <pt x="631" y="672" on="1"/>
        <pt x="739" y="675" on="1"/>
        <pt x="747" y="675" on="0"/>
        <pt x="747" y="641" on="0"/>
        <pt x="739" y="641" on="1"/>
        <pt x="709" y="641" on="1"/>
        <pt x="684" y="641" on="0"/>
        <pt x="669" y="622" on="0"/>
        <pt x="667" y="595" on="1"/>
        <pt x="658" y="460" on="0"/>
        <pt x="658" y="255" on="1"/>
        <pt x="658" y="129" on="0"/>
        <pt x="502" y="-13" on="0"/>
        <pt x="287" y="-13" on="0"/>
        <pt x="132" y="120" on="0"/>
        <pt x="132" y="241" on="1"/>
        <pt x="132" y="552" on="1"/>
        <pt x="132" y="640" on="0"/>
        <pt x="111" y="640" on="1"/>
        <pt x="53" y="640" on="1"/>
        <pt x="45" y="640" on="0"/>
        <pt x="45" y="673" on="0"/>
        <pt x="53" y="673" on="1"/>
        <pt x="179" y="672" on="1"/>
        <pt x="319" y="675" on="1"/>
        <pt x="327" y="675" on="0"/>
        <pt x="327" y="641" on="0"/>
        <pt x="319" y="641" on="1"/>
        <pt x="276" y="641" on="1"/>
        <pt x="251" y="641" on="0"/>
        <pt x="235" y="622" on="0"/>
        <pt x="235" y="595" on="1"/>
        <pt x="235" y="269" on="1"/>
        <pt x="235" y="163" on="0"/>
        <pt x="340" y="56" on="0"/>
        <pt x="504" y="56" on="0"/>
        <pt x="601" y="175" on="0"/>
        <pt x="601" y="290" on="1"/>
        <pt x="601" y="449" on="0"/>
        <pt x="593" y="640" on="0"/>
        <pt x="574" y="640" on="1"/>
        <pt x="518" y="640" on="1"/>
        <pt x="510" y="640" on="0"/>
        <pt x="510" y="673" on="0"/>
        <pt x="518" y="673" on="1"/>
      </contour>
    </TTGlyph>
    <TTGlyph name="Uacute" xMin="45" yMin="-13" xMax="747" yMax="939">
      <contour>
        <pt x="381" y="736" on="1"/>
        <pt x="368" y="736" on="0"/>
        <pt x="368" y="745" on="1"/>
        <pt x="368" y="748" on="0"/>
        <pt x="410" y="795" on="0"/>
        <pt x="471" y="879" on="0"/>
        <pt x="482" y="898" on="1"/>
        <pt x="507" y="939" on="0"/>
        <pt x="546" y="939" on="1"/>
        <pt x="561" y="939" on="0"/>
        <pt x="581" y="921" on="0"/>
        <pt x="581" y="907" on="1"/>
        <pt x="581" y="881" on="0"/>
        <pt x="513" y="823" on="0"/>
        <pt x="391" y="739" on="1"/>
        <pt x="386" y="736" on="0"/>
      </contour>
      <contour>
        <pt x="631" y="672" on="1"/>
        <pt x="739" y="675" on="1"/>
        <pt x="747" y="675" on="0"/>
        <pt x="747" y="641" on="0"/>
        <pt x="739" y="641" on="1"/>
        <pt x="709" y="641" on="1"/>
        <pt x="684" y="641" on="0"/>
        <pt x="669" y="622" on="0"/>
        <pt x="667" y="595" on="1"/>
        <pt x="658" y="460" on="0"/>
        <pt x="658" y="255" on="1"/>
        <pt x="658" y="129" on="0"/>
        <pt x="502" y="-13" on="0"/>
        <pt x="287" y="-13" on="0"/>
        <pt x="132" y="120" on="0"/>
        <pt x="132" y="241" on="1"/>
        <pt x="132" y="552" on="1"/>
        <pt x="132" y="640" on="0"/>
        <pt x="111" y="640" on="1"/>
        <pt x="53" y="640" on="1"/>
        <pt x="45" y="640" on="0"/>
        <pt x="45" y="673" on="0"/>
        <pt x="53" y="673" on="1"/>
        <pt x="179" y="672" on="1"/>
        <pt x="319" y="675" on="1"/>
        <pt x="327" y="675" on="0"/>
        <pt x="327" y="641" on="0"/>
        <pt x="319" y="641" on="1"/>
        <pt x="276" y="641" on="1"/>
        <pt x="251" y="641" on="0"/>
        <pt x="235" y="622" on="0"/>
        <pt x="235" y="595" on="1"/>
        <pt x="235" y="269" on="1"/>
        <pt x="235" y="163" on="0"/>
        <pt x="340" y="56" on="0"/>
        <pt x="504" y="56" on="0"/>
        <pt x="601" y="175" on="0"/>
        <pt x="601" y="290" on="1"/>
        <pt x="601" y="449" on="0"/>
        <pt x="593" y="640" on="0"/>
        <pt x="574" y="640" on="1"/>
        <pt x="518" y="640" on="1"/>
        <pt x="510" y="640" on="0"/>
        <pt x="510" y="673" on="0"/>
        <pt x="518" y="673" on="1"/>
      </contour>
    </TTGlyph>
    <TTGlyph name="Ucircumflex" xMin="45" yMin="-13" xMax="747" yMax="925">
      <contour>
        <pt x="631" y="672" on="1"/>
        <pt x="739" y="675" on="1"/>
        <pt x="747" y="675" on="0"/>
        <pt x="747" y="641" on="0"/>
        <pt x="739" y="641" on="1"/>
        <pt x="709" y="641" on="1"/>
        <pt x="684" y="641" on="0"/>
        <pt x="669" y="622" on="0"/>
        <pt x="667" y="595" on="1"/>
        <pt x="658" y="460" on="0"/>
        <pt x="658" y="255" on="1"/>
        <pt x="658" y="129" on="0"/>
        <pt x="502" y="-13" on="0"/>
        <pt x="287" y="-13" on="0"/>
        <pt x="132" y="120" on="0"/>
        <pt x="132" y="241" on="1"/>
        <pt x="132" y="552" on="1"/>
        <pt x="132" y="640" on="0"/>
        <pt x="111" y="640" on="1"/>
        <pt x="53" y="640" on="1"/>
        <pt x="45" y="640" on="0"/>
        <pt x="45" y="673" on="0"/>
        <pt x="53" y="673" on="1"/>
        <pt x="179" y="672" on="1"/>
        <pt x="319" y="675" on="1"/>
        <pt x="327" y="675" on="0"/>
        <pt x="327" y="641" on="0"/>
        <pt x="319" y="641" on="1"/>
        <pt x="276" y="641" on="1"/>
        <pt x="251" y="641" on="0"/>
        <pt x="235" y="622" on="0"/>
        <pt x="235" y="595" on="1"/>
        <pt x="235" y="269" on="1"/>
        <pt x="235" y="163" on="0"/>
        <pt x="340" y="56" on="0"/>
        <pt x="504" y="56" on="0"/>
        <pt x="601" y="175" on="0"/>
        <pt x="601" y="290" on="1"/>
        <pt x="601" y="449" on="0"/>
        <pt x="593" y="640" on="0"/>
        <pt x="574" y="640" on="1"/>
        <pt x="518" y="640" on="1"/>
        <pt x="510" y="640" on="0"/>
        <pt x="510" y="673" on="0"/>
        <pt x="518" y="673" on="1"/>
      </contour>
      <contour>
        <pt x="321" y="764" on="1"/>
        <pt x="312" y="756" on="0"/>
        <pt x="294" y="756" on="0"/>
        <pt x="291" y="764" on="1"/>
        <pt x="405" y="911" on="1"/>
        <pt x="416" y="925" on="0"/>
        <pt x="446" y="925" on="0"/>
        <pt x="460" y="911" on="1"/>
        <pt x="570" y="764" on="1"/>
        <pt x="565" y="757" on="0"/>
        <pt x="547" y="757" on="0"/>
        <pt x="539" y="764" on="1"/>
        <pt x="432" y="854" on="1"/>
      </contour>
    </TTGlyph>
    <TTGlyph name="Udieresis" xMin="45" yMin="-13" xMax="747" yMax="891">
      <contour>
        <pt x="631" y="672" on="1"/>
        <pt x="739" y="675" on="1"/>
        <pt x="747" y="675" on="0"/>
        <pt x="747" y="641" on="0"/>
        <pt x="739" y="641" on="1"/>
        <pt x="709" y="641" on="1"/>
        <pt x="684" y="641" on="0"/>
        <pt x="669" y="622" on="0"/>
        <pt x="667" y="595" on="1"/>
        <pt x="658" y="460" on="0"/>
        <pt x="658" y="255" on="1"/>
        <pt x="658" y="129" on="0"/>
        <pt x="502" y="-13" on="0"/>
        <pt x="287" y="-13" on="0"/>
        <pt x="132" y="120" on="0"/>
        <pt x="132" y="241" on="1"/>
        <pt x="132" y="552" on="1"/>
        <pt x="132" y="640" on="0"/>
        <pt x="111" y="640" on="1"/>
        <pt x="53" y="640" on="1"/>
        <pt x="45" y="640" on="0"/>
        <pt x="45" y="673" on="0"/>
        <pt x="53" y="673" on="1"/>
        <pt x="179" y="672" on="1"/>
        <pt x="319" y="675" on="1"/>
        <pt x="327" y="675" on="0"/>
        <pt x="327" y="641" on="0"/>
        <pt x="319" y="641" on="1"/>
        <pt x="276" y="641" on="1"/>
        <pt x="251" y="641" on="0"/>
        <pt x="235" y="622" on="0"/>
        <pt x="235" y="595" on="1"/>
        <pt x="235" y="269" on="1"/>
        <pt x="235" y="163" on="0"/>
        <pt x="340" y="56" on="0"/>
        <pt x="504" y="56" on="0"/>
        <pt x="601" y="175" on="0"/>
        <pt x="601" y="290" on="1"/>
        <pt x="601" y="449" on="0"/>
        <pt x="593" y="640" on="0"/>
        <pt x="574" y="640" on="1"/>
        <pt x="518" y="640" on="1"/>
        <pt x="510" y="640" on="0"/>
        <pt x="510" y="673" on="0"/>
        <pt x="518" y="673" on="1"/>
      </contour>
      <contour>
        <pt x="369" y="789" on="0"/>
        <pt x="325" y="789" on="0"/>
        <pt x="296" y="820" on="0"/>
        <pt x="296" y="863" on="0"/>
        <pt x="326" y="891" on="0"/>
        <pt x="367" y="891" on="0"/>
        <pt x="398" y="862" on="0"/>
        <pt x="398" y="820" on="0"/>
      </contour>
      <contour>
        <pt x="536" y="789" on="0"/>
        <pt x="492" y="789" on="0"/>
        <pt x="463" y="820" on="0"/>
        <pt x="463" y="862" on="0"/>
        <pt x="494" y="891" on="0"/>
        <pt x="534" y="891" on="0"/>
        <pt x="565" y="862" on="0"/>
        <pt x="565" y="820" on="0"/>
      </contour>
    </TTGlyph>
    <TTGlyph name="Ugrave" xMin="45" yMin="-13" xMax="747" yMax="939">
      <contour>
        <pt x="631" y="672" on="1"/>
        <pt x="739" y="675" on="1"/>
        <pt x="747" y="675" on="0"/>
        <pt x="747" y="641" on="0"/>
        <pt x="739" y="641" on="1"/>
        <pt x="709" y="641" on="1"/>
        <pt x="684" y="641" on="0"/>
        <pt x="669" y="622" on="0"/>
        <pt x="667" y="595" on="1"/>
        <pt x="658" y="460" on="0"/>
        <pt x="658" y="255" on="1"/>
        <pt x="658" y="129" on="0"/>
        <pt x="502" y="-13" on="0"/>
        <pt x="287" y="-13" on="0"/>
        <pt x="132" y="120" on="0"/>
        <pt x="132" y="241" on="1"/>
        <pt x="132" y="552" on="1"/>
        <pt x="132" y="640" on="0"/>
        <pt x="111" y="640" on="1"/>
        <pt x="53" y="640" on="1"/>
        <pt x="45" y="640" on="0"/>
        <pt x="45" y="673" on="0"/>
        <pt x="53" y="673" on="1"/>
        <pt x="179" y="672" on="1"/>
        <pt x="319" y="675" on="1"/>
        <pt x="327" y="675" on="0"/>
        <pt x="327" y="641" on="0"/>
        <pt x="319" y="641" on="1"/>
        <pt x="276" y="641" on="1"/>
        <pt x="251" y="641" on="0"/>
        <pt x="235" y="622" on="0"/>
        <pt x="235" y="595" on="1"/>
        <pt x="235" y="269" on="1"/>
        <pt x="235" y="163" on="0"/>
        <pt x="340" y="56" on="0"/>
        <pt x="504" y="56" on="0"/>
        <pt x="601" y="175" on="0"/>
        <pt x="601" y="290" on="1"/>
        <pt x="601" y="449" on="0"/>
        <pt x="593" y="640" on="0"/>
        <pt x="574" y="640" on="1"/>
        <pt x="518" y="640" on="1"/>
        <pt x="510" y="640" on="0"/>
        <pt x="510" y="673" on="0"/>
        <pt x="518" y="673" on="1"/>
      </contour>
      <contour>
        <pt x="286" y="907" on="1"/>
        <pt x="286" y="921" on="0"/>
        <pt x="306" y="939" on="0"/>
        <pt x="349" y="939" on="0"/>
        <pt x="378" y="910" on="0"/>
        <pt x="448" y="804" on="0"/>
        <pt x="499" y="748" on="0"/>
        <pt x="499" y="745" on="1"/>
        <pt x="499" y="736" on="0"/>
        <pt x="480" y="736" on="0"/>
        <pt x="476" y="739" on="1"/>
        <pt x="354" y="823" on="0"/>
        <pt x="286" y="881" on="0"/>
      </contour>
    </TTGlyph>
    <TTGlyph name="V" xMin="-25" yMin="-21" xMax="671" yMax="673">
      <contour>
        <pt x="551" y="671" on="1"/>
        <pt x="663" y="673" on="1"/>
        <pt x="671" y="673" on="0"/>
        <pt x="671" y="642" on="0"/>
        <pt x="663" y="642" on="1"/>
        <pt x="615" y="642" on="1"/>
        <pt x="593" y="642" on="0"/>
        <pt x="579" y="609" on="1"/>
        <pt x="539" y="515" on="0"/>
        <pt x="358" y="55" on="0"/>
        <pt x="328" y="-12" on="1"/>
        <pt x="324" y="-21" on="0"/>
        <pt x="288" y="-21" on="0"/>
        <pt x="284" y="-12" on="1"/>
        <pt x="194" y="198" on="0"/>
        <pt x="46" y="613" on="1"/>
        <pt x="37" y="641" on="0"/>
        <pt x="17" y="641" on="1"/>
        <pt x="-19" y="641" on="1"/>
        <pt x="-25" y="641" on="0"/>
        <pt x="-25" y="673" on="0"/>
        <pt x="-19" y="673" on="1"/>
        <pt x="91" y="671" on="1"/>
        <pt x="242" y="673" on="1"/>
        <pt x="252" y="673" on="0"/>
        <pt x="252" y="642" on="0"/>
        <pt x="242" y="642" on="1"/>
        <pt x="184" y="642" on="1"/>
        <pt x="153" y="642" on="0"/>
        <pt x="177" y="556" on="0"/>
        <pt x="234" y="379" on="0"/>
        <pt x="315" y="137" on="0"/>
        <pt x="327" y="100" on="1"/>
        <pt x="331" y="100" on="1"/>
        <pt x="498" y="563" on="0"/>
        <pt x="498" y="620" on="1"/>
        <pt x="498" y="641" on="0"/>
        <pt x="489" y="641" on="1"/>
        <pt x="423" y="641" on="1"/>
        <pt x="415" y="641" on="0"/>
        <pt x="415" y="673" on="0"/>
        <pt x="423" y="673" on="1"/>
      </contour>
    </TTGlyph>
    <TTGlyph name="W" xMin="-25" yMin="-21" xMax="1048" yMax="673">
      <contour>
        <pt x="928" y="671" on="1"/>
        <pt x="1040" y="673" on="1"/>
        <pt x="1048" y="673" on="0"/>
        <pt x="1048" y="642" on="0"/>
        <pt x="1040" y="642" on="1"/>
        <pt x="992" y="642" on="1"/>
        <pt x="970" y="642" on="0"/>
        <pt x="956" y="609" on="1"/>
        <pt x="917" y="516" on="0"/>
        <pt x="734" y="55" on="0"/>
        <pt x="704" y="-12" on="1"/>
        <pt x="700" y="-21" on="0"/>
        <pt x="666" y="-21" on="0"/>
        <pt x="662" y="-12" on="1"/>
        <pt x="612" y="104" on="0"/>
        <pt x="497" y="422" on="1"/>
        <pt x="474" y="364" on="0"/>
        <pt x="436" y="263" on="1"/>
        <pt x="356" y="49" on="0"/>
        <pt x="328" y="-12" on="1"/>
        <pt x="324" y="-21" on="0"/>
        <pt x="288" y="-21" on="0"/>
        <pt x="284" y="-12" on="1"/>
        <pt x="194" y="198" on="0"/>
        <pt x="46" y="613" on="1"/>
        <pt x="37" y="641" on="0"/>
        <pt x="17" y="641" on="1"/>
        <pt x="-19" y="641" on="1"/>
        <pt x="-25" y="641" on="0"/>
        <pt x="-25" y="673" on="0"/>
        <pt x="-19" y="673" on="1"/>
        <pt x="91" y="671" on="1"/>
        <pt x="242" y="673" on="1"/>
        <pt x="252" y="673" on="0"/>
        <pt x="252" y="642" on="0"/>
        <pt x="242" y="642" on="1"/>
        <pt x="184" y="642" on="1"/>
        <pt x="153" y="642" on="0"/>
        <pt x="177" y="556" on="0"/>
        <pt x="234" y="379" on="0"/>
        <pt x="315" y="137" on="0"/>
        <pt x="327" y="100" on="1"/>
        <pt x="331" y="100" on="1"/>
        <pt x="424" y="357" on="0"/>
        <pt x="468" y="500" on="1"/>
        <pt x="453" y="540" on="0"/>
        <pt x="428" y="613" on="1"/>
        <pt x="419" y="641" on="0"/>
        <pt x="399" y="641" on="1"/>
        <pt x="363" y="641" on="1"/>
        <pt x="357" y="641" on="0"/>
        <pt x="357" y="673" on="0"/>
        <pt x="363" y="673" on="1"/>
        <pt x="473" y="671" on="1"/>
        <pt x="473" y="671" on="0"/>
        <pt x="624" y="673" on="1"/>
        <pt x="634" y="673" on="0"/>
        <pt x="634" y="642" on="0"/>
        <pt x="624" y="642" on="1"/>
        <pt x="566" y="642" on="1"/>
        <pt x="535" y="642" on="0"/>
        <pt x="547" y="601" on="1"/>
        <pt x="567" y="523" on="0"/>
        <pt x="705" y="100" on="1"/>
        <pt x="709" y="100" on="1"/>
        <pt x="875" y="560" on="0"/>
        <pt x="875" y="620" on="1"/>
        <pt x="875" y="641" on="0"/>
        <pt x="866" y="641" on="1"/>
        <pt x="800" y="641" on="1"/>
        <pt x="792" y="641" on="0"/>
        <pt x="792" y="673" on="0"/>
        <pt x="800" y="673" on="1"/>
      </contour>
    </TTGlyph>
    <TTGlyph name="X" xMin="-34" yMin="-2" xMax="763" yMax="673">
      <contour>
        <pt x="747" y="0" on="1"/>
        <pt x="609" y="1" on="1"/>
        <pt x="477" y="-2" on="1"/>
        <pt x="469" y="-2" on="0"/>
        <pt x="469" y="32" on="0"/>
        <pt x="477" y="32" on="1"/>
        <pt x="511" y="32" on="1"/>
        <pt x="530" y="32" on="0"/>
        <pt x="530" y="44" on="1"/>
        <pt x="530" y="53" on="0"/>
        <pt x="485" y="117" on="0"/>
        <pt x="350" y="288" on="1"/>
        <pt x="180" y="98" on="0"/>
        <pt x="167" y="37" on="1"/>
        <pt x="165" y="30" on="0"/>
        <pt x="169" y="30" on="1"/>
        <pt x="219" y="30" on="1"/>
        <pt x="227" y="30" on="0"/>
        <pt x="227" y="0" on="0"/>
        <pt x="219" y="0" on="1"/>
        <pt x="85" y="1" on="1"/>
        <pt x="-24" y="-2" on="1"/>
        <pt x="-34" y="-2" on="0"/>
        <pt x="-34" y="31" on="0"/>
        <pt x="-24" y="31" on="1"/>
        <pt x="13" y="31" on="1"/>
        <pt x="34" y="31" on="0"/>
        <pt x="57" y="52" on="1"/>
        <pt x="131" y="121" on="0"/>
        <pt x="318" y="328" on="1"/>
        <pt x="137" y="556" on="0"/>
        <pt x="105" y="591" on="1"/>
        <pt x="82" y="619" on="0"/>
        <pt x="43" y="641" on="0"/>
        <pt x="13" y="641" on="1"/>
        <pt x="-1" y="641" on="1"/>
        <pt x="-7" y="641" on="0"/>
        <pt x="-7" y="673" on="0"/>
        <pt x="-1" y="673" on="1"/>
        <pt x="125" y="671" on="1"/>
        <pt x="264" y="673" on="1"/>
        <pt x="270" y="673" on="0"/>
        <pt x="270" y="642" on="0"/>
        <pt x="264" y="642" on="1"/>
        <pt x="216" y="642" on="1"/>
        <pt x="206" y="642" on="0"/>
        <pt x="206" y="619" on="0"/>
        <pt x="381" y="395" on="1"/>
        <pt x="502" y="535" on="0"/>
        <pt x="557" y="618" on="0"/>
        <pt x="557" y="641" on="0"/>
        <pt x="552" y="641" on="1"/>
        <pt x="515" y="641" on="1"/>
        <pt x="507" y="641" on="0"/>
        <pt x="507" y="673" on="0"/>
        <pt x="515" y="673" on="1"/>
        <pt x="631" y="671" on="1"/>
        <pt x="754" y="673" on="1"/>
        <pt x="763" y="673" on="0"/>
        <pt x="763" y="642" on="0"/>
        <pt x="754" y="642" on="1"/>
        <pt x="707" y="642" on="1"/>
        <pt x="693" y="642" on="0"/>
        <pt x="660" y="614" on="1"/>
        <pt x="591" y="556" on="0"/>
        <pt x="412" y="357" on="1"/>
        <pt x="432" y="332" on="0"/>
        <pt x="535" y="208" on="1"/>
        <pt x="662" y="58" on="0"/>
        <pt x="693" y="33" on="0"/>
        <pt x="698" y="33" on="1"/>
        <pt x="747" y="33" on="1"/>
        <pt x="758" y="33" on="0"/>
        <pt x="758" y="0" on="0"/>
      </contour>
    </TTGlyph>
    <TTGlyph name="Y" xMin="-68" yMin="-2" xMax="691" yMax="673">
      <contour>
        <pt x="310" y="1" on="1"/>
        <pt x="172" y="-2" on="1"/>
        <pt x="164" y="-2" on="0"/>
        <pt x="164" y="32" on="0"/>
        <pt x="172" y="32" on="1"/>
        <pt x="215" y="32" on="1"/>
        <pt x="240" y="32" on="0"/>
        <pt x="256" y="51" on="0"/>
        <pt x="256" y="78" on="1"/>
        <pt x="256" y="302" on="1"/>
        <pt x="257" y="343" on="0"/>
        <pt x="55" y="577" on="1"/>
        <pt x="22" y="616" on="0"/>
        <pt x="-14" y="641" on="0"/>
        <pt x="-29" y="641" on="1"/>
        <pt x="-61" y="641" on="1"/>
        <pt x="-68" y="641" on="0"/>
        <pt x="-68" y="673" on="0"/>
        <pt x="-61" y="673" on="1"/>
        <pt x="63" y="671" on="1"/>
        <pt x="204" y="673" on="1"/>
        <pt x="213" y="673" on="0"/>
        <pt x="213" y="640" on="0"/>
        <pt x="204" y="640" on="1"/>
        <pt x="134" y="640" on="1"/>
        <pt x="134" y="636" on="0"/>
        <pt x="170" y="593" on="1"/>
        <pt x="286" y="457" on="0"/>
        <pt x="324" y="379" on="1"/>
        <pt x="327" y="379" on="1"/>
        <pt x="348" y="415" on="0"/>
        <pt x="485" y="586" on="0"/>
        <pt x="502" y="620" on="0"/>
        <pt x="502" y="629" on="1"/>
        <pt x="502" y="641" on="0"/>
        <pt x="491" y="641" on="1"/>
        <pt x="452" y="641" on="1"/>
        <pt x="443" y="641" on="0"/>
        <pt x="443" y="673" on="0"/>
        <pt x="452" y="673" on="1"/>
        <pt x="570" y="671" on="1"/>
        <pt x="681" y="673" on="1"/>
        <pt x="691" y="673" on="0"/>
        <pt x="691" y="640" on="0"/>
        <pt x="681" y="640" on="1"/>
        <pt x="656" y="640" on="1"/>
        <pt x="631" y="640" on="0"/>
        <pt x="613" y="624" on="1"/>
        <pt x="540" y="563" on="0"/>
        <pt x="355" y="355" on="0"/>
        <pt x="355" y="321" on="1"/>
        <pt x="355" y="105" on="1"/>
        <pt x="355" y="33" on="0"/>
        <pt x="376" y="33" on="1"/>
        <pt x="434" y="33" on="1"/>
        <pt x="442" y="33" on="0"/>
        <pt x="442" y="0" on="0"/>
        <pt x="434" y="0" on="1"/>
      </contour>
    </TTGlyph>
    <TTGlyph name="Yacute" xMin="-68" yMin="-2" xMax="691" yMax="939">
      <contour>
        <pt x="318" y="739" on="1"/>
        <pt x="314" y="736" on="0"/>
        <pt x="295" y="736" on="0"/>
        <pt x="295" y="745" on="1"/>
        <pt x="295" y="748" on="0"/>
        <pt x="337" y="795" on="0"/>
        <pt x="398" y="879" on="0"/>
        <pt x="409" y="898" on="1"/>
        <pt x="434" y="939" on="0"/>
        <pt x="473" y="939" on="1"/>
        <pt x="488" y="939" on="0"/>
        <pt x="508" y="921" on="0"/>
        <pt x="508" y="907" on="1"/>
        <pt x="508" y="881" on="0"/>
        <pt x="440" y="823" on="0"/>
      </contour>
      <contour>
        <pt x="310" y="1" on="1"/>
        <pt x="172" y="-2" on="1"/>
        <pt x="164" y="-2" on="0"/>
        <pt x="164" y="32" on="0"/>
        <pt x="172" y="32" on="1"/>
        <pt x="215" y="32" on="1"/>
        <pt x="240" y="32" on="0"/>
        <pt x="256" y="51" on="0"/>
        <pt x="256" y="78" on="1"/>
        <pt x="256" y="302" on="1"/>
        <pt x="257" y="343" on="0"/>
        <pt x="55" y="577" on="1"/>
        <pt x="22" y="616" on="0"/>
        <pt x="-14" y="641" on="0"/>
        <pt x="-29" y="641" on="1"/>
        <pt x="-61" y="641" on="1"/>
        <pt x="-68" y="641" on="0"/>
        <pt x="-68" y="673" on="0"/>
        <pt x="-61" y="673" on="1"/>
        <pt x="63" y="671" on="1"/>
        <pt x="204" y="673" on="1"/>
        <pt x="213" y="673" on="0"/>
        <pt x="213" y="640" on="0"/>
        <pt x="204" y="640" on="1"/>
        <pt x="134" y="640" on="1"/>
        <pt x="134" y="636" on="0"/>
        <pt x="170" y="593" on="1"/>
        <pt x="286" y="457" on="0"/>
        <pt x="324" y="379" on="1"/>
        <pt x="327" y="379" on="1"/>
        <pt x="348" y="415" on="0"/>
        <pt x="485" y="586" on="0"/>
        <pt x="502" y="620" on="0"/>
        <pt x="502" y="629" on="1"/>
        <pt x="502" y="641" on="0"/>
        <pt x="491" y="641" on="1"/>
        <pt x="452" y="641" on="1"/>
        <pt x="443" y="641" on="0"/>
        <pt x="443" y="673" on="0"/>
        <pt x="452" y="673" on="1"/>
        <pt x="570" y="671" on="1"/>
        <pt x="681" y="673" on="1"/>
        <pt x="691" y="673" on="0"/>
        <pt x="691" y="640" on="0"/>
        <pt x="681" y="640" on="1"/>
        <pt x="656" y="640" on="1"/>
        <pt x="631" y="640" on="0"/>
        <pt x="613" y="624" on="1"/>
        <pt x="540" y="563" on="0"/>
        <pt x="355" y="355" on="0"/>
        <pt x="355" y="321" on="1"/>
        <pt x="355" y="105" on="1"/>
        <pt x="355" y="33" on="0"/>
        <pt x="376" y="33" on="1"/>
        <pt x="434" y="33" on="1"/>
        <pt x="442" y="33" on="0"/>
        <pt x="442" y="0" on="0"/>
        <pt x="434" y="0" on="1"/>
      </contour>
    </TTGlyph>
    <TTGlyph name="Ydieresis" xMin="-68" yMin="-2" xMax="691" yMax="890">
      <contour>
        <pt x="310" y="1" on="1"/>
        <pt x="172" y="-2" on="1"/>
        <pt x="164" y="-2" on="0"/>
        <pt x="164" y="32" on="0"/>
        <pt x="172" y="32" on="1"/>
        <pt x="215" y="32" on="1"/>
        <pt x="240" y="32" on="0"/>
        <pt x="256" y="51" on="0"/>
        <pt x="256" y="78" on="1"/>
        <pt x="256" y="302" on="1"/>
        <pt x="257" y="343" on="0"/>
        <pt x="55" y="577" on="1"/>
        <pt x="22" y="616" on="0"/>
        <pt x="-14" y="641" on="0"/>
        <pt x="-29" y="641" on="1"/>
        <pt x="-61" y="641" on="1"/>
        <pt x="-68" y="641" on="0"/>
        <pt x="-68" y="673" on="0"/>
        <pt x="-61" y="673" on="1"/>
        <pt x="63" y="671" on="1"/>
        <pt x="204" y="673" on="1"/>
        <pt x="213" y="673" on="0"/>
        <pt x="213" y="640" on="0"/>
        <pt x="204" y="640" on="1"/>
        <pt x="134" y="640" on="1"/>
        <pt x="134" y="636" on="0"/>
        <pt x="170" y="593" on="1"/>
        <pt x="286" y="457" on="0"/>
        <pt x="324" y="379" on="1"/>
        <pt x="327" y="379" on="1"/>
        <pt x="348" y="415" on="0"/>
        <pt x="485" y="586" on="0"/>
        <pt x="502" y="620" on="0"/>
        <pt x="502" y="629" on="1"/>
        <pt x="502" y="641" on="0"/>
        <pt x="491" y="641" on="1"/>
        <pt x="452" y="641" on="1"/>
        <pt x="443" y="641" on="0"/>
        <pt x="443" y="673" on="0"/>
        <pt x="452" y="673" on="1"/>
        <pt x="570" y="671" on="1"/>
        <pt x="681" y="673" on="1"/>
        <pt x="691" y="673" on="0"/>
        <pt x="691" y="640" on="0"/>
        <pt x="681" y="640" on="1"/>
        <pt x="656" y="640" on="1"/>
        <pt x="631" y="640" on="0"/>
        <pt x="613" y="624" on="1"/>
        <pt x="540" y="563" on="0"/>
        <pt x="355" y="355" on="0"/>
        <pt x="355" y="321" on="1"/>
        <pt x="355" y="105" on="1"/>
        <pt x="355" y="33" on="0"/>
        <pt x="376" y="33" on="1"/>
        <pt x="434" y="33" on="1"/>
        <pt x="442" y="33" on="0"/>
        <pt x="442" y="0" on="0"/>
        <pt x="434" y="0" on="1"/>
      </contour>
      <contour>
        <pt x="241" y="788" on="0"/>
        <pt x="197" y="788" on="0"/>
        <pt x="168" y="819" on="0"/>
        <pt x="168" y="862" on="0"/>
        <pt x="198" y="890" on="0"/>
        <pt x="239" y="890" on="0"/>
        <pt x="270" y="861" on="0"/>
        <pt x="270" y="819" on="0"/>
      </contour>
      <contour>
        <pt x="408" y="788" on="0"/>
        <pt x="364" y="788" on="0"/>
        <pt x="335" y="819" on="0"/>
        <pt x="335" y="861" on="0"/>
        <pt x="366" y="890" on="0"/>
        <pt x="406" y="890" on="0"/>
        <pt x="437" y="861" on="0"/>
        <pt x="437" y="819" on="0"/>
      </contour>
    </TTGlyph>
    <TTGlyph name="Z" xMin="31" yMin="-20" xMax="603" yMax="697">
      <contour>
        <pt x="39" y="0" on="1"/>
        <pt x="31" y="0" on="0"/>
        <pt x="31" y="24" on="0"/>
        <pt x="42" y="31" on="1"/>
        <pt x="63" y="44" on="0"/>
        <pt x="343" y="487" on="1"/>
        <pt x="436" y="634" on="1"/>
        <pt x="185" y="634" on="1"/>
        <pt x="168" y="634" on="0"/>
        <pt x="148" y="618" on="1"/>
        <pt x="111" y="586" on="0"/>
        <pt x="93" y="511" on="1"/>
        <pt x="92" y="502" on="0"/>
        <pt x="80" y="502" on="1"/>
        <pt x="56" y="502" on="0"/>
        <pt x="58" y="511" on="1"/>
        <pt x="68" y="599" on="0"/>
        <pt x="80" y="682" on="1"/>
        <pt x="82" y="697" on="0"/>
        <pt x="125" y="697" on="0"/>
        <pt x="125" y="683" on="1"/>
        <pt x="125" y="675" on="0"/>
        <pt x="129" y="671" on="0"/>
        <pt x="135" y="671" on="1"/>
        <pt x="571" y="671" on="1"/>
        <pt x="581" y="671" on="0"/>
        <pt x="581" y="660" on="1"/>
        <pt x="581" y="653" on="0"/>
        <pt x="572" y="647" on="1"/>
        <pt x="561" y="643" on="0"/>
        <pt x="366" y="339" on="0"/>
        <pt x="274" y="190" on="1"/>
        <pt x="182" y="40" on="1"/>
        <pt x="461" y="40" on="1"/>
        <pt x="525" y="40" on="0"/>
        <pt x="569" y="195" on="1"/>
        <pt x="572" y="206" on="0"/>
        <pt x="583" y="206" on="1"/>
        <pt x="602" y="206" on="0"/>
        <pt x="602" y="197" on="1"/>
        <pt x="579" y="0" on="1"/>
        <pt x="578" y="-11" on="0"/>
        <pt x="571" y="-19" on="0"/>
        <pt x="543" y="-20" on="0"/>
        <pt x="543" y="-13" on="1"/>
        <pt x="543" y="-3" on="0"/>
        <pt x="404" y="0" on="0"/>
      </contour>
    </TTGlyph>
    <TTGlyph name="Zcaron" xMin="31" yMin="-20" xMax="603" yMax="918">
      <contour>
        <pt x="39" y="0" on="1"/>
        <pt x="31" y="0" on="0"/>
        <pt x="31" y="24" on="0"/>
        <pt x="42" y="31" on="1"/>
        <pt x="63" y="44" on="0"/>
        <pt x="343" y="487" on="1"/>
        <pt x="436" y="634" on="1"/>
        <pt x="185" y="634" on="1"/>
        <pt x="168" y="634" on="0"/>
        <pt x="148" y="618" on="1"/>
        <pt x="111" y="586" on="0"/>
        <pt x="93" y="511" on="1"/>
        <pt x="92" y="502" on="0"/>
        <pt x="80" y="502" on="1"/>
        <pt x="56" y="502" on="0"/>
        <pt x="58" y="511" on="1"/>
        <pt x="68" y="599" on="0"/>
        <pt x="80" y="682" on="1"/>
        <pt x="82" y="697" on="0"/>
        <pt x="125" y="697" on="0"/>
        <pt x="125" y="683" on="1"/>
        <pt x="125" y="675" on="0"/>
        <pt x="129" y="671" on="0"/>
        <pt x="135" y="671" on="1"/>
        <pt x="571" y="671" on="1"/>
        <pt x="581" y="671" on="0"/>
        <pt x="581" y="660" on="1"/>
        <pt x="581" y="653" on="0"/>
        <pt x="572" y="647" on="1"/>
        <pt x="561" y="643" on="0"/>
        <pt x="366" y="339" on="0"/>
        <pt x="274" y="190" on="1"/>
        <pt x="182" y="40" on="1"/>
        <pt x="461" y="40" on="1"/>
        <pt x="525" y="40" on="0"/>
        <pt x="569" y="195" on="1"/>
        <pt x="572" y="206" on="0"/>
        <pt x="583" y="206" on="1"/>
        <pt x="602" y="206" on="0"/>
        <pt x="602" y="197" on="1"/>
        <pt x="579" y="0" on="1"/>
        <pt x="578" y="-11" on="0"/>
        <pt x="571" y="-19" on="0"/>
        <pt x="543" y="-20" on="0"/>
        <pt x="543" y="-13" on="1"/>
        <pt x="543" y="-3" on="0"/>
        <pt x="404" y="0" on="0"/>
      </contour>
      <contour>
        <pt x="445" y="910" on="1"/>
        <pt x="454" y="918" on="0"/>
        <pt x="472" y="918" on="0"/>
        <pt x="475" y="910" on="1"/>
        <pt x="361" y="763" on="1"/>
        <pt x="350" y="749" on="0"/>
        <pt x="320" y="749" on="0"/>
        <pt x="306" y="763" on="1"/>
        <pt x="196" y="910" on="1"/>
        <pt x="201" y="917" on="0"/>
        <pt x="219" y="917" on="0"/>
        <pt x="227" y="910" on="1"/>
        <pt x="334" y="820" on="1"/>
      </contour>
    </TTGlyph>
    <TTGlyph name="a" xMin="-36" yMin="-2" xMax="481" yMax="494">
      <contour>
        <pt x="50" y="0" on="1"/>
        <pt x="-29" y="-2" on="1"/>
        <pt x="-36" y="-2" on="0"/>
        <pt x="-36" y="24" on="0"/>
        <pt x="-29" y="24" on="1"/>
        <pt x="3" y="24" on="1"/>
        <pt x="14" y="24" on="0"/>
        <pt x="19" y="33" on="1"/>
        <pt x="42" y="71" on="0"/>
        <pt x="180" y="400" on="0"/>
        <pt x="210" y="485" on="1"/>
        <pt x="214" y="494" on="0"/>
        <pt x="245" y="494" on="0"/>
        <pt x="249" y="484" on="1"/>
        <pt x="261" y="434" on="0"/>
        <pt x="378" y="156" on="0"/>
        <pt x="422" y="63" on="1"/>
        <pt x="434" y="39" on="0"/>
        <pt x="454" y="25" on="0"/>
        <pt x="475" y="25" on="1"/>
        <pt x="481" y="25" on="0"/>
        <pt x="481" y="-2" on="0"/>
        <pt x="476" y="-2" on="1"/>
        <pt x="380" y="0" on="1"/>
        <pt x="272" y="-2" on="1"/>
        <pt x="266" y="-2" on="0"/>
        <pt x="266" y="24" on="0"/>
        <pt x="272" y="24" on="1"/>
        <pt x="320" y="24" on="1"/>
        <pt x="331" y="24" on="0"/>
        <pt x="331" y="33" on="1"/>
        <pt x="331" y="34" on="0"/>
        <pt x="275" y="187" on="1"/>
        <pt x="136" y="187" on="1"/>
        <pt x="87" y="66" on="0"/>
        <pt x="87" y="25" on="0"/>
        <pt x="99" y="25" on="1"/>
        <pt x="140" y="25" on="1"/>
        <pt x="148" y="25" on="0"/>
        <pt x="148" y="-2" on="0"/>
        <pt x="142" y="-2" on="1"/>
      </contour>
      <contour>
        <pt x="262" y="221" on="1"/>
        <pt x="259" y="230" on="0"/>
        <pt x="210" y="373" on="1"/>
        <pt x="207" y="373" on="1"/>
        <pt x="183" y="304" on="0"/>
        <pt x="150" y="221" on="1"/>
      </contour>
    </TTGlyph>
    <TTGlyph name="aacute" xMin="-36" yMin="-2" xMax="481" yMax="744">
      <contour>
        <pt x="50" y="0" on="1"/>
        <pt x="-29" y="-2" on="1"/>
        <pt x="-36" y="-2" on="0"/>
        <pt x="-36" y="24" on="0"/>
        <pt x="-29" y="24" on="1"/>
        <pt x="3" y="24" on="1"/>
        <pt x="14" y="24" on="0"/>
        <pt x="19" y="33" on="1"/>
        <pt x="42" y="71" on="0"/>
        <pt x="180" y="400" on="0"/>
        <pt x="210" y="485" on="1"/>
        <pt x="214" y="494" on="0"/>
        <pt x="245" y="494" on="0"/>
        <pt x="249" y="484" on="1"/>
        <pt x="261" y="434" on="0"/>
        <pt x="378" y="156" on="0"/>
        <pt x="422" y="63" on="1"/>
        <pt x="434" y="39" on="0"/>
        <pt x="454" y="25" on="0"/>
        <pt x="475" y="25" on="1"/>
        <pt x="481" y="25" on="0"/>
        <pt x="481" y="-2" on="0"/>
        <pt x="476" y="-2" on="1"/>
        <pt x="380" y="0" on="1"/>
        <pt x="272" y="-2" on="1"/>
        <pt x="266" y="-2" on="0"/>
        <pt x="266" y="24" on="0"/>
        <pt x="272" y="24" on="1"/>
        <pt x="320" y="24" on="1"/>
        <pt x="331" y="24" on="0"/>
        <pt x="331" y="33" on="1"/>
        <pt x="331" y="34" on="0"/>
        <pt x="275" y="187" on="1"/>
        <pt x="136" y="187" on="1"/>
        <pt x="87" y="66" on="0"/>
        <pt x="87" y="25" on="0"/>
        <pt x="99" y="25" on="1"/>
        <pt x="140" y="25" on="1"/>
        <pt x="148" y="25" on="0"/>
        <pt x="148" y="-2" on="0"/>
        <pt x="142" y="-2" on="1"/>
      </contour>
      <contour>
        <pt x="262" y="221" on="1"/>
        <pt x="259" y="230" on="0"/>
        <pt x="210" y="373" on="1"/>
        <pt x="207" y="373" on="1"/>
        <pt x="183" y="304" on="0"/>
        <pt x="150" y="221" on="1"/>
      </contour>
      <contour>
        <pt x="137" y="534" on="1"/>
        <pt x="124" y="534" on="0"/>
        <pt x="124" y="543" on="1"/>
        <pt x="124" y="546" on="0"/>
        <pt x="167" y="592" on="0"/>
        <pt x="237" y="680" on="0"/>
        <pt x="252" y="699" on="1"/>
        <pt x="286" y="744" on="0"/>
        <pt x="324" y="744" on="1"/>
        <pt x="339" y="744" on="0"/>
        <pt x="359" y="726" on="0"/>
        <pt x="359" y="712" on="1"/>
        <pt x="359" y="686" on="0"/>
        <pt x="302" y="643" on="1"/>
        <pt x="285" y="631" on="0"/>
        <pt x="147" y="537" on="1"/>
        <pt x="142" y="534" on="0"/>
      </contour>
    </TTGlyph>
    <TTGlyph name="acircumflex" xMin="-36" yMin="-2" xMax="481" yMax="691">
      <contour>
        <pt x="126" y="530" on="1"/>
        <pt x="117" y="522" on="0"/>
        <pt x="99" y="522" on="0"/>
        <pt x="96" y="530" on="1"/>
        <pt x="210" y="677" on="1"/>
        <pt x="221" y="691" on="0"/>
        <pt x="251" y="691" on="0"/>
        <pt x="265" y="677" on="1"/>
        <pt x="375" y="530" on="1"/>
        <pt x="370" y="523" on="0"/>
        <pt x="352" y="523" on="0"/>
        <pt x="344" y="530" on="1"/>
        <pt x="237" y="620" on="1"/>
      </contour>
      <contour>
        <pt x="50" y="0" on="1"/>
        <pt x="-29" y="-2" on="1"/>
        <pt x="-36" y="-2" on="0"/>
        <pt x="-36" y="24" on="0"/>
        <pt x="-29" y="24" on="1"/>
        <pt x="3" y="24" on="1"/>
        <pt x="14" y="24" on="0"/>
        <pt x="19" y="33" on="1"/>
        <pt x="42" y="71" on="0"/>
        <pt x="180" y="400" on="0"/>
        <pt x="210" y="485" on="1"/>
        <pt x="214" y="494" on="0"/>
        <pt x="245" y="494" on="0"/>
        <pt x="249" y="484" on="1"/>
        <pt x="261" y="434" on="0"/>
        <pt x="378" y="156" on="0"/>
        <pt x="422" y="63" on="1"/>
        <pt x="434" y="39" on="0"/>
        <pt x="454" y="25" on="0"/>
        <pt x="475" y="25" on="1"/>
        <pt x="481" y="25" on="0"/>
        <pt x="481" y="-2" on="0"/>
        <pt x="476" y="-2" on="1"/>
        <pt x="380" y="0" on="1"/>
        <pt x="272" y="-2" on="1"/>
        <pt x="266" y="-2" on="0"/>
        <pt x="266" y="24" on="0"/>
        <pt x="272" y="24" on="1"/>
        <pt x="320" y="24" on="1"/>
        <pt x="331" y="24" on="0"/>
        <pt x="331" y="33" on="1"/>
        <pt x="331" y="34" on="0"/>
        <pt x="275" y="187" on="1"/>
        <pt x="136" y="187" on="1"/>
        <pt x="87" y="66" on="0"/>
        <pt x="87" y="25" on="0"/>
        <pt x="99" y="25" on="1"/>
        <pt x="140" y="25" on="1"/>
        <pt x="148" y="25" on="0"/>
        <pt x="148" y="-2" on="0"/>
        <pt x="142" y="-2" on="1"/>
      </contour>
      <contour>
        <pt x="262" y="221" on="1"/>
        <pt x="259" y="230" on="0"/>
        <pt x="210" y="373" on="1"/>
        <pt x="207" y="373" on="1"/>
        <pt x="183" y="304" on="0"/>
        <pt x="150" y="221" on="1"/>
      </contour>
    </TTGlyph>
    <TTGlyph name="acute" xMin="62" yMin="534" xMax="297" yMax="744">
      <contour>
        <pt x="85" y="537" on="1"/>
        <pt x="81" y="534" on="0"/>
        <pt x="62" y="534" on="0"/>
        <pt x="62" y="543" on="1"/>
        <pt x="62" y="546" on="0"/>
        <pt x="105" y="592" on="0"/>
        <pt x="175" y="680" on="0"/>
        <pt x="190" y="699" on="1"/>
        <pt x="224" y="744" on="0"/>
        <pt x="262" y="744" on="1"/>
        <pt x="277" y="744" on="0"/>
        <pt x="297" y="726" on="0"/>
        <pt x="297" y="712" on="1"/>
        <pt x="297" y="686" on="0"/>
        <pt x="240" y="643" on="1"/>
        <pt x="223" y="631" on="0"/>
      </contour>
    </TTGlyph>
    <TTGlyph name="adieresis" xMin="-36" yMin="-2" xMax="481" yMax="657">
      <contour>
        <pt x="174" y="555" on="0"/>
        <pt x="130" y="555" on="0"/>
        <pt x="101" y="586" on="0"/>
        <pt x="101" y="629" on="0"/>
        <pt x="131" y="657" on="0"/>
        <pt x="172" y="657" on="0"/>
        <pt x="203" y="628" on="0"/>
        <pt x="203" y="586" on="0"/>
      </contour>
      <contour>
        <pt x="341" y="555" on="0"/>
        <pt x="297" y="555" on="0"/>
        <pt x="268" y="586" on="0"/>
        <pt x="268" y="628" on="0"/>
        <pt x="299" y="657" on="0"/>
        <pt x="339" y="657" on="0"/>
        <pt x="370" y="628" on="0"/>
        <pt x="370" y="586" on="0"/>
      </contour>
      <contour>
        <pt x="50" y="0" on="1"/>
        <pt x="-29" y="-2" on="1"/>
        <pt x="-36" y="-2" on="0"/>
        <pt x="-36" y="24" on="0"/>
        <pt x="-29" y="24" on="1"/>
        <pt x="3" y="24" on="1"/>
        <pt x="14" y="24" on="0"/>
        <pt x="19" y="33" on="1"/>
        <pt x="42" y="71" on="0"/>
        <pt x="180" y="400" on="0"/>
        <pt x="210" y="485" on="1"/>
        <pt x="214" y="494" on="0"/>
        <pt x="245" y="494" on="0"/>
        <pt x="249" y="484" on="1"/>
        <pt x="261" y="434" on="0"/>
        <pt x="378" y="156" on="0"/>
        <pt x="422" y="63" on="1"/>
        <pt x="434" y="39" on="0"/>
        <pt x="454" y="25" on="0"/>
        <pt x="475" y="25" on="1"/>
        <pt x="481" y="25" on="0"/>
        <pt x="481" y="-2" on="0"/>
        <pt x="476" y="-2" on="1"/>
        <pt x="380" y="0" on="1"/>
        <pt x="272" y="-2" on="1"/>
        <pt x="266" y="-2" on="0"/>
        <pt x="266" y="24" on="0"/>
        <pt x="272" y="24" on="1"/>
        <pt x="320" y="24" on="1"/>
        <pt x="331" y="24" on="0"/>
        <pt x="331" y="33" on="1"/>
        <pt x="331" y="34" on="0"/>
        <pt x="275" y="187" on="1"/>
        <pt x="136" y="187" on="1"/>
        <pt x="87" y="66" on="0"/>
        <pt x="87" y="25" on="0"/>
        <pt x="99" y="25" on="1"/>
        <pt x="140" y="25" on="1"/>
        <pt x="148" y="25" on="0"/>
        <pt x="148" y="-2" on="0"/>
        <pt x="142" y="-2" on="1"/>
      </contour>
      <contour>
        <pt x="262" y="221" on="1"/>
        <pt x="259" y="230" on="0"/>
        <pt x="210" y="373" on="1"/>
        <pt x="207" y="373" on="1"/>
        <pt x="183" y="304" on="0"/>
        <pt x="150" y="221" on="1"/>
      </contour>
    </TTGlyph>
    <TTGlyph name="ae" xMin="-40" yMin="-21" xMax="677" yMax="503">
      <contour>
        <pt x="263" y="483" on="1"/>
        <pt x="400" y="481" on="1"/>
        <pt x="607" y="481" on="1"/>
        <pt x="607" y="497" on="1"/>
        <pt x="607" y="503" on="0"/>
        <pt x="634" y="503" on="0"/>
        <pt x="634" y="497" on="1"/>
        <pt x="634" y="418" on="0"/>
        <pt x="641" y="384" on="1"/>
        <pt x="643" y="378" on="0"/>
        <pt x="630" y="378" on="1"/>
        <pt x="613" y="378" on="0"/>
        <pt x="613" y="384" on="1"/>
        <pt x="599" y="430" on="0"/>
        <pt x="586" y="436" on="1"/>
        <pt x="544" y="451" on="0"/>
        <pt x="464" y="451" on="1"/>
        <pt x="450" y="450" on="0"/>
        <pt x="440" y="436" on="0"/>
        <pt x="440" y="418" on="1"/>
        <pt x="440" y="263" on="1"/>
        <pt x="566" y="267" on="0"/>
        <pt x="568" y="268" on="1"/>
        <pt x="575" y="310" on="1"/>
        <pt x="577" y="315" on="0"/>
        <pt x="602" y="315" on="0"/>
        <pt x="602" y="308" on="1"/>
        <pt x="598" y="279" on="0"/>
        <pt x="598" y="208" on="0"/>
        <pt x="602" y="179" on="1"/>
        <pt x="602" y="173" on="0"/>
        <pt x="575" y="173" on="0"/>
        <pt x="575" y="177" on="1"/>
        <pt x="567" y="220" on="1"/>
        <pt x="555" y="227" on="0"/>
        <pt x="440" y="231" on="1"/>
        <pt x="440" y="107" on="1"/>
        <pt x="440" y="32" on="0"/>
        <pt x="460" y="32" on="1"/>
        <pt x="492" y="32" on="1"/>
        <pt x="602" y="34" on="0"/>
        <pt x="644" y="63" on="1"/>
        <pt x="649" y="102" on="1"/>
        <pt x="650" y="108" on="0"/>
        <pt x="668" y="108" on="0"/>
        <pt x="671" y="108" on="1"/>
        <pt x="677" y="106" on="0"/>
        <pt x="677" y="102" on="1"/>
        <pt x="671" y="60" on="0"/>
        <pt x="671" y="-16" on="1"/>
        <pt x="671" y="-21" on="0"/>
        <pt x="644" y="-21" on="0"/>
        <pt x="644" y="-16" on="1"/>
        <pt x="644" y="0" on="1"/>
        <pt x="466" y="0" on="1"/>
        <pt x="296" y="-2" on="1"/>
        <pt x="289" y="-2" on="0"/>
        <pt x="289" y="28" on="0"/>
        <pt x="295" y="28" on="1"/>
        <pt x="340" y="28" on="1"/>
        <pt x="351" y="28" on="0"/>
        <pt x="355" y="37" on="0"/>
        <pt x="355" y="57" on="1"/>
        <pt x="355" y="231" on="1"/>
        <pt x="227" y="232" on="1"/>
        <pt x="212" y="207" on="0"/>
        <pt x="146" y="117" on="0"/>
        <pt x="101" y="54" on="0"/>
        <pt x="101" y="46" on="1"/>
        <pt x="101" y="26" on="0"/>
        <pt x="113" y="26" on="1"/>
        <pt x="142" y="25" on="1"/>
        <pt x="150" y="25" on="0"/>
        <pt x="150" y="-2" on="0"/>
        <pt x="144" y="-2" on="1"/>
        <pt x="52" y="0" on="1"/>
        <pt x="-33" y="-2" on="1"/>
        <pt x="-40" y="-2" on="0"/>
        <pt x="-40" y="24" on="0"/>
        <pt x="-33" y="24" on="1"/>
        <pt x="-1" y="24" on="1"/>
        <pt x="14" y="24" on="0"/>
        <pt x="30" y="49" on="0"/>
        <pt x="92" y="130" on="1"/>
        <pt x="258" y="347" on="0"/>
        <pt x="299" y="440" on="1"/>
        <pt x="300" y="445" on="0"/>
        <pt x="300" y="452" on="0"/>
        <pt x="286" y="452" on="1"/>
        <pt x="261" y="453" on="1"/>
        <pt x="253" y="454" on="0"/>
        <pt x="252" y="462" on="0"/>
        <pt x="256" y="474" on="0"/>
        <pt x="255" y="480" on="0"/>
        <pt x="257" y="483" on="0"/>
      </contour>
      <contour>
        <pt x="355" y="373" on="1"/>
        <pt x="355" y="427" on="0"/>
        <pt x="348" y="439" on="1"/>
        <pt x="248" y="266" on="1"/>
        <pt x="355" y="262" on="1"/>
      </contour>
    </TTGlyph>
    <TTGlyph name="agrave" xMin="-36" yMin="-2" xMax="481" yMax="737">
      <contour>
        <pt x="129" y="705" on="1"/>
        <pt x="129" y="719" on="0"/>
        <pt x="149" y="737" on="0"/>
        <pt x="192" y="737" on="0"/>
        <pt x="221" y="708" on="0"/>
        <pt x="291" y="602" on="0"/>
        <pt x="342" y="546" on="0"/>
        <pt x="342" y="543" on="1"/>
        <pt x="342" y="534" on="0"/>
        <pt x="329" y="534" on="1"/>
        <pt x="324" y="534" on="0"/>
        <pt x="319" y="537" on="1"/>
        <pt x="197" y="621" on="0"/>
        <pt x="129" y="679" on="0"/>
      </contour>
      <contour>
        <pt x="50" y="0" on="1"/>
        <pt x="-29" y="-2" on="1"/>
        <pt x="-36" y="-2" on="0"/>
        <pt x="-36" y="24" on="0"/>
        <pt x="-29" y="24" on="1"/>
        <pt x="3" y="24" on="1"/>
        <pt x="14" y="24" on="0"/>
        <pt x="19" y="33" on="1"/>
        <pt x="42" y="71" on="0"/>
        <pt x="180" y="400" on="0"/>
        <pt x="210" y="485" on="1"/>
        <pt x="214" y="494" on="0"/>
        <pt x="245" y="494" on="0"/>
        <pt x="249" y="484" on="1"/>
        <pt x="261" y="434" on="0"/>
        <pt x="378" y="156" on="0"/>
        <pt x="422" y="63" on="1"/>
        <pt x="434" y="39" on="0"/>
        <pt x="454" y="25" on="0"/>
        <pt x="475" y="25" on="1"/>
        <pt x="481" y="25" on="0"/>
        <pt x="481" y="-2" on="0"/>
        <pt x="476" y="-2" on="1"/>
        <pt x="380" y="0" on="1"/>
        <pt x="272" y="-2" on="1"/>
        <pt x="266" y="-2" on="0"/>
        <pt x="266" y="24" on="0"/>
        <pt x="272" y="24" on="1"/>
        <pt x="320" y="24" on="1"/>
        <pt x="331" y="24" on="0"/>
        <pt x="331" y="33" on="1"/>
        <pt x="331" y="34" on="0"/>
        <pt x="275" y="187" on="1"/>
        <pt x="136" y="187" on="1"/>
        <pt x="87" y="66" on="0"/>
        <pt x="87" y="25" on="0"/>
        <pt x="99" y="25" on="1"/>
        <pt x="140" y="25" on="1"/>
        <pt x="148" y="25" on="0"/>
        <pt x="148" y="-2" on="0"/>
        <pt x="142" y="-2" on="1"/>
        <pt x="142" y="-2" on="0"/>
      </contour>
      <contour>
        <pt x="262" y="221" on="1"/>
        <pt x="259" y="230" on="0"/>
        <pt x="210" y="373" on="1"/>
        <pt x="207" y="373" on="1"/>
        <pt x="183" y="304" on="0"/>
        <pt x="150" y="221" on="1"/>
      </contour>
    </TTGlyph>
    <TTGlyph name="ampersand" xMin="54" yMin="-12" xMax="707" yMax="562">
      <contour>
        <pt x="113" y="-12" on="0"/>
        <pt x="54" y="55" on="0"/>
        <pt x="54" y="147" on="0"/>
        <pt x="132" y="235" on="0"/>
        <pt x="180" y="255" on="1"/>
        <pt x="127" y="330" on="0"/>
        <pt x="127" y="446" on="0"/>
        <pt x="220" y="522" on="0"/>
        <pt x="319" y="522" on="0"/>
        <pt x="374" y="476" on="0"/>
        <pt x="374" y="380" on="0"/>
        <pt x="332" y="340" on="1"/>
        <pt x="488" y="340" on="0"/>
        <pt x="626" y="403" on="0"/>
        <pt x="626" y="497" on="0"/>
        <pt x="583" y="545" on="1"/>
        <pt x="601" y="562" on="0"/>
        <pt x="660" y="562" on="0"/>
        <pt x="707" y="511" on="0"/>
        <pt x="707" y="417" on="0"/>
        <pt x="600" y="331" on="0"/>
        <pt x="484" y="318" on="1"/>
        <pt x="470" y="216" on="0"/>
        <pt x="419" y="137" on="1"/>
        <pt x="488" y="96" on="0"/>
        <pt x="539" y="96" on="1"/>
        <pt x="572" y="96" on="0"/>
        <pt x="618" y="113" on="0"/>
        <pt x="635" y="134" on="0"/>
        <pt x="648" y="151" on="0"/>
        <pt x="651" y="151" on="1"/>
        <pt x="659" y="151" on="0"/>
        <pt x="659" y="142" on="1"/>
        <pt x="659" y="122" on="0"/>
        <pt x="564" y="22" on="0"/>
        <pt x="459" y="22" on="0"/>
        <pt x="370" y="78" on="1"/>
        <pt x="324" y="34" on="0"/>
        <pt x="221" y="-12" on="0"/>
        <pt x="178" y="-12" on="1"/>
      </contour>
      <contour>
        <pt x="185" y="412" on="1"/>
        <pt x="185" y="364" on="0"/>
        <pt x="308" y="212" on="0"/>
        <pt x="388" y="157" on="1"/>
        <pt x="411" y="208" on="0"/>
        <pt x="411" y="269" on="1"/>
        <pt x="411" y="290" on="0"/>
        <pt x="408" y="313" on="1"/>
        <pt x="343" y="313" on="0"/>
        <pt x="289" y="318" on="1"/>
        <pt x="312" y="356" on="0"/>
        <pt x="312" y="437" on="0"/>
        <pt x="273" y="475" on="0"/>
        <pt x="221" y="475" on="0"/>
        <pt x="185" y="442" on="0"/>
      </contour>
      <contour>
        <pt x="233" y="46" on="1"/>
        <pt x="294" y="46" on="0"/>
        <pt x="345" y="95" on="1"/>
        <pt x="254" y="159" on="0"/>
        <pt x="195" y="235" on="1"/>
        <pt x="138" y="192" on="0"/>
        <pt x="138" y="129" on="1"/>
        <pt x="138" y="95" on="0"/>
        <pt x="191" y="46" on="0"/>
      </contour>
    </TTGlyph>
    <TTGlyph name="aring" xMin="-36" yMin="-2" xMax="481" yMax="706">
      <contour>
        <pt x="50" y="0" on="1"/>
        <pt x="-29" y="-2" on="1"/>
        <pt x="-36" y="-2" on="0"/>
        <pt x="-36" y="24" on="0"/>
        <pt x="-29" y="24" on="1"/>
        <pt x="3" y="24" on="1"/>
        <pt x="14" y="24" on="0"/>
        <pt x="19" y="33" on="1"/>
        <pt x="42" y="71" on="0"/>
        <pt x="180" y="400" on="0"/>
        <pt x="210" y="485" on="1"/>
        <pt x="214" y="494" on="0"/>
        <pt x="245" y="494" on="0"/>
        <pt x="249" y="484" on="1"/>
        <pt x="261" y="434" on="0"/>
        <pt x="378" y="156" on="0"/>
        <pt x="422" y="63" on="1"/>
        <pt x="434" y="39" on="0"/>
        <pt x="454" y="25" on="0"/>
        <pt x="475" y="25" on="1"/>
        <pt x="481" y="25" on="0"/>
        <pt x="481" y="-2" on="0"/>
        <pt x="476" y="-2" on="1"/>
        <pt x="380" y="0" on="1"/>
        <pt x="272" y="-2" on="1"/>
        <pt x="266" y="-2" on="0"/>
        <pt x="266" y="24" on="0"/>
        <pt x="272" y="24" on="1"/>
        <pt x="320" y="24" on="1"/>
        <pt x="331" y="24" on="0"/>
        <pt x="331" y="33" on="1"/>
        <pt x="331" y="34" on="0"/>
        <pt x="275" y="187" on="1"/>
        <pt x="136" y="187" on="1"/>
        <pt x="87" y="66" on="0"/>
        <pt x="87" y="25" on="0"/>
        <pt x="99" y="25" on="1"/>
        <pt x="140" y="25" on="1"/>
        <pt x="148" y="25" on="0"/>
        <pt x="148" y="-2" on="0"/>
        <pt x="142" y="-2" on="1"/>
      </contour>
      <contour>
        <pt x="262" y="221" on="1"/>
        <pt x="259" y="230" on="0"/>
        <pt x="210" y="373" on="1"/>
        <pt x="207" y="373" on="1"/>
        <pt x="183" y="304" on="0"/>
        <pt x="150" y="221" on="1"/>
      </contour>
      <contour>
        <pt x="313" y="578" on="0"/>
        <pt x="259" y="525" on="0"/>
        <pt x="181" y="525" on="0"/>
        <pt x="126" y="579" on="0"/>
        <pt x="126" y="653" on="0"/>
        <pt x="181" y="706" on="0"/>
        <pt x="256" y="706" on="0"/>
        <pt x="313" y="655" on="0"/>
      </contour>
      <contour>
        <pt x="160" y="590" on="0"/>
        <pt x="196" y="554" on="0"/>
        <pt x="245" y="554" on="0"/>
        <pt x="279" y="591" on="0"/>
        <pt x="279" y="641" on="0"/>
        <pt x="244" y="678" on="0"/>
        <pt x="193" y="678" on="0"/>
        <pt x="160" y="641" on="0"/>
      </contour>
    </TTGlyph>
    <TTGlyph name="asciicircum" xMin="35" yMin="251" xMax="474" yMax="688">
      <contour>
        <pt x="54" y="251" on="1"/>
        <pt x="46" y="251" on="0"/>
        <pt x="35" y="254" on="1"/>
        <pt x="192" y="558" on="0"/>
        <pt x="252" y="687" on="0"/>
        <pt x="261" y="688" on="1"/>
        <pt x="272" y="688" on="0"/>
        <pt x="309" y="610" on="1"/>
        <pt x="465" y="296" on="1"/>
        <pt x="474" y="280" on="0"/>
        <pt x="474" y="269" on="1"/>
        <pt x="474" y="253" on="0"/>
        <pt x="431" y="251" on="1"/>
        <pt x="260" y="589" on="1"/>
        <pt x="258" y="589" on="1"/>
        <pt x="103" y="284" on="1"/>
        <pt x="82" y="251" on="0"/>
      </contour>
    </TTGlyph>
    <TTGlyph name="asciitilde" xMin="36" yMin="158" xMax="404" yMax="394">
      <contour>
        <pt x="176" y="310" on="1"/>
        <pt x="269" y="302" on="1"/>
        <pt x="311" y="302" on="0"/>
        <pt x="370" y="343" on="0"/>
        <pt x="378" y="386" on="1"/>
        <pt x="379" y="394" on="0"/>
        <pt x="389" y="394" on="1"/>
        <pt x="404" y="394" on="0"/>
        <pt x="404" y="378" on="1"/>
        <pt x="404" y="320" on="0"/>
        <pt x="335" y="241" on="0"/>
        <pt x="274" y="241" on="1"/>
        <pt x="256" y="241" on="0"/>
        <pt x="188" y="253" on="0"/>
        <pt x="173" y="253" on="1"/>
        <pt x="132" y="253" on="0"/>
        <pt x="71" y="208" on="0"/>
        <pt x="63" y="166" on="1"/>
        <pt x="61" y="158" on="0"/>
        <pt x="46" y="158" on="0"/>
        <pt x="36" y="168" on="0"/>
        <pt x="36" y="177" on="1"/>
        <pt x="38" y="237" on="0"/>
        <pt x="114" y="310" on="0"/>
      </contour>
    </TTGlyph>
    <TTGlyph name="asterisk" xMin="64" yMin="269" xMax="432" yMax="673">
      <contour>
        <pt x="78" y="545" on="1"/>
        <pt x="69" y="550" on="0"/>
        <pt x="69" y="573" on="0"/>
        <pt x="85" y="591" on="0"/>
        <pt x="100" y="591" on="0"/>
        <pt x="105" y="588" on="1"/>
        <pt x="232" y="496" on="1"/>
        <pt x="228" y="658" on="1"/>
        <pt x="228" y="664" on="0"/>
        <pt x="244" y="673" on="0"/>
        <pt x="252" y="673" on="1"/>
        <pt x="271" y="673" on="0"/>
        <pt x="271" y="655" on="1"/>
        <pt x="271" y="651" on="0"/>
        <pt x="270" y="633" on="1"/>
        <pt x="265" y="545" on="0"/>
        <pt x="264" y="495" on="1"/>
        <pt x="400" y="579" on="1"/>
        <pt x="406" y="582" on="0"/>
        <pt x="418" y="582" on="0"/>
        <pt x="430" y="570" on="0"/>
        <pt x="430" y="550" on="0"/>
        <pt x="419" y="545" on="1"/>
        <pt x="278" y="473" on="1"/>
        <pt x="420" y="404" on="1"/>
        <pt x="432" y="397" on="0"/>
        <pt x="432" y="375" on="0"/>
        <pt x="416" y="359" on="0"/>
        <pt x="400" y="359" on="0"/>
        <pt x="394" y="362" on="1"/>
        <pt x="263" y="449" on="1"/>
        <pt x="270" y="284" on="1"/>
        <pt x="270" y="269" on="0"/>
        <pt x="226" y="269" on="0"/>
        <pt x="226" y="286" on="1"/>
        <pt x="233" y="446" on="1"/>
        <pt x="96" y="358" on="1"/>
        <pt x="93" y="356" on="0"/>
        <pt x="78" y="356" on="0"/>
        <pt x="64" y="372" on="0"/>
        <pt x="64" y="393" on="0"/>
        <pt x="74" y="397" on="1"/>
        <pt x="219" y="471" on="1"/>
      </contour>
    </TTGlyph>
    <TTGlyph name="at" xMin="63" yMin="-212" xMax="826" yMax="588">
      <contour>
        <pt x="357" y="16" on="1"/>
        <pt x="237" y="28" on="0"/>
        <pt x="197" y="28" on="1"/>
        <pt x="191" y="28" on="0"/>
        <pt x="191" y="41" on="1"/>
        <pt x="192" y="44" on="0"/>
        <pt x="198" y="53" on="0"/>
        <pt x="199" y="53" on="1"/>
        <pt x="227" y="54" on="1"/>
        <pt x="238" y="54" on="0"/>
        <pt x="242" y="61" on="1"/>
        <pt x="272" y="120" on="0"/>
        <pt x="300" y="187" on="1"/>
        <pt x="218" y="170" on="0"/>
        <pt x="123" y="72" on="0"/>
        <pt x="123" y="14" on="1"/>
        <pt x="123" y="-58" on="0"/>
        <pt x="258" y="-164" on="0"/>
        <pt x="390" y="-164" on="1"/>
        <pt x="480" y="-164" on="0"/>
        <pt x="625" y="-104" on="0"/>
        <pt x="670" y="-54" on="1"/>
        <pt x="762" y="47" on="0"/>
        <pt x="762" y="182" on="1"/>
        <pt x="762" y="275" on="0"/>
        <pt x="680" y="440" on="0"/>
        <pt x="510" y="549" on="0"/>
        <pt x="398" y="549" on="1"/>
        <pt x="344" y="549" on="0"/>
        <pt x="262" y="520" on="0"/>
        <pt x="220" y="492" on="0"/>
        <pt x="210" y="492" on="0"/>
        <pt x="202" y="502" on="0"/>
        <pt x="202" y="517" on="0"/>
        <pt x="217" y="528" on="1"/>
        <pt x="254" y="555" on="0"/>
        <pt x="374" y="588" on="0"/>
        <pt x="427" y="588" on="1"/>
        <pt x="549" y="588" on="0"/>
        <pt x="735" y="469" on="0"/>
        <pt x="826" y="289" on="0"/>
        <pt x="826" y="112" on="0"/>
        <pt x="769" y="-28" on="0"/>
        <pt x="660" y="-143" on="0"/>
        <pt x="481" y="-212" on="0"/>
        <pt x="369" y="-212" on="1"/>
        <pt x="216" y="-212" on="0"/>
        <pt x="63" y="-87" on="0"/>
        <pt x="63" y="84" on="0"/>
        <pt x="203" y="218" on="0"/>
        <pt x="316" y="227" on="1"/>
        <pt x="338" y="281" on="0"/>
        <pt x="393" y="443" on="0"/>
        <pt x="396" y="450" on="0"/>
        <pt x="401" y="464" on="0"/>
        <pt x="403" y="471" on="0"/>
        <pt x="405" y="476" on="1"/>
        <pt x="411" y="491" on="0"/>
        <pt x="415" y="494" on="0"/>
        <pt x="417" y="496" on="1"/>
        <pt x="420" y="498" on="0"/>
        <pt x="435" y="498" on="0"/>
        <pt x="444" y="484" on="0"/>
        <pt x="452" y="459" on="1"/>
        <pt x="485" y="355" on="0"/>
        <pt x="592" y="109" on="1"/>
        <pt x="609" y="71" on="0"/>
        <pt x="634" y="42" on="0"/>
        <pt x="658" y="42" on="1"/>
        <pt x="666" y="42" on="0"/>
        <pt x="666" y="15" on="0"/>
        <pt x="659" y="15" on="1"/>
        <pt x="561" y="17" on="1"/>
        <pt x="460" y="15" on="1"/>
        <pt x="451" y="15" on="0"/>
        <pt x="451" y="41" on="0"/>
        <pt x="462" y="41" on="1"/>
        <pt x="501" y="41" on="1"/>
        <pt x="516" y="41" on="0"/>
        <pt x="516" y="50" on="1"/>
        <pt x="516" y="56" on="0"/>
        <pt x="480" y="159" on="0"/>
        <pt x="472" y="183" on="1"/>
        <pt x="424" y="194" on="0"/>
        <pt x="351" y="194" on="0"/>
        <pt x="340" y="193" on="1"/>
        <pt x="316" y="124" on="0"/>
        <pt x="308" y="67" on="1"/>
        <pt x="308" y="46" on="0"/>
        <pt x="319" y="46" on="1"/>
        <pt x="357" y="43" on="1"/>
        <pt x="364" y="43" on="0"/>
        <pt x="362" y="16" on="0"/>
      </contour>
      <contour>
        <pt x="463" y="212" on="1"/>
        <pt x="416" y="364" on="0"/>
        <pt x="412" y="378" on="1"/>
        <pt x="408" y="378" on="1"/>
        <pt x="397" y="345" on="0"/>
        <pt x="353" y="228" on="1"/>
        <pt x="407" y="226" on="0"/>
      </contour>
    </TTGlyph>
    <TTGlyph name="atilde" xMin="-36" yMin="-2" xMax="481" yMax="739">
      <contour>
        <pt x="95" y="534" on="1"/>
        <pt x="93" y="526" on="0"/>
        <pt x="78" y="526" on="0"/>
        <pt x="68" y="536" on="0"/>
        <pt x="68" y="545" on="1"/>
        <pt x="71" y="612" on="0"/>
        <pt x="135" y="674" on="0"/>
        <pt x="172" y="674" on="1"/>
        <pt x="194" y="674" on="0"/>
        <pt x="263" y="661" on="0"/>
        <pt x="301" y="661" on="0"/>
        <pt x="325" y="664" on="0"/>
        <pt x="339" y="670" on="1"/>
        <pt x="367" y="684" on="0"/>
        <pt x="375" y="731" on="1"/>
        <pt x="376" y="739" on="0"/>
        <pt x="386" y="739" on="1"/>
        <pt x="402" y="739" on="0"/>
        <pt x="401" y="721" on="1"/>
        <pt x="398" y="651" on="0"/>
        <pt x="337" y="590" on="0"/>
        <pt x="297" y="590" on="1"/>
        <pt x="277" y="590" on="0"/>
        <pt x="208" y="603" on="0"/>
        <pt x="151" y="603" on="0"/>
        <pt x="103" y="576" on="0"/>
      </contour>
      <contour>
        <pt x="50" y="0" on="1"/>
        <pt x="-29" y="-2" on="1"/>
        <pt x="-36" y="-2" on="0"/>
        <pt x="-36" y="24" on="0"/>
        <pt x="-29" y="24" on="1"/>
        <pt x="3" y="24" on="1"/>
        <pt x="14" y="24" on="0"/>
        <pt x="19" y="33" on="1"/>
        <pt x="42" y="71" on="0"/>
        <pt x="180" y="400" on="0"/>
        <pt x="210" y="485" on="1"/>
        <pt x="214" y="494" on="0"/>
        <pt x="245" y="494" on="0"/>
        <pt x="249" y="484" on="1"/>
        <pt x="261" y="434" on="0"/>
        <pt x="378" y="156" on="0"/>
        <pt x="422" y="63" on="1"/>
        <pt x="434" y="39" on="0"/>
        <pt x="454" y="25" on="0"/>
        <pt x="475" y="25" on="1"/>
        <pt x="481" y="25" on="0"/>
        <pt x="481" y="-2" on="0"/>
        <pt x="476" y="-2" on="1"/>
        <pt x="380" y="0" on="1"/>
        <pt x="272" y="-2" on="1"/>
        <pt x="266" y="-2" on="0"/>
        <pt x="266" y="24" on="0"/>
        <pt x="272" y="24" on="1"/>
        <pt x="320" y="24" on="1"/>
        <pt x="331" y="24" on="0"/>
        <pt x="331" y="33" on="1"/>
        <pt x="331" y="34" on="0"/>
        <pt x="275" y="187" on="1"/>
        <pt x="136" y="187" on="1"/>
        <pt x="87" y="66" on="0"/>
        <pt x="87" y="25" on="0"/>
        <pt x="99" y="25" on="1"/>
        <pt x="140" y="25" on="1"/>
        <pt x="148" y="25" on="0"/>
        <pt x="148" y="-2" on="0"/>
        <pt x="142" y="-2" on="1"/>
      </contour>
      <contour>
        <pt x="262" y="221" on="1"/>
        <pt x="259" y="230" on="0"/>
        <pt x="210" y="373" on="1"/>
        <pt x="207" y="373" on="1"/>
        <pt x="183" y="304" on="0"/>
        <pt x="150" y="221" on="1"/>
      </contour>
    </TTGlyph>
    <TTGlyph name="b" xMin="38" yMin="-2" xMax="459" yMax="483">
      <contour>
        <pt x="154" y="0" on="1"/>
        <pt x="47" y="-2" on="1"/>
        <pt x="40" y="-2" on="0"/>
        <pt x="40" y="28" on="0"/>
        <pt x="45" y="28" on="1"/>
        <pt x="94" y="28" on="1"/>
        <pt x="106" y="28" on="0"/>
        <pt x="106" y="45" on="1"/>
        <pt x="106" y="373" on="1"/>
        <pt x="106" y="452" on="0"/>
        <pt x="84" y="452" on="1"/>
        <pt x="49" y="452" on="1"/>
        <pt x="38" y="452" on="0"/>
        <pt x="38" y="483" on="0"/>
        <pt x="47" y="483" on="1"/>
        <pt x="136" y="481" on="0"/>
        <pt x="320" y="481" on="0"/>
        <pt x="421" y="409" on="0"/>
        <pt x="421" y="358" on="1"/>
        <pt x="421" y="321" on="0"/>
        <pt x="354" y="261" on="0"/>
        <pt x="308" y="252" on="1"/>
        <pt x="308" y="250" on="1"/>
        <pt x="374" y="238" on="0"/>
        <pt x="459" y="169" on="0"/>
        <pt x="459" y="74" on="0"/>
        <pt x="339" y="0" on="0"/>
        <pt x="243" y="0" on="1"/>
      </contour>
      <contour>
        <pt x="352" y="126" on="1"/>
        <pt x="352" y="224" on="0"/>
        <pt x="191" y="233" on="1"/>
        <pt x="191" y="97" on="1"/>
        <pt x="191" y="32" on="0"/>
        <pt x="211" y="32" on="1"/>
        <pt x="238" y="32" on="1"/>
        <pt x="293" y="32" on="0"/>
        <pt x="352" y="84" on="0"/>
      </contour>
      <contour>
        <pt x="211" y="451" on="1"/>
        <pt x="191" y="451" on="0"/>
        <pt x="191" y="418" on="1"/>
        <pt x="191" y="269" on="1"/>
        <pt x="202" y="267" on="0"/>
        <pt x="224" y="267" on="1"/>
        <pt x="273" y="267" on="0"/>
        <pt x="327" y="317" on="0"/>
        <pt x="327" y="392" on="0"/>
        <pt x="271" y="451" on="0"/>
      </contour>
    </TTGlyph>
    <TTGlyph name="backslash" xMin="-144" yMin="-137" xMax="376" yMax="766">
      <contour>
        <pt x="-144" y="749" on="1"/>
        <pt x="-130" y="766" on="0"/>
        <pt x="-101" y="766" on="0"/>
        <pt x="-90" y="746" on="1"/>
        <pt x="376" y="-120" on="1"/>
        <pt x="359" y="-137" on="0"/>
        <pt x="332" y="-137" on="0"/>
        <pt x="320" y="-113" on="1"/>
      </contour>
    </TTGlyph>
    <TTGlyph name="bar" xMin="80" yMin="-151" xMax="123" yMax="753">
      <contour>
        <pt x="96" y="-151" on="1"/>
        <pt x="89" y="-151" on="0"/>
        <pt x="80" y="-147" on="1"/>
        <pt x="80" y="721" on="1"/>
        <pt x="80" y="753" on="0"/>
        <pt x="107" y="753" on="1"/>
        <pt x="123" y="749" on="1"/>
        <pt x="120" y="-121" on="1"/>
        <pt x="120" y="-151" on="0"/>
      </contour>
    </TTGlyph>
    <TTGlyph name="braceleft" xMin="-1" yMin="-407" xMax="456" yMax="896">
      <contour>
        <pt x="226" y="637" on="1"/>
        <pt x="234" y="428" on="1"/>
        <pt x="234" y="361" on="0"/>
        <pt x="170" y="273" on="0"/>
        <pt x="101" y="270" on="1"/>
        <pt x="101" y="265" on="1"/>
        <pt x="170" y="262" on="0"/>
        <pt x="234" y="174" on="0"/>
        <pt x="234" y="107" on="1"/>
        <pt x="226" y="-148" on="1"/>
        <pt x="226" y="-190" on="0"/>
        <pt x="230" y="-238" on="0"/>
        <pt x="252" y="-300" on="0"/>
        <pt x="273" y="-316" on="1"/>
        <pt x="324" y="-355" on="0"/>
        <pt x="431" y="-355" on="1"/>
        <pt x="456" y="-355" on="0"/>
        <pt x="456" y="-407" on="0"/>
        <pt x="446" y="-407" on="1"/>
        <pt x="296" y="-407" on="0"/>
        <pt x="157" y="-258" on="0"/>
        <pt x="157" y="-146" on="1"/>
        <pt x="163" y="88" on="1"/>
        <pt x="163" y="163" on="0"/>
        <pt x="113" y="242" on="0"/>
        <pt x="42" y="242" on="1"/>
        <pt x="13" y="240" on="1"/>
        <pt x="-1" y="240" on="0"/>
        <pt x="-1" y="264" on="1"/>
        <pt x="-1" y="275" on="0"/>
        <pt x="7" y="295" on="0"/>
        <pt x="13" y="295" on="1"/>
        <pt x="29" y="293" on="0"/>
        <pt x="42" y="293" on="1"/>
        <pt x="113" y="293" on="0"/>
        <pt x="163" y="372" on="0"/>
        <pt x="163" y="447" on="1"/>
        <pt x="157" y="635" on="1"/>
        <pt x="157" y="747" on="0"/>
        <pt x="296" y="896" on="0"/>
        <pt x="446" y="896" on="1"/>
        <pt x="456" y="896" on="0"/>
        <pt x="456" y="844" on="0"/>
        <pt x="431" y="844" on="1"/>
        <pt x="324" y="844" on="0"/>
        <pt x="273" y="805" on="1"/>
        <pt x="252" y="789" on="0"/>
        <pt x="230" y="727" on="0"/>
        <pt x="226" y="679" on="0"/>
      </contour>
    </TTGlyph>
    <TTGlyph name="braceright" xMin="-120" yMin="-407" xMax="337" yMax="896">
      <contour>
        <pt x="110" y="-148" on="1"/>
        <pt x="102" y="107" on="1"/>
        <pt x="102" y="174" on="0"/>
        <pt x="166" y="262" on="0"/>
        <pt x="235" y="265" on="1"/>
        <pt x="235" y="270" on="1"/>
        <pt x="166" y="273" on="0"/>
        <pt x="102" y="361" on="0"/>
        <pt x="102" y="428" on="1"/>
        <pt x="110" y="637" on="1"/>
        <pt x="110" y="679" on="0"/>
        <pt x="106" y="727" on="0"/>
        <pt x="84" y="789" on="0"/>
        <pt x="63" y="805" on="1"/>
        <pt x="12" y="844" on="0"/>
        <pt x="-95" y="844" on="1"/>
        <pt x="-120" y="844" on="0"/>
        <pt x="-120" y="896" on="0"/>
        <pt x="-110" y="896" on="1"/>
        <pt x="40" y="896" on="0"/>
        <pt x="179" y="747" on="0"/>
        <pt x="179" y="635" on="1"/>
        <pt x="173" y="447" on="1"/>
        <pt x="173" y="372" on="0"/>
        <pt x="223" y="293" on="0"/>
        <pt x="294" y="293" on="1"/>
        <pt x="323" y="295" on="1"/>
        <pt x="329" y="295" on="0"/>
        <pt x="337" y="275" on="0"/>
        <pt x="337" y="264" on="1"/>
        <pt x="337" y="240" on="0"/>
        <pt x="323" y="240" on="1"/>
        <pt x="307" y="242" on="0"/>
        <pt x="294" y="242" on="1"/>
        <pt x="223" y="242" on="0"/>
        <pt x="173" y="163" on="0"/>
        <pt x="173" y="88" on="1"/>
        <pt x="179" y="-146" on="1"/>
        <pt x="179" y="-258" on="0"/>
        <pt x="40" y="-407" on="0"/>
        <pt x="-110" y="-407" on="1"/>
        <pt x="-120" y="-407" on="0"/>
        <pt x="-120" y="-355" on="0"/>
        <pt x="-95" y="-355" on="1"/>
        <pt x="12" y="-355" on="0"/>
        <pt x="63" y="-316" on="1"/>
        <pt x="84" y="-300" on="0"/>
        <pt x="106" y="-238" on="0"/>
        <pt x="110" y="-190" on="0"/>
      </contour>
    </TTGlyph>
    <TTGlyph name="bracketleft" xMin="82" yMin="-397" xMax="461" yMax="886">
      <contour>
        <pt x="450" y="-397" on="1"/>
        <pt x="82" y="-397" on="1"/>
        <pt x="82" y="886" on="1"/>
        <pt x="450" y="886" on="1"/>
        <pt x="461" y="886" on="0"/>
        <pt x="461" y="840" on="0"/>
        <pt x="450" y="840" on="1"/>
        <pt x="156" y="840" on="1"/>
        <pt x="156" y="-352" on="1"/>
        <pt x="450" y="-352" on="1"/>
        <pt x="461" y="-352" on="0"/>
        <pt x="461" y="-397" on="0"/>
      </contour>
    </TTGlyph>
    <TTGlyph name="bracketright" xMin="11" yMin="-397" xMax="390" yMax="886">
      <contour>
        <pt x="390" y="-397" on="1"/>
        <pt x="22" y="-397" on="1"/>
        <pt x="11" y="-397" on="0"/>
        <pt x="11" y="-352" on="0"/>
        <pt x="22" y="-352" on="1"/>
        <pt x="316" y="-352" on="1"/>
        <pt x="316" y="840" on="1"/>
        <pt x="22" y="840" on="1"/>
        <pt x="11" y="840" on="0"/>
        <pt x="11" y="886" on="0"/>
        <pt x="22" y="886" on="1"/>
        <pt x="390" y="886" on="1"/>
      </contour>
    </TTGlyph>
    <TTGlyph name="breve" xMin="66" yMin="531" xMax="342" yMax="667">
      <contour>
        <pt x="342" y="656" on="1"/>
        <pt x="339" y="601" on="0"/>
        <pt x="260" y="531" on="0"/>
        <pt x="148" y="531" on="0"/>
        <pt x="69" y="601" on="0"/>
        <pt x="66" y="656" on="1"/>
        <pt x="66" y="667" on="0"/>
        <pt x="78" y="667" on="1"/>
        <pt x="89" y="667" on="0"/>
        <pt x="92" y="656" on="1"/>
        <pt x="102" y="622" on="0"/>
        <pt x="165" y="590" on="0"/>
        <pt x="243" y="590" on="0"/>
        <pt x="306" y="622" on="0"/>
        <pt x="316" y="656" on="1"/>
        <pt x="319" y="667" on="0"/>
        <pt x="342" y="667" on="0"/>
      </contour>
    </TTGlyph>
    <TTGlyph name="brokenbar" xMin="79" yMin="-151" xMax="123" yMax="753">
      <contour>
        <pt x="96" y="-151" on="1"/>
        <pt x="89" y="-151" on="0"/>
        <pt x="80" y="-147" on="1"/>
        <pt x="79" y="210" on="1"/>
        <pt x="79" y="222" on="0"/>
        <pt x="100" y="233" on="0"/>
        <pt x="110" y="232" on="1"/>
        <pt x="120" y="232" on="1"/>
        <pt x="120" y="-121" on="1"/>
        <pt x="120" y="-151" on="0"/>
      </contour>
      <contour>
        <pt x="121" y="384" on="1"/>
        <pt x="121" y="367" on="0"/>
        <pt x="94" y="367" on="1"/>
        <pt x="92" y="367" on="0"/>
        <pt x="90" y="367" on="1"/>
        <pt x="80" y="368" on="1"/>
        <pt x="80" y="721" on="1"/>
        <pt x="80" y="753" on="0"/>
        <pt x="107" y="753" on="1"/>
        <pt x="123" y="749" on="1"/>
      </contour>
    </TTGlyph>
    <TTGlyph name="bullet" xMin="80" yMin="225" xMax="326" yMax="468">
      <contour>
        <pt x="326" y="296" on="0"/>
        <pt x="253" y="225" on="0"/>
        <pt x="152" y="225" on="0"/>
        <pt x="80" y="297" on="0"/>
        <pt x="80" y="397" on="0"/>
        <pt x="154" y="468" on="0"/>
        <pt x="254" y="468" on="0"/>
        <pt x="326" y="397" on="0"/>
      </contour>
    </TTGlyph>
    <TTGlyph name="c" xMin="40" yMin="-13" xMax="493" yMax="494">
      <contour>
        <pt x="200" y="-13" on="0"/>
        <pt x="40" y="117" on="0"/>
        <pt x="40" y="344" on="0"/>
        <pt x="212" y="494" on="0"/>
        <pt x="331" y="494" on="1"/>
        <pt x="389" y="494" on="0"/>
        <pt x="445" y="465" on="1"/>
        <pt x="445" y="482" on="1"/>
        <pt x="445" y="489" on="0"/>
        <pt x="470" y="489" on="0"/>
        <pt x="470" y="482" on="1"/>
        <pt x="470" y="419" on="0"/>
        <pt x="480" y="351" on="1"/>
        <pt x="481" y="348" on="0"/>
        <pt x="472" y="343" on="0"/>
        <pt x="454" y="343" on="0"/>
        <pt x="452" y="351" on="1"/>
        <pt x="444" y="404" on="1"/>
        <pt x="388" y="457" on="0"/>
        <pt x="243" y="457" on="0"/>
        <pt x="140" y="333" on="0"/>
        <pt x="140" y="147" on="0"/>
        <pt x="248" y="24" on="0"/>
        <pt x="394" y="24" on="0"/>
        <pt x="459" y="67" on="1"/>
        <pt x="464" y="124" on="1"/>
        <pt x="464" y="132" on="0"/>
        <pt x="492" y="132" on="0"/>
        <pt x="492" y="125" on="1"/>
        <pt x="486" y="-2" on="1"/>
        <pt x="486" y="-8" on="0"/>
        <pt x="459" y="-8" on="0"/>
        <pt x="459" y="-2" on="1"/>
        <pt x="459" y="15" on="1"/>
        <pt x="390" y="-13" on="0"/>
        <pt x="322" y="-13" on="1"/>
      </contour>
    </TTGlyph>
    <TTGlyph name="caron" xMin="66" yMin="516" xMax="345" yMax="685">
      <contour>
        <pt x="315" y="677" on="1"/>
        <pt x="324" y="685" on="0"/>
        <pt x="342" y="685" on="0"/>
        <pt x="345" y="677" on="1"/>
        <pt x="231" y="530" on="1"/>
        <pt x="220" y="516" on="0"/>
        <pt x="190" y="516" on="0"/>
        <pt x="176" y="530" on="1"/>
        <pt x="66" y="677" on="1"/>
        <pt x="71" y="684" on="0"/>
        <pt x="89" y="684" on="0"/>
        <pt x="97" y="677" on="1"/>
        <pt x="204" y="587" on="1"/>
      </contour>
    </TTGlyph>
    <TTGlyph name="ccedilla" xMin="40" yMin="-172" xMax="493" yMax="494">
      <contour>
        <pt x="40" y="224" on="1"/>
        <pt x="40" y="344" on="0"/>
        <pt x="212" y="494" on="0"/>
        <pt x="331" y="494" on="1"/>
        <pt x="389" y="494" on="0"/>
        <pt x="445" y="465" on="1"/>
        <pt x="445" y="482" on="1"/>
        <pt x="445" y="489" on="0"/>
        <pt x="470" y="489" on="0"/>
        <pt x="470" y="482" on="1"/>
        <pt x="470" y="419" on="0"/>
        <pt x="480" y="351" on="1"/>
        <pt x="481" y="348" on="0"/>
        <pt x="472" y="343" on="0"/>
        <pt x="454" y="343" on="0"/>
        <pt x="452" y="351" on="1"/>
        <pt x="444" y="404" on="1"/>
        <pt x="388" y="457" on="0"/>
        <pt x="243" y="457" on="0"/>
        <pt x="140" y="333" on="0"/>
        <pt x="140" y="147" on="0"/>
        <pt x="248" y="24" on="0"/>
        <pt x="394" y="24" on="0"/>
        <pt x="459" y="67" on="1"/>
        <pt x="464" y="124" on="1"/>
        <pt x="464" y="132" on="0"/>
        <pt x="492" y="132" on="0"/>
        <pt x="492" y="125" on="1"/>
        <pt x="486" y="-2" on="1"/>
        <pt x="486" y="-8" on="0"/>
        <pt x="459" y="-8" on="0"/>
        <pt x="459" y="-2" on="1"/>
        <pt x="459" y="15" on="1"/>
        <pt x="390" y="-13" on="0"/>
        <pt x="322" y="-13" on="1"/>
        <pt x="309" y="-50" on="1"/>
        <pt x="311" y="-50" on="0"/>
        <pt x="313" y="-50" on="1"/>
        <pt x="345" y="-50" on="0"/>
        <pt x="399" y="-79" on="0"/>
        <pt x="399" y="-140" on="0"/>
        <pt x="353" y="-172" on="0"/>
        <pt x="296" y="-172" on="0"/>
        <pt x="239" y="-144" on="0"/>
        <pt x="239" y="-101" on="0"/>
        <pt x="260" y="-101" on="1"/>
        <pt x="276" y="-101" on="0"/>
        <pt x="282" y="-115" on="1"/>
        <pt x="278" y="-120" on="0"/>
        <pt x="278" y="-136" on="0"/>
        <pt x="302" y="-150" on="0"/>
        <pt x="332" y="-150" on="0"/>
        <pt x="356" y="-131" on="0"/>
        <pt x="356" y="-114" on="1"/>
        <pt x="356" y="-71" on="0"/>
        <pt x="296" y="-71" on="1"/>
        <pt x="292" y="-71" on="0"/>
        <pt x="276" y="-72" on="0"/>
        <pt x="272" y="-72" on="1"/>
        <pt x="294" y="-12" on="1"/>
        <pt x="182" y="-4" on="0"/>
        <pt x="40" y="123" on="0"/>
      </contour>
    </TTGlyph>
    <TTGlyph name="cedilla" xMin="66" yMin="-172" xMax="226" yMax="0">
      <contour>
        <pt x="140" y="-50" on="1"/>
        <pt x="172" y="-50" on="0"/>
        <pt x="226" y="-79" on="0"/>
        <pt x="226" y="-140" on="0"/>
        <pt x="180" y="-172" on="0"/>
        <pt x="123" y="-172" on="0"/>
        <pt x="66" y="-144" on="0"/>
        <pt x="66" y="-101" on="0"/>
        <pt x="87" y="-101" on="1"/>
        <pt x="103" y="-101" on="0"/>
        <pt x="109" y="-115" on="1"/>
        <pt x="105" y="-120" on="0"/>
        <pt x="105" y="-136" on="0"/>
        <pt x="129" y="-150" on="0"/>
        <pt x="159" y="-150" on="0"/>
        <pt x="183" y="-131" on="0"/>
        <pt x="183" y="-114" on="1"/>
        <pt x="183" y="-71" on="0"/>
        <pt x="123" y="-71" on="1"/>
        <pt x="119" y="-71" on="0"/>
        <pt x="103" y="-72" on="0"/>
        <pt x="99" y="-72" on="1"/>
        <pt x="126" y="0" on="1"/>
        <pt x="154" y="0" on="1"/>
        <pt x="136" y="-50" on="1"/>
        <pt x="138" y="-50" on="0"/>
      </contour>
    </TTGlyph>
    <TTGlyph name="cent" xMin="85" yMin="-25" xMax="476" yMax="727">
      <contour>
        <pt x="395" y="576" on="0"/>
        <pt x="457" y="538" on="0"/>
        <pt x="457" y="481" on="0"/>
        <pt x="419" y="465" on="1"/>
        <pt x="379" y="504" on="0"/>
        <pt x="339" y="519" on="1"/>
        <pt x="290" y="189" on="1"/>
        <pt x="307" y="185" on="0"/>
        <pt x="367" y="185" on="0"/>
        <pt x="428" y="206" on="0"/>
        <pt x="461" y="228" on="0"/>
        <pt x="464" y="228" on="1"/>
        <pt x="476" y="228" on="0"/>
        <pt x="476" y="204" on="0"/>
        <pt x="432" y="157" on="0"/>
        <pt x="345" y="113" on="0"/>
        <pt x="298" y="113" on="1"/>
        <pt x="278" y="113" on="1"/>
        <pt x="267" y="36" on="0"/>
        <pt x="261" y="-1" on="1"/>
        <pt x="259" y="-13" on="0"/>
        <pt x="243" y="-25" on="0"/>
        <pt x="229" y="-25" on="0"/>
        <pt x="219" y="-20" on="1"/>
        <pt x="239" y="120" on="1"/>
        <pt x="166" y="137" on="0"/>
        <pt x="85" y="247" on="0"/>
        <pt x="85" y="314" on="1"/>
        <pt x="85" y="410" on="0"/>
        <pt x="213" y="554" on="0"/>
        <pt x="303" y="571" on="1"/>
        <pt x="321" y="700" on="1"/>
        <pt x="325" y="727" on="0"/>
        <pt x="345" y="727" on="1"/>
        <pt x="355" y="727" on="0"/>
        <pt x="369" y="720" on="1"/>
        <pt x="360" y="660" on="0"/>
        <pt x="348" y="576" on="1"/>
      </contour>
      <contour>
        <pt x="169" y="367" on="1"/>
        <pt x="169" y="251" on="0"/>
        <pt x="251" y="205" on="1"/>
        <pt x="296" y="527" on="1"/>
        <pt x="293" y="527" on="1"/>
        <pt x="241" y="527" on="0"/>
        <pt x="169" y="442" on="0"/>
      </contour>
    </TTGlyph>
    <TTGlyph name="circumflex" xMin="66" yMin="522" xMax="345" yMax="691">
      <contour>
        <pt x="96" y="530" on="1"/>
        <pt x="87" y="522" on="0"/>
        <pt x="69" y="522" on="0"/>
        <pt x="66" y="530" on="1"/>
        <pt x="180" y="677" on="1"/>
        <pt x="191" y="691" on="0"/>
        <pt x="221" y="691" on="0"/>
        <pt x="235" y="677" on="1"/>
        <pt x="345" y="530" on="1"/>
        <pt x="340" y="523" on="0"/>
        <pt x="322" y="523" on="0"/>
        <pt x="314" y="530" on="1"/>
        <pt x="207" y="620" on="1"/>
      </contour>
    </TTGlyph>
    <TTGlyph name="colon" xMin="73" yMin="-13" xMax="187" yMax="437">
      <contour>
        <pt x="187" y="358" on="0"/>
        <pt x="154" y="323" on="0"/>
        <pt x="107" y="323" on="0"/>
        <pt x="73" y="356" on="0"/>
        <pt x="73" y="402" on="0"/>
        <pt x="104" y="437" on="0"/>
        <pt x="151" y="437" on="0"/>
        <pt x="187" y="406" on="0"/>
      </contour>
      <contour>
        <pt x="187" y="22" on="0"/>
        <pt x="154" y="-13" on="0"/>
        <pt x="107" y="-13" on="0"/>
        <pt x="73" y="20" on="0"/>
        <pt x="73" y="66" on="0"/>
        <pt x="104" y="101" on="0"/>
        <pt x="151" y="101" on="0"/>
        <pt x="187" y="70" on="0"/>
      </contour>
    </TTGlyph>
    <TTGlyph name="comma" xMin="60" yMin="-164" xMax="203" yMax="102">
      <contour>
        <pt x="159" y="-37" on="1"/>
        <pt x="159" y="-1" on="0"/>
        <pt x="111" y="-1" on="1"/>
        <pt x="105" y="-1" on="0"/>
        <pt x="98" y="-2" on="1"/>
        <pt x="72" y="11" on="0"/>
        <pt x="72" y="69" on="0"/>
        <pt x="104" y="102" on="0"/>
        <pt x="163" y="102" on="0"/>
        <pt x="203" y="50" on="0"/>
        <pt x="203" y="16" on="1"/>
        <pt x="203" y="-49" on="0"/>
        <pt x="134" y="-129" on="0"/>
        <pt x="71" y="-164" on="1"/>
        <pt x="60" y="-145" on="1"/>
        <pt x="102" y="-124" on="0"/>
        <pt x="159" y="-62" on="0"/>
      </contour>
    </TTGlyph>
    <TTGlyph name="copyright" xMin="35" yMin="-13" xMax="705" yMax="672">
      <contour>
        <pt x="705" y="471" on="0"/>
        <pt x="705" y="187" on="0"/>
        <pt x="508" y="-13" on="0"/>
        <pt x="230" y="-13" on="0"/>
        <pt x="35" y="188" on="0"/>
        <pt x="35" y="469" on="0"/>
        <pt x="229" y="672" on="0"/>
        <pt x="507" y="672" on="0"/>
      </contour>
      <contour>
        <pt x="490" y="31" on="0"/>
        <pt x="661" y="205" on="0"/>
        <pt x="661" y="454" on="0"/>
        <pt x="490" y="628" on="0"/>
        <pt x="246" y="628" on="0"/>
        <pt x="79" y="452" on="0"/>
        <pt x="79" y="205" on="0"/>
        <pt x="247" y="31" on="0"/>
      </contour>
      <contour>
        <pt x="299" y="144" on="0"/>
        <pt x="170" y="239" on="0"/>
        <pt x="170" y="413" on="0"/>
        <pt x="307" y="521" on="0"/>
        <pt x="399" y="521" on="1"/>
        <pt x="444" y="521" on="0"/>
        <pt x="486" y="501" on="1"/>
        <pt x="486" y="517" on="1"/>
        <pt x="486" y="522" on="0"/>
        <pt x="505" y="522" on="0"/>
        <pt x="505" y="517" on="1"/>
        <pt x="505" y="471" on="0"/>
        <pt x="510" y="428" on="1"/>
        <pt x="511" y="426" on="0"/>
        <pt x="504" y="422" on="0"/>
        <pt x="490" y="422" on="0"/>
        <pt x="488" y="428" on="1"/>
        <pt x="485" y="454" on="1"/>
        <pt x="443" y="492" on="0"/>
        <pt x="329" y="492" on="0"/>
        <pt x="251" y="406" on="0"/>
        <pt x="251" y="258" on="0"/>
        <pt x="333" y="174" on="0"/>
        <pt x="450" y="174" on="0"/>
        <pt x="495" y="206" on="1"/>
        <pt x="499" y="231" on="1"/>
        <pt x="500" y="237" on="0"/>
        <pt x="521" y="237" on="0"/>
        <pt x="521" y="231" on="1"/>
        <pt x="516" y="207" on="0"/>
        <pt x="516" y="148" on="1"/>
        <pt x="516" y="144" on="0"/>
        <pt x="495" y="144" on="0"/>
        <pt x="495" y="148" on="1"/>
        <pt x="495" y="165" on="1"/>
        <pt x="440" y="144" on="0"/>
        <pt x="393" y="144" on="1"/>
      </contour>
    </TTGlyph>
    <TTGlyph name="currency" xMin="29" yMin="82" xMax="527" yMax="608">
      <contour>
        <pt x="60" y="264" on="0"/>
        <pt x="60" y="426" on="0"/>
        <pt x="105" y="488" on="1"/>
        <pt x="49" y="533" on="1"/>
        <pt x="29" y="550" on="0"/>
        <pt x="29" y="594" on="0"/>
        <pt x="62" y="608" on="1"/>
        <pt x="75" y="589" on="0"/>
        <pt x="121" y="536" on="1"/>
        <pt x="135" y="520" on="1"/>
        <pt x="196" y="573" on="0"/>
        <pt x="360" y="573" on="0"/>
        <pt x="421" y="520" on="1"/>
        <pt x="476" y="582" on="0"/>
        <pt x="494" y="608" on="1"/>
        <pt x="527" y="594" on="0"/>
        <pt x="527" y="550" on="0"/>
        <pt x="507" y="533" on="1"/>
        <pt x="451" y="488" on="1"/>
        <pt x="496" y="426" on="0"/>
        <pt x="496" y="264" on="0"/>
        <pt x="451" y="202" on="1"/>
        <pt x="507" y="157" on="1"/>
        <pt x="527" y="140" on="0"/>
        <pt x="527" y="96" on="0"/>
        <pt x="494" y="82" on="1"/>
        <pt x="481" y="101" on="0"/>
        <pt x="435" y="154" on="1"/>
        <pt x="421" y="170" on="1"/>
        <pt x="360" y="117" on="0"/>
        <pt x="196" y="117" on="0"/>
        <pt x="135" y="170" on="1"/>
        <pt x="80" y="108" on="0"/>
        <pt x="62" y="82" on="1"/>
        <pt x="29" y="96" on="0"/>
        <pt x="29" y="140" on="0"/>
        <pt x="49" y="157" on="1"/>
        <pt x="105" y="202" on="1"/>
      </contour>
      <contour>
        <pt x="341" y="180" on="0"/>
        <pt x="435" y="265" on="0"/>
        <pt x="435" y="427" on="0"/>
        <pt x="342" y="510" on="0"/>
        <pt x="214" y="510" on="0"/>
        <pt x="121" y="427" on="0"/>
        <pt x="121" y="265" on="0"/>
        <pt x="215" y="180" on="0"/>
      </contour>
    </TTGlyph>
    <TTGlyph name="d" xMin="38" yMin="-2" xMax="540" yMax="483">
      <contour>
        <pt x="154" y="0" on="1"/>
        <pt x="47" y="-2" on="1"/>
        <pt x="40" y="-2" on="0"/>
        <pt x="40" y="28" on="0"/>
        <pt x="45" y="28" on="1"/>
        <pt x="94" y="28" on="1"/>
        <pt x="106" y="28" on="0"/>
        <pt x="106" y="45" on="1"/>
        <pt x="106" y="373" on="1"/>
        <pt x="106" y="452" on="0"/>
        <pt x="84" y="452" on="1"/>
        <pt x="49" y="452" on="1"/>
        <pt x="38" y="452" on="0"/>
        <pt x="38" y="483" on="0"/>
        <pt x="47" y="483" on="1"/>
        <pt x="99" y="481" on="0"/>
        <pt x="152" y="481" on="1"/>
        <pt x="249" y="481" on="1"/>
        <pt x="379" y="481" on="0"/>
        <pt x="540" y="340" on="0"/>
        <pt x="540" y="130" on="0"/>
        <pt x="383" y="0" on="0"/>
        <pt x="263" y="0" on="1"/>
      </contour>
      <contour>
        <pt x="215" y="451" on="1"/>
        <pt x="191" y="451" on="0"/>
        <pt x="191" y="422" on="1"/>
        <pt x="191" y="110" on="1"/>
        <pt x="191" y="32" on="0"/>
        <pt x="212" y="32" on="1"/>
        <pt x="248" y="32" on="1"/>
        <pt x="340" y="32" on="0"/>
        <pt x="439" y="136" on="0"/>
        <pt x="439" y="323" on="0"/>
        <pt x="331" y="447" on="0"/>
        <pt x="218" y="451" on="1"/>
        <pt x="216" y="451" on="0"/>
      </contour>
    </TTGlyph>
    <TTGlyph name="dagger" xMin="53" yMin="-157" xMax="447" yMax="625">
      <contour>
        <pt x="446" y="361" on="1"/>
        <pt x="446" y="358" on="0"/>
        <pt x="446" y="354" on="1"/>
        <pt x="278" y="354" on="1"/>
        <pt x="275" y="275" on="0"/>
        <pt x="275" y="188" on="1"/>
        <pt x="275" y="-30" on="0"/>
        <pt x="298" y="-148" on="1"/>
        <pt x="278" y="-157" on="0"/>
        <pt x="252" y="-157" on="1"/>
        <pt x="204" y="-157" on="0"/>
        <pt x="204" y="19" on="1"/>
        <pt x="204" y="70" on="0"/>
        <pt x="214" y="310" on="0"/>
        <pt x="215" y="354" on="1"/>
        <pt x="90" y="354" on="1"/>
        <pt x="73" y="354" on="0"/>
        <pt x="55" y="376" on="0"/>
        <pt x="54" y="387" on="1"/>
        <pt x="53" y="398" on="1"/>
        <pt x="153" y="398" on="0"/>
        <pt x="216" y="399" on="1"/>
        <pt x="217" y="423" on="0"/>
        <pt x="217" y="502" on="0"/>
        <pt x="214" y="553" on="0"/>
        <pt x="210" y="577" on="0"/>
        <pt x="209" y="586" on="1"/>
        <pt x="207" y="600" on="0"/>
        <pt x="215" y="602" on="1"/>
        <pt x="296" y="625" on="0"/>
        <pt x="312" y="625" on="0"/>
        <pt x="314" y="619" on="0"/>
        <pt x="310" y="604" on="0"/>
        <pt x="308" y="595" on="1"/>
        <pt x="287" y="522" on="0"/>
        <pt x="281" y="400" on="1"/>
        <pt x="399" y="403" on="1"/>
        <pt x="446" y="403" on="0"/>
      </contour>
    </TTGlyph>
    <TTGlyph name="daggerdbl" xMin="53" yMin="-157" xMax="447" yMax="625">
      <contour>
        <pt x="446" y="100" on="1"/>
        <pt x="446" y="97" on="0"/>
        <pt x="446" y="93" on="1"/>
        <pt x="276" y="93" on="1"/>
        <pt x="281" y="-60" on="0"/>
        <pt x="298" y="-148" on="1"/>
        <pt x="278" y="-157" on="0"/>
        <pt x="252" y="-157" on="1"/>
        <pt x="204" y="-157" on="0"/>
        <pt x="204" y="19" on="1"/>
        <pt x="204" y="67" on="0"/>
        <pt x="205" y="93" on="1"/>
        <pt x="90" y="93" on="1"/>
        <pt x="73" y="93" on="0"/>
        <pt x="55" y="115" on="0"/>
        <pt x="54" y="126" on="1"/>
        <pt x="53" y="137" on="1"/>
        <pt x="147" y="137" on="0"/>
        <pt x="206" y="138" on="1"/>
        <pt x="214" y="318" on="0"/>
        <pt x="215" y="354" on="1"/>
        <pt x="90" y="354" on="1"/>
        <pt x="73" y="354" on="0"/>
        <pt x="55" y="376" on="0"/>
        <pt x="54" y="387" on="1"/>
        <pt x="53" y="398" on="1"/>
        <pt x="153" y="398" on="0"/>
        <pt x="216" y="399" on="1"/>
        <pt x="217" y="423" on="0"/>
        <pt x="217" y="502" on="0"/>
        <pt x="214" y="553" on="0"/>
        <pt x="210" y="577" on="0"/>
        <pt x="209" y="586" on="1"/>
        <pt x="207" y="600" on="0"/>
        <pt x="215" y="602" on="1"/>
        <pt x="296" y="625" on="0"/>
        <pt x="312" y="625" on="0"/>
        <pt x="314" y="619" on="0"/>
        <pt x="310" y="604" on="0"/>
        <pt x="308" y="595" on="1"/>
        <pt x="287" y="522" on="0"/>
        <pt x="281" y="400" on="1"/>
        <pt x="399" y="403" on="1"/>
        <pt x="446" y="403" on="0"/>
        <pt x="446" y="361" on="1"/>
        <pt x="446" y="358" on="0"/>
        <pt x="446" y="354" on="1"/>
        <pt x="278" y="354" on="1"/>
        <pt x="275" y="275" on="0"/>
        <pt x="275" y="188" on="1"/>
        <pt x="275" y="139" on="1"/>
        <pt x="399" y="142" on="1"/>
        <pt x="446" y="142" on="0"/>
      </contour>
    </TTGlyph>
    <TTGlyph name="degree" xMin="75" yMin="422" xMax="325" yMax="672">
      <contour>
        <pt x="251" y="672" on="0"/>
        <pt x="325" y="598" on="0"/>
        <pt x="325" y="495" on="0"/>
        <pt x="251" y="422" on="0"/>
        <pt x="148" y="422" on="0"/>
        <pt x="75" y="495" on="0"/>
        <pt x="75" y="599" on="0"/>
        <pt x="148" y="672" on="0"/>
      </contour>
      <contour>
        <pt x="292" y="509" on="0"/>
        <pt x="292" y="585" on="0"/>
        <pt x="237" y="639" on="0"/>
        <pt x="162" y="639" on="0"/>
        <pt x="108" y="585" on="0"/>
        <pt x="108" y="509" on="0"/>
        <pt x="162" y="455" on="0"/>
        <pt x="238" y="455" on="0"/>
      </contour>
    </TTGlyph>
</ttFont>
